<svg width="411" height="117" viewBox="0 0 411 117" fill="none" xmlns="http://www.w3.org/2000/svg">
<g clip-path="url(#clip0_241_383)">
<path d="M203.029 0C203.489 0 203.946 0.0141278 204.397 0.0417838C204.814 0.0672594 205.231 0.0672552 205.647 0.0417779C206.099 0.0141208 206.555 0 207.015 0H362.991C371.153 5.80427e-05 377.259 4.93465 382.816 12.4941C385.862 16.6367 387.777 21.4759 389.093 26.4463L408.721 100.602C409.892 105.027 410.971 109.859 408.767 113.871C405.807 119.261 399.335 123 391.827 123H207.015C206.555 123 206.099 122.985 205.647 122.957C205.231 122.932 204.814 122.932 204.397 122.957C203.946 122.985 203.489 123 203.029 123H18.2166C10.7088 123 4.23652 119.261 1.27615 113.871C-0.927547 109.859 0.150674 105.027 1.32205 100.602L20.951 26.4463C22.2667 21.4758 24.1817 16.6367 27.2274 12.4941C32.7851 4.93462 38.8909 0 47.0526 0H203.029Z" fill="#341D1A"/>
<g filter="url(#filter0_d_241_383)">
<path d="M99.2756 77.7267C106.146 77.7267 111.716 72.1582 111.716 65.2892C111.716 58.4201 106.146 52.8517 99.2756 52.8517C92.4051 52.8517 86.8356 58.4201 86.8356 65.2892C86.8356 72.1582 92.4051 77.7267 99.2756 77.7267Z" fill="#341D1A"/>
<path d="M99.2756 74.2892C104.246 74.2892 108.276 70.2597 108.276 65.2892C108.276 60.3186 104.246 56.2892 99.2756 56.2892C94.305 56.2892 90.2756 60.3186 90.2756 65.2892C90.2756 70.2597 94.305 74.2892 99.2756 74.2892Z" fill="#F7405E"/>
<path d="M100.175 69.2892H98.3754C98.2347 69.2892 98.131 69.2596 98.0643 69.2003C98.005 69.1336 97.9754 69.0299 97.9754 68.8892V63.4336H96.3421C96.2013 63.4336 96.0976 63.404 96.031 63.3447C95.9717 63.2781 95.9421 63.1744 95.9421 63.0336V61.6892C95.9421 61.5484 95.9717 61.4484 96.031 61.3892C96.0976 61.3225 96.2013 61.2892 96.3421 61.2892H102.209C102.349 61.2892 102.449 61.3225 102.509 61.3892C102.575 61.4484 102.609 61.5484 102.609 61.6892V63.0336C102.609 63.1744 102.575 63.2781 102.509 63.3447C102.449 63.404 102.349 63.4336 102.209 63.4336H100.575V68.8892C100.575 69.0299 100.542 69.1336 100.475 69.2003C100.416 69.2596 100.316 69.2892 100.175 69.2892Z" fill="#691010"/>
</g>
</g>
<defs>
<filter id="filter0_d_241_383" x="86.8356" y="52.8517" width="24.88" height="28.875" filterUnits="userSpaceOnUse" color-interpolation-filters="sRGB">
<feFlood flood-opacity="0" result="BackgroundImageFix"/>
<feColorMatrix in="SourceAlpha" type="matrix" values="0 0 0 0 0 0 0 0 0 0 0 0 0 0 0 0 0 0 127 0" result="hardAlpha"/>
<feOffset dy="4"/>
<feComposite in2="hardAlpha" operator="out"/>
<feColorMatrix type="matrix" values="0 0 0 0 0 0 0 0 0 0 0 0 0 0 0 0 0 0 0.25 0"/>
<feBlend mode="normal" in2="BackgroundImageFix" result="effect1_dropShadow_241_383"/>
<feBlend mode="normal" in="SourceGraphic" in2="effect1_dropShadow_241_383" result="shape"/>
</filter>
<clipPath id="clip0_241_383">
<rect width="411" height="117" fill="white"/>
</clipPath>
</defs>
</svg>
