<svg width="49" height="41" viewBox="0 0 49 41" fill="none" xmlns="http://www.w3.org/2000/svg">
<g clip-path="url(#clip0_252_192)">
<path d="M16.652 9.18665C7.98462 9.18665 0.999634 16.0372 0.999634 24.4366C0.999695 32.836 7.98466 39.6866 16.652 39.6866C25.3191 39.6865 32.3033 32.8359 32.3033 24.4366C32.3033 16.0374 25.3192 9.18682 16.652 9.18665Z" fill="#A5DFF7" stroke="#341D1A" stroke-width="2"/>
<path d="M32.025 6.90392L40.671 0.500031" stroke="#341D1A" stroke-linecap="round"/>
<path d="M37.6355 19.4665L48.2827 17.9147" stroke="#341D1A" stroke-linecap="round"/>
<path d="M13.6533 32.2739C16.5304 32.2739 18.8627 29.9413 18.8627 27.0638C18.8627 24.1863 16.5304 21.8536 13.6533 21.8536C10.7763 21.8536 8.44397 24.1863 8.44397 27.0638C8.44397 29.9413 10.7763 32.2739 13.6533 32.2739Z" fill="#341D1A"/>
</g>
<defs>
<clipPath id="clip0_252_192">
<rect width="49" height="41" fill="white"/>
</clipPath>
</defs>
</svg>
