<svg width="33" height="102" viewBox="0 0 33 102" fill="none" xmlns="http://www.w3.org/2000/svg">
<g clip-path="url(#clip0_253_192)">
<path d="M16.7501 80.0735H16.7501C14.6849 80.0735 13.0107 78.3993 13.0107 76.3342V4.23922C13.0107 2.17404 14.6849 0.499886 16.7501 0.499886C18.8153 0.499886 20.4894 2.17404 20.4894 4.23922V76.3342C20.4894 78.3993 18.8153 80.0735 16.7501 80.0735Z" fill="#9CDEFA"/>
<path d="M16.7501 80.0735H16.7501C18.8153 80.0735 20.4894 78.3993 20.4894 76.3342V4.23922C20.4894 2.17404 18.8153 0.499886 16.7501 0.499886H16.7501C14.6849 0.499886 13.0107 2.17404 13.0107 4.23922V76.3342C13.0107 78.3993 14.6849 80.0735 16.7501 80.0735Z" stroke="#341D1A"/>
<path d="M16.2788 70.4418H16.2773C7.83988 70.4418 1 77.2817 1 85.7191C1 94.1565 7.83988 100.996 16.2773 100.996H16.2788C24.7162 100.996 31.5561 94.1565 31.5561 85.7191C31.5561 77.2817 24.7162 70.4418 16.2788 70.4418Z" fill="#EE4AA6" stroke="#341D1A" stroke-width="2"/>
<path d="M26.6347 82.7535C26.6347 76.6889 21.7184 71.7726 15.6538 71.7726C9.58927 71.7726 4.67297 76.6889 4.67297 82.7535V83.5687C4.67297 89.6333 9.58927 94.5496 15.6538 94.5496C21.7184 94.5496 26.6347 89.6333 26.6347 83.5687V82.7535Z" fill="#FF73B8"/>
<path d="M12.1848 73.9863H12.1654C9.59141 73.9863 7.50476 76.073 7.50476 78.647C7.50476 81.221 9.59141 83.3076 12.1654 83.3076H12.1848C14.7588 83.3076 16.8455 81.221 16.8455 78.647C16.8455 76.073 14.7588 73.9863 12.1848 73.9863Z" fill="#FFE5F2"/>
</g>
<defs>
<clipPath id="clip0_253_192">
<rect width="33" height="102" fill="white"/>
</clipPath>
</defs>
</svg>
