<svg width="33" height="95" viewBox="0 0 33 95" fill="none" xmlns="http://www.w3.org/2000/svg">
<g clip-path="url(#clip0_252_209)">
<path d="M16.7508 26.201H16.7507C14.6856 26.201 13.0114 27.8751 13.0114 29.9403V90.1989C13.0114 92.264 14.6856 93.9382 16.7508 93.9382C18.8159 93.9382 20.4901 92.264 20.4901 90.1989V29.9403C20.4901 27.8751 18.8159 26.201 16.7508 26.201Z" fill="#9CDEFA"/>
<path d="M16.7507 26.201H16.7508C18.8159 26.201 20.4901 27.8751 20.4901 29.9403V90.1989C20.4901 92.264 18.8159 93.9382 16.7508 93.9382H16.7507C14.6856 93.9382 13.0114 92.264 13.0114 90.1989V29.9403C13.0114 27.8751 14.6856 26.201 16.7507 26.201Z" stroke="#341D1A"/>
<path d="M16.2788 1H16.2773C7.83988 1 1 7.83988 1 16.2773C1 24.7147 7.83988 31.5546 16.2773 31.5546H16.2788C24.7162 31.5546 31.5561 24.7147 31.5561 16.2773C31.5561 7.83988 24.7162 1 16.2788 1Z" fill="#EE4AA6" stroke="#341D1A" stroke-width="2"/>
<path d="M26.6347 13.3116C26.6347 7.24707 21.7184 2.33075 15.6539 2.33075C9.5893 2.33075 4.673 7.24707 4.673 13.3116V14.1269C4.673 20.1914 9.5893 25.1077 15.6539 25.1077C21.7184 25.1077 26.6347 20.1914 26.6347 14.1269V13.3116Z" fill="#FF73B8"/>
<path d="M12.1849 4.54437H12.1655C9.5915 4.54437 7.50485 6.63102 7.50485 9.20502C7.50485 11.779 9.5915 13.8657 12.1655 13.8657H12.1849C14.7589 13.8657 16.8456 11.779 16.8456 9.20502C16.8456 6.63102 14.7589 4.54437 12.1849 4.54437Z" fill="#FFE5F2"/>
</g>
<defs>
<clipPath id="clip0_252_209">
<rect width="33" height="95" fill="white"/>
</clipPath>
</defs>
</svg>
