<svg width="49" height="41" viewBox="0 0 49 41" fill="none" xmlns="http://www.w3.org/2000/svg">
<g clip-path="url(#clip0_252_203)">
<path d="M32.1229 9.18896C40.7899 9.18904 47.7743 16.0399 47.7743 24.4399C47.7743 32.84 40.7899 39.6908 32.1229 39.6909C23.4559 39.6909 16.4716 32.84 16.4716 24.4399C16.4716 16.0399 23.4559 9.18896 32.1229 9.18896Z" fill="#A5DFF7" stroke="#341D1A" stroke-width="2"/>
<path d="M16.7664 6.90436L8.12054 0.500031" stroke="#341D1A" stroke-linecap="round"/>
<path d="M11.147 19.4675L0.500061 17.9156" stroke="#341D1A" stroke-linecap="round"/>
<path d="M33.6822 33.3526C36.5594 33.3526 38.8919 31.0198 38.8919 28.1421C38.8919 25.2644 36.5594 22.9316 33.6822 22.9316C30.8049 22.9316 28.4725 25.2644 28.4725 28.1421C28.4725 31.0198 30.8049 33.3526 33.6822 33.3526Z" fill="#341D1A"/>
</g>
<defs>
<clipPath id="clip0_252_203">
<rect width="49" height="41" fill="white"/>
</clipPath>
</defs>
</svg>
