<svg width="345" height="77" viewBox="0 0 345 77" fill="none" xmlns="http://www.w3.org/2000/svg">
<g filter="url(#filter0_d_58_1213)">
<mask id="path-1-outside-1_58_1213" maskUnits="userSpaceOnUse" x="-0.996582" y="-0.999512" width="346" height="71" fill="black">
<rect fill="white" x="-0.996582" y="-0.999512" width="346" height="71"/>
<path d="M181.513 2.01221C188.566 1.99476 193.262 1.99735 196.242 2.01203C197.31 2.01728 204.104 2.11501 205.172 2.12107C207.427 2.13384 209.799 2.14777 212.292 2.16357C258.975 2.45963 313.03 10.3702 334.741 14.3771C335.058 14.4355 335.309 14.6399 335.446 14.931L342.244 29.3813C342.538 29.8746 342.183 30.5005 341.608 30.5005H333.484C333.314 30.5005 333.134 30.4384 332.972 30.494C332.04 30.8153 329.589 34.4774 325.374 47.6509C320.697 62.2663 310.396 66.6666 305.831 67.0396H42.7661C37.6705 66.6667 26.1745 62.2664 20.9546 47.6509C16.1696 34.253 13.4211 30.6935 12.422 30.4806C12.2704 30.4483 12.1122 30.5005 11.9572 30.5005H2.72443C2.1495 30.5005 1.80657 29.8597 2.12549 29.3813L9.72463 14.9072C9.8701 14.6301 10.1194 14.4399 10.4282 14.3888C34.6131 10.3856 95.0098 2.45991 147.164 2.16357C153.643 2.12676 159.387 2.09714 164.469 2.07373C165.306 2.01821 169.752 1.97973 181.513 2.01221Z"/>
</mask>
<g filter="url(#filter1_ii_58_1213)">
<path d="M181.513 2.01221C188.566 1.99476 193.262 1.99735 196.242 2.01203C197.31 2.01728 204.104 2.11501 205.172 2.12107C207.427 2.13384 209.799 2.14777 212.292 2.16357C258.975 2.45963 313.03 10.3702 334.741 14.3771C335.058 14.4355 335.309 14.6399 335.446 14.931L342.244 29.3813C342.538 29.8746 342.183 30.5005 341.608 30.5005H333.484C333.314 30.5005 333.134 30.4384 332.972 30.494C332.04 30.8153 329.589 34.4774 325.374 47.6509C320.697 62.2663 310.396 66.6666 305.831 67.0396H42.7661C37.6705 66.6667 26.1745 62.2664 20.9546 47.6509C16.1696 34.253 13.4211 30.6935 12.422 30.4806C12.2704 30.4483 12.1122 30.5005 11.9572 30.5005H2.72443C2.1495 30.5005 1.80657 29.8597 2.12549 29.3813L9.72463 14.9072C9.8701 14.6301 10.1194 14.4399 10.4282 14.3888C34.6131 10.3856 95.0098 2.45991 147.164 2.16357C153.643 2.12676 159.387 2.09714 164.469 2.07373C165.306 2.01821 169.752 1.97973 181.513 2.01221Z" fill="#FFA013"/>
</g>
<path d="M181.513 2.01221L181.508 4.01223L181.518 4.0122L181.513 2.01221ZM212.292 2.16357L212.304 0.163614L212.292 2.16357ZM342.244 29.3813L340.434 30.2327C340.462 30.292 340.493 30.35 340.526 30.4064L342.244 29.3813ZM325.374 47.6509L323.469 47.0413V47.0413L325.374 47.6509ZM305.831 67.0396V69.0396C305.885 69.0396 305.939 69.0373 305.993 69.0329L305.831 67.0396ZM42.7661 67.0396L42.6201 69.0342C42.6687 69.0378 42.7174 69.0396 42.7661 69.0396V67.0396ZM20.9546 47.6509L22.8381 46.9782L20.9546 47.6509ZM2.12549 29.3813L3.78959 30.4907C3.82826 30.4327 3.86387 30.3728 3.89627 30.311L2.12549 29.3813ZM147.164 2.16357L147.152 0.163607L147.164 2.16357ZM164.469 2.07373L164.478 4.07371C164.52 4.07352 164.561 4.07206 164.602 4.06934L164.469 2.07373ZM9.72463 14.9072L7.95384 13.9775L9.72463 14.9072ZM334.741 14.3771L334.378 16.3439L334.741 14.3771ZM335.446 14.931L333.636 15.7824L335.446 14.931ZM12.422 30.4806L12.8388 28.5245L12.422 30.4806ZM332.972 30.494L333.624 32.3848L332.972 30.494ZM181.513 2.01221L181.518 4.0122C188.569 3.99475 193.259 3.99736 196.233 4.012L196.242 2.01203L196.252 0.0120493C193.264 -0.00266409 188.562 -0.00524092 181.508 0.0122131L181.513 2.01221ZM205.172 2.12107L205.161 4.12103C207.416 4.13381 209.787 4.14773 212.279 4.16353L212.292 2.16357L212.304 0.163614C209.811 0.147803 207.439 0.133878 205.184 0.121099L205.172 2.12107ZM212.292 2.16357L212.279 4.16353C258.799 4.45856 312.727 12.348 334.378 16.3439L334.741 14.3771L335.104 12.4103C313.333 8.39238 259.151 0.460709 212.304 0.163614L212.292 2.16357ZM335.446 14.931L333.636 15.7824L340.434 30.2327L342.244 29.3813L344.053 28.53L337.256 14.0797L335.446 14.931ZM341.608 30.5005V28.5005H333.484V30.5005V32.5005H341.608V30.5005ZM332.972 30.494L332.32 28.6033C331.818 28.7766 331.433 29.086 331.172 29.3349C330.889 29.6041 330.62 29.9297 330.36 30.2913C329.841 31.0147 329.258 32.0267 328.603 33.3834C327.29 36.1044 325.59 40.4117 323.469 47.0413L325.374 47.6509L327.278 48.2604C329.372 41.7165 331.006 37.606 332.205 35.1224C332.807 33.8767 333.275 33.0896 333.609 32.6243C333.776 32.3916 333.884 32.2755 333.931 32.2315C333.998 32.1671 333.894 32.2918 333.624 32.3848L332.972 30.494ZM325.374 47.6509L323.469 47.0413C319.037 60.8904 309.421 64.7396 305.668 65.0462L305.831 67.0396L305.993 69.0329C311.372 68.5936 322.356 63.6422 327.278 48.2604L325.374 47.6509ZM305.831 67.0396V65.0396H42.7661V67.0396V69.0396H305.831V67.0396ZM42.7661 67.0396L42.9121 65.0449C38.5082 64.7226 27.76 60.7596 22.8381 46.9782L20.9546 47.6509L19.0711 48.3236C24.5889 63.7733 36.8328 68.6107 42.6201 69.0342L42.7661 67.0396ZM20.9546 47.6509L22.8381 46.9782C20.4288 40.2322 18.5053 35.885 17.0253 33.1654C16.2875 31.8097 15.6313 30.8048 15.0463 30.0961C14.7538 29.7417 14.4484 29.4237 14.1274 29.1673C13.8283 28.9284 13.3918 28.6423 12.8388 28.5245L12.422 30.4806L12.0051 32.4367C11.7019 32.372 11.5698 32.2438 11.631 32.2927C11.6703 32.324 11.7809 32.4237 11.9614 32.6423C12.3222 33.0795 12.8395 33.8418 13.5119 35.0774C14.8521 37.5402 16.6954 41.6716 19.0711 48.3236L20.9546 47.6509ZM11.9572 30.5005V28.5005H2.72443V30.5005V32.5005H11.9572V30.5005ZM2.12549 29.3813L3.89627 30.311L11.4954 15.8368L9.72463 14.9072L7.95384 13.9775L0.354702 28.4517L2.12549 29.3813ZM10.4282 14.3888L10.7548 16.3619C34.8852 12.3678 95.1674 4.45904 147.175 4.16354L147.164 2.16357L147.152 0.163607C94.8522 0.460771 34.341 8.40343 10.1016 12.4156L10.4282 14.3888ZM147.164 2.16357L147.175 4.16354C153.654 4.12673 159.397 4.09711 164.478 4.07371L164.469 2.07373L164.46 0.0737517C159.377 0.0971637 153.633 0.126786 147.152 0.163607L147.164 2.16357ZM164.469 2.07373L164.602 4.06934C165.349 4.01977 169.692 3.97957 181.508 4.0122L181.513 2.01221L181.519 0.0122147C169.813 -0.0201087 165.263 0.0166397 164.337 0.0781207L164.469 2.07373ZM342.244 29.3813L340.526 30.4064C340.025 29.5665 340.63 28.5005 341.608 28.5005V30.5005V32.5005C343.735 32.5005 345.051 30.1827 343.961 28.3563L342.244 29.3813ZM9.72463 14.9072L11.4954 15.8368C11.3688 16.078 11.104 16.3041 10.7548 16.3619L10.4282 14.3888L10.1016 12.4156C9.13485 12.5757 8.37142 13.1821 7.95384 13.9775L9.72463 14.9072ZM334.741 14.3771L334.378 16.3439C334.021 16.278 333.756 16.037 333.636 15.7824L335.446 14.931L337.256 14.0797C336.862 13.2428 336.094 12.593 335.104 12.4103L334.741 14.3771ZM12.422 30.4806L12.8388 28.5245C12.427 28.4367 12.0769 28.4783 11.9609 28.4917C11.9272 28.4956 11.8949 28.4998 11.879 28.5018C11.8585 28.5044 11.8529 28.5051 11.8502 28.5054C11.8438 28.5061 11.8885 28.5005 11.9572 28.5005V30.5005V32.5005C12.0323 32.5005 12.0993 32.4973 12.1554 32.4934C12.2112 32.4895 12.2601 32.4845 12.2976 32.4803C12.3339 32.4762 12.3673 32.4719 12.3858 32.4696C12.4089 32.4666 12.4156 32.4658 12.4209 32.4652C12.4245 32.4647 12.4164 32.4657 12.4015 32.4669C12.3863 32.468 12.36 32.4697 12.3255 32.47C12.2568 32.4706 12.1439 32.4662 12.0051 32.4367L12.422 30.4806ZM333.484 30.5005V28.5005C333.555 28.5005 333.601 28.5067 333.582 28.5046C333.571 28.5033 333.564 28.5025 333.533 28.4986C333.508 28.4956 333.468 28.4907 333.422 28.4861C333.267 28.4707 332.824 28.4296 332.32 28.6033L332.972 30.494L333.624 32.3848C333.446 32.4463 333.293 32.4645 333.191 32.4693C333.095 32.4739 333.03 32.4669 333.028 32.4667C333.025 32.4664 333.028 32.4667 333.047 32.4689C333.059 32.4704 333.096 32.475 333.128 32.4788C333.165 32.4829 333.215 32.4883 333.273 32.4925C333.331 32.4968 333.403 32.5005 333.484 32.5005V30.5005ZM2.72443 30.5005V28.5005C3.74689 28.5005 4.35674 29.64 3.78959 30.4907L2.12549 29.3813L0.461388 28.2719C-0.743602 30.0794 0.552107 32.5005 2.72443 32.5005V30.5005ZM196.242 2.01203L196.233 4.012C196.756 4.01458 198.708 4.04013 200.681 4.06608C202.64 4.09183 204.617 4.11795 205.161 4.12103L205.172 2.12107L205.184 0.121099C204.66 0.118129 202.706 0.0923593 200.734 0.0664213C198.776 0.0406711 196.797 0.0147319 196.252 0.0120493L196.242 2.01203Z" fill="#341D1A" mask="url(#path-1-outside-1_58_1213)"/>
<path d="M13.782 34.2281L10.3332 26.3983" stroke="#341D1A" stroke-width="2" stroke-linecap="round"/>
<path d="M332.29 34.1422L336.11 26.4867" stroke="#341D1A" stroke-width="2" stroke-linecap="round"/>
<g filter="url(#filter2_di_58_1213)">
<mask id="path-5-outside-2_58_1213" maskUnits="userSpaceOnUse" x="69.1025" y="16.0251" width="216" height="36" fill="black">
<rect fill="white" x="69.1025" y="16.0251" width="216" height="36"/>
<path d="M72.1049 26.9275V20.8337L94.058 19.2908L93.8822 25.9119L85.4057 26.5955L86.9486 45.1306L79.2143 46.1462L79.644 26.6736L72.1049 26.9275ZM105.575 22.8259C108.596 22.8259 111.174 23.8611 113.31 25.9314C115.445 27.9887 116.513 30.4692 116.513 33.3728C116.513 36.2895 115.445 38.783 113.31 40.8533C111.174 42.9106 108.596 43.9392 105.575 43.9392C102.554 43.9392 99.9762 42.9106 97.8408 40.8533C95.7054 38.783 94.6377 36.2895 94.6377 33.3728C94.6377 30.4692 95.7054 27.9887 97.8408 25.9314C99.9762 23.8611 102.554 22.8259 105.575 22.8259ZM112.606 30.9705C112.476 31.5824 112.17 32.1163 111.688 32.572C111.024 33.197 110.23 33.5095 109.306 33.5095C108.381 33.5095 107.587 33.2035 106.923 32.5916C106.272 31.9666 105.946 31.2179 105.946 30.3455C105.946 29.4731 106.272 28.7309 106.923 28.1189C107.587 27.5069 108.381 27.2009 109.306 27.2009C109.488 27.2009 109.657 27.2139 109.813 27.24C109.097 26.8754 108.303 26.6931 107.431 26.6931C105.985 26.6931 104.748 27.1944 103.72 28.197C102.704 29.1866 102.196 30.3845 102.196 31.7908C102.196 33.197 102.704 34.3949 103.72 35.3845C104.748 36.3741 105.985 36.8689 107.431 36.8689C108.876 36.8689 110.106 36.3741 111.122 35.3845C112.151 34.3949 112.665 33.197 112.665 31.7908C112.665 31.5043 112.646 31.2309 112.606 30.9705ZM115.725 24.4861L115.608 21.8884L123.674 20.4822L123.928 29.7791L131.624 20.1697L137.346 25.1501L128.87 34.8767L141.194 42.9041L140.706 48.6267L125.901 38.49L125.96 48.0212L120.51 48.6658L119.182 24.0955L115.725 24.4861ZM140.25 28.5876L145.992 29.0173L146.52 45.8142L140.504 45.9119L140.25 28.5876ZM142.789 21.2244C143.727 21.1072 144.554 21.2764 145.27 21.7322C145.999 22.1879 146.403 22.7869 146.481 23.5291C146.572 24.2712 146.311 24.9418 145.699 25.5408C145.1 26.1397 144.326 26.4913 143.375 26.5955C142.438 26.6996 141.604 26.5304 140.875 26.0876C140.159 25.6319 139.755 25.033 139.664 24.2908C139.586 23.5486 139.847 22.878 140.446 22.2791C141.057 21.6801 141.839 21.3285 142.789 21.2244ZM158.955 22.8259C161.976 22.8259 164.554 23.8611 166.689 25.9314C168.825 27.9887 169.892 30.4692 169.892 33.3728C169.892 36.2895 168.825 38.783 166.689 40.8533C164.554 42.9106 161.976 43.9392 158.955 43.9392C155.934 43.9392 153.356 42.9106 151.221 40.8533C149.085 38.783 148.017 36.2895 148.017 33.3728C148.017 30.4692 149.085 27.9887 151.221 25.9314C153.356 23.8611 155.934 22.8259 158.955 22.8259ZM165.986 30.9705C165.856 31.5824 165.55 32.1163 165.068 32.572C164.404 33.197 163.61 33.5095 162.685 33.5095C161.761 33.5095 160.967 33.2035 160.303 32.5916C159.652 31.9666 159.326 31.2179 159.326 30.3455C159.326 29.4731 159.652 28.7309 160.303 28.1189C160.967 27.5069 161.761 27.2009 162.685 27.2009C162.868 27.2009 163.037 27.2139 163.193 27.24C162.477 26.8754 161.683 26.6931 160.81 26.6931C159.365 26.6931 158.128 27.1944 157.099 28.197C156.084 29.1866 155.576 30.3845 155.576 31.7908C155.576 33.197 156.084 34.3949 157.099 35.3845C158.128 36.3741 159.365 36.8689 160.81 36.8689C162.256 36.8689 163.486 36.3741 164.502 35.3845C165.53 34.3949 166.045 33.197 166.045 31.7908C166.045 31.5043 166.025 31.2309 165.986 30.9705ZM181.677 43.6267L185.056 39.0759C188.78 41.4587 191.566 41.7192 193.415 39.8572C195.056 38.1124 194.255 36.1528 191.013 33.9783C188.057 32.559 185.694 30.8988 183.923 28.9978C182.074 27.4874 181.931 25.085 183.493 21.7908C185.42 19.408 188.526 18.6788 192.81 19.6033C195.987 20.2413 198.409 21.602 200.075 23.6853L197.497 27.4353C193.422 24.6619 190.57 23.7179 188.942 24.6033C188.226 26.0746 190.427 28.1449 195.544 30.8142C200.804 34.0304 201.267 38.6462 196.931 44.6619C193.754 48.5551 188.669 48.21 181.677 43.6267ZM201.807 19.74L208.155 20.5017L206.885 39.0369L217.862 37.9236L218.37 45.7361L200.792 46.4197L201.807 19.74ZM230.297 22.8259C233.318 22.8259 235.896 23.8611 238.031 25.9314C240.167 27.9887 241.235 30.4692 241.235 33.3728C241.235 36.2895 240.167 38.783 238.031 40.8533C235.896 42.9106 233.318 43.9392 230.297 43.9392C227.276 43.9392 224.698 42.9106 222.563 40.8533C220.427 38.783 219.36 36.2895 219.36 33.3728C219.36 30.4692 220.427 27.9887 222.563 25.9314C224.698 23.8611 227.276 22.8259 230.297 22.8259ZM237.328 30.9705C237.198 31.5824 236.892 32.1163 236.41 32.572C235.746 33.197 234.952 33.5095 234.028 33.5095C233.103 33.5095 232.309 33.2035 231.645 32.5916C230.994 31.9666 230.668 31.2179 230.668 30.3455C230.668 29.4731 230.994 28.7309 231.645 28.1189C232.309 27.5069 233.103 27.2009 234.028 27.2009C234.21 27.2009 234.379 27.2139 234.535 27.24C233.819 26.8754 233.025 26.6931 232.153 26.6931C230.707 26.6931 229.47 27.1944 228.442 28.197C227.426 29.1866 226.918 30.3845 226.918 31.7908C226.918 33.197 227.426 34.3949 228.442 35.3845C229.47 36.3741 230.707 36.8689 232.153 36.8689C233.598 36.8689 234.828 36.3741 235.844 35.3845C236.873 34.3949 237.387 33.197 237.387 31.7908C237.387 31.5043 237.367 31.2309 237.328 30.9705ZM241.267 26.9275V20.8337L263.221 19.2908L263.045 25.9119L254.568 26.5955L256.111 45.1306L248.377 46.1462L248.806 26.6736L241.267 26.9275ZM263.566 43.6267L266.945 39.0759C270.669 41.4587 273.455 41.7192 275.304 39.8572C276.945 38.1124 276.144 36.1528 272.902 33.9783C269.946 32.559 267.583 30.8988 265.812 28.9978C263.963 27.4874 263.82 25.085 265.382 21.7908C267.309 19.408 270.415 18.6788 274.699 19.6033C277.876 20.2413 280.298 21.602 281.964 23.6853L279.386 27.4353C275.311 24.6619 272.459 23.7179 270.831 24.6033C270.115 26.0746 272.316 28.1449 277.433 30.8142C282.693 34.0304 283.156 38.6462 278.82 44.6619C275.643 48.5551 270.558 48.21 263.566 43.6267Z"/>
</mask>
<path d="M72.1049 26.9275V20.8337L94.058 19.2908L93.8822 25.9119L85.4057 26.5955L86.9486 45.1306L79.2143 46.1462L79.644 26.6736L72.1049 26.9275ZM105.575 22.8259C108.596 22.8259 111.174 23.8611 113.31 25.9314C115.445 27.9887 116.513 30.4692 116.513 33.3728C116.513 36.2895 115.445 38.783 113.31 40.8533C111.174 42.9106 108.596 43.9392 105.575 43.9392C102.554 43.9392 99.9762 42.9106 97.8408 40.8533C95.7054 38.783 94.6377 36.2895 94.6377 33.3728C94.6377 30.4692 95.7054 27.9887 97.8408 25.9314C99.9762 23.8611 102.554 22.8259 105.575 22.8259ZM112.606 30.9705C112.476 31.5824 112.17 32.1163 111.688 32.572C111.024 33.197 110.23 33.5095 109.306 33.5095C108.381 33.5095 107.587 33.2035 106.923 32.5916C106.272 31.9666 105.946 31.2179 105.946 30.3455C105.946 29.4731 106.272 28.7309 106.923 28.1189C107.587 27.5069 108.381 27.2009 109.306 27.2009C109.488 27.2009 109.657 27.2139 109.813 27.24C109.097 26.8754 108.303 26.6931 107.431 26.6931C105.985 26.6931 104.748 27.1944 103.72 28.197C102.704 29.1866 102.196 30.3845 102.196 31.7908C102.196 33.197 102.704 34.3949 103.72 35.3845C104.748 36.3741 105.985 36.8689 107.431 36.8689C108.876 36.8689 110.106 36.3741 111.122 35.3845C112.151 34.3949 112.665 33.197 112.665 31.7908C112.665 31.5043 112.646 31.2309 112.606 30.9705ZM115.725 24.4861L115.608 21.8884L123.674 20.4822L123.928 29.7791L131.624 20.1697L137.346 25.1501L128.87 34.8767L141.194 42.9041L140.706 48.6267L125.901 38.49L125.96 48.0212L120.51 48.6658L119.182 24.0955L115.725 24.4861ZM140.25 28.5876L145.992 29.0173L146.52 45.8142L140.504 45.9119L140.25 28.5876ZM142.789 21.2244C143.727 21.1072 144.554 21.2764 145.27 21.7322C145.999 22.1879 146.403 22.7869 146.481 23.5291C146.572 24.2712 146.311 24.9418 145.699 25.5408C145.1 26.1397 144.326 26.4913 143.375 26.5955C142.438 26.6996 141.604 26.5304 140.875 26.0876C140.159 25.6319 139.755 25.033 139.664 24.2908C139.586 23.5486 139.847 22.878 140.446 22.2791C141.057 21.6801 141.839 21.3285 142.789 21.2244ZM158.955 22.8259C161.976 22.8259 164.554 23.8611 166.689 25.9314C168.825 27.9887 169.892 30.4692 169.892 33.3728C169.892 36.2895 168.825 38.783 166.689 40.8533C164.554 42.9106 161.976 43.9392 158.955 43.9392C155.934 43.9392 153.356 42.9106 151.221 40.8533C149.085 38.783 148.017 36.2895 148.017 33.3728C148.017 30.4692 149.085 27.9887 151.221 25.9314C153.356 23.8611 155.934 22.8259 158.955 22.8259ZM165.986 30.9705C165.856 31.5824 165.55 32.1163 165.068 32.572C164.404 33.197 163.61 33.5095 162.685 33.5095C161.761 33.5095 160.967 33.2035 160.303 32.5916C159.652 31.9666 159.326 31.2179 159.326 30.3455C159.326 29.4731 159.652 28.7309 160.303 28.1189C160.967 27.5069 161.761 27.2009 162.685 27.2009C162.868 27.2009 163.037 27.2139 163.193 27.24C162.477 26.8754 161.683 26.6931 160.81 26.6931C159.365 26.6931 158.128 27.1944 157.099 28.197C156.084 29.1866 155.576 30.3845 155.576 31.7908C155.576 33.197 156.084 34.3949 157.099 35.3845C158.128 36.3741 159.365 36.8689 160.81 36.8689C162.256 36.8689 163.486 36.3741 164.502 35.3845C165.53 34.3949 166.045 33.197 166.045 31.7908C166.045 31.5043 166.025 31.2309 165.986 30.9705ZM181.677 43.6267L185.056 39.0759C188.78 41.4587 191.566 41.7192 193.415 39.8572C195.056 38.1124 194.255 36.1528 191.013 33.9783C188.057 32.559 185.694 30.8988 183.923 28.9978C182.074 27.4874 181.931 25.085 183.493 21.7908C185.42 19.408 188.526 18.6788 192.81 19.6033C195.987 20.2413 198.409 21.602 200.075 23.6853L197.497 27.4353C193.422 24.6619 190.57 23.7179 188.942 24.6033C188.226 26.0746 190.427 28.1449 195.544 30.8142C200.804 34.0304 201.267 38.6462 196.931 44.6619C193.754 48.5551 188.669 48.21 181.677 43.6267ZM201.807 19.74L208.155 20.5017L206.885 39.0369L217.862 37.9236L218.37 45.7361L200.792 46.4197L201.807 19.74ZM230.297 22.8259C233.318 22.8259 235.896 23.8611 238.031 25.9314C240.167 27.9887 241.235 30.4692 241.235 33.3728C241.235 36.2895 240.167 38.783 238.031 40.8533C235.896 42.9106 233.318 43.9392 230.297 43.9392C227.276 43.9392 224.698 42.9106 222.563 40.8533C220.427 38.783 219.36 36.2895 219.36 33.3728C219.36 30.4692 220.427 27.9887 222.563 25.9314C224.698 23.8611 227.276 22.8259 230.297 22.8259ZM237.328 30.9705C237.198 31.5824 236.892 32.1163 236.41 32.572C235.746 33.197 234.952 33.5095 234.028 33.5095C233.103 33.5095 232.309 33.2035 231.645 32.5916C230.994 31.9666 230.668 31.2179 230.668 30.3455C230.668 29.4731 230.994 28.7309 231.645 28.1189C232.309 27.5069 233.103 27.2009 234.028 27.2009C234.21 27.2009 234.379 27.2139 234.535 27.24C233.819 26.8754 233.025 26.6931 232.153 26.6931C230.707 26.6931 229.47 27.1944 228.442 28.197C227.426 29.1866 226.918 30.3845 226.918 31.7908C226.918 33.197 227.426 34.3949 228.442 35.3845C229.47 36.3741 230.707 36.8689 232.153 36.8689C233.598 36.8689 234.828 36.3741 235.844 35.3845C236.873 34.3949 237.387 33.197 237.387 31.7908C237.387 31.5043 237.367 31.2309 237.328 30.9705ZM241.267 26.9275V20.8337L263.221 19.2908L263.045 25.9119L254.568 26.5955L256.111 45.1306L248.377 46.1462L248.806 26.6736L241.267 26.9275ZM263.566 43.6267L266.945 39.0759C270.669 41.4587 273.455 41.7192 275.304 39.8572C276.945 38.1124 276.144 36.1528 272.902 33.9783C269.946 32.559 267.583 30.8988 265.812 28.9978C263.963 27.4874 263.82 25.085 265.382 21.7908C267.309 19.408 270.415 18.6788 274.699 19.6033C277.876 20.2413 280.298 21.602 281.964 23.6853L279.386 27.4353C275.311 24.6619 272.459 23.7179 270.831 24.6033C270.115 26.0746 272.316 28.1449 277.433 30.8142C282.693 34.0304 283.156 38.6462 278.82 44.6619C275.643 48.5551 270.558 48.21 263.566 43.6267Z" fill="#A5DFF7"/>
<path d="M72.1049 26.9275H69.1049C69.1049 27.7407 69.435 28.519 70.0196 29.0842C70.6042 29.6495 71.3932 29.9532 72.2059 29.9258L72.1049 26.9275ZM72.1049 20.8337L71.8946 17.8411C70.3232 17.9516 69.1049 19.2585 69.1049 20.8337H72.1049ZM94.058 19.2908L97.057 19.3704C97.0794 18.5246 96.7437 17.7087 96.1326 17.1237C95.5214 16.5386 94.6916 16.2388 93.8477 16.2982L94.058 19.2908ZM93.8822 25.9119L94.1234 28.9022C95.6512 28.7789 96.8405 27.5238 96.8812 25.9915L93.8822 25.9119ZM85.4057 26.5955L85.1645 23.6052C84.3701 23.6692 83.6338 24.0468 83.1182 24.6545C82.6025 25.2622 82.3499 26.0501 82.416 26.8443L85.4057 26.5955ZM86.9486 45.1306L87.3392 48.1051C88.9271 47.8966 90.0712 46.4777 89.9383 44.8817L86.9486 45.1306ZM79.2143 46.1462L76.215 46.0801C76.1957 46.9551 76.5595 47.795 77.2111 48.3795C77.8627 48.9639 78.737 49.2347 79.6049 49.1207L79.2143 46.1462ZM79.644 26.6736L82.6432 26.7398C82.6614 25.9153 82.3394 25.1197 81.7529 24.54C81.1664 23.9603 80.3672 23.6475 79.543 23.6753L79.644 26.6736ZM72.1049 26.9275H75.1049V20.8337H72.1049H69.1049V26.9275H72.1049ZM72.1049 20.8337L72.3152 23.8264L94.2683 22.2834L94.058 19.2908L93.8477 16.2982L71.8946 17.8411L72.1049 20.8337ZM94.058 19.2908L91.0591 19.2112L90.8833 25.8322L93.8822 25.9119L96.8812 25.9915L97.057 19.3704L94.058 19.2908ZM93.8822 25.9119L93.6411 22.9216L85.1645 23.6052L85.4057 26.5955L85.6468 29.5858L94.1234 28.9022L93.8822 25.9119ZM85.4057 26.5955L82.416 26.8443L83.959 45.3795L86.9486 45.1306L89.9383 44.8817L88.3953 26.3466L85.4057 26.5955ZM86.9486 45.1306L86.5581 42.1562L78.8237 43.1718L79.2143 46.1462L79.6049 49.1207L87.3392 48.1051L86.9486 45.1306ZM79.2143 46.1462L82.2135 46.2124L82.6432 26.7398L79.644 26.6736L76.6447 26.6074L76.215 46.0801L79.2143 46.1462ZM79.644 26.6736L79.543 23.6753L72.0039 23.9292L72.1049 26.9275L72.2059 29.9258L79.7449 29.6719L79.644 26.6736ZM113.31 25.9314L111.221 28.0853L111.228 28.0919L113.31 25.9314ZM113.31 40.8533L115.391 43.0138L115.398 43.0072L113.31 40.8533ZM97.8408 40.8533L95.7526 43.0072L95.7594 43.0137L97.8408 40.8533ZM97.8408 25.9314L99.9223 28.0919L99.9291 28.0853L97.8408 25.9314ZM112.606 30.9705L115.573 30.5254C115.358 29.091 114.147 28.0159 112.698 27.9718C111.248 27.9278 109.974 28.9274 109.672 30.3461L112.606 30.9705ZM111.688 32.572L113.745 34.7566L113.75 34.7514L111.688 32.572ZM106.923 32.5916L104.845 34.7557C104.86 34.7698 104.875 34.7838 104.89 34.7976L106.923 32.5916ZM106.923 28.1189L104.89 25.9128C104.883 25.9195 104.875 25.9262 104.868 25.933L106.923 28.1189ZM109.813 27.24L109.32 30.1992C110.781 30.4426 112.2 29.5843 112.663 28.1781C113.126 26.7718 112.494 25.2382 111.175 24.5665L109.813 27.24ZM103.72 28.197L105.813 30.3457L105.814 30.3454L103.72 28.197ZM103.72 35.3845L101.626 37.5332C101.631 37.5377 101.635 37.5421 101.64 37.5465L103.72 35.3845ZM111.122 35.3845L109.042 33.2225C109.038 33.227 109.033 33.2314 109.028 33.2358L111.122 35.3845ZM105.575 22.8259V25.8259C107.83 25.8259 109.655 26.567 111.221 28.0853L113.31 25.9314L115.398 23.7775C112.693 21.1551 109.362 19.8259 105.575 19.8259V22.8259ZM113.31 25.9314L111.228 28.0919C112.791 29.5972 113.513 31.3035 113.513 33.3728H116.513H119.513C119.513 29.6348 118.099 26.3802 115.391 23.7709L113.31 25.9314ZM116.513 33.3728H113.513C113.513 35.4598 112.787 37.1815 111.221 38.6994L113.31 40.8533L115.398 43.0072C118.103 40.3844 119.513 37.1191 119.513 33.3728H116.513ZM113.31 40.8533L111.228 38.6928C109.663 40.2003 107.836 40.9392 105.575 40.9392V43.9392V46.9392C109.356 46.9392 112.685 45.6208 115.391 43.0137L113.31 40.8533ZM105.575 43.9392V40.9392C103.314 40.9392 101.487 40.2003 99.9223 38.6928L97.8408 40.8533L95.7594 43.0137C98.4655 45.6208 101.794 46.9392 105.575 46.9392V43.9392ZM97.8408 40.8533L99.9291 38.6994C98.3635 37.1815 97.6377 35.4598 97.6377 33.3728H94.6377H91.6377C91.6377 37.1191 93.0473 40.3844 95.7526 43.0072L97.8408 40.8533ZM94.6377 33.3728H97.6377C97.6377 31.3035 98.3598 29.5972 99.9223 28.0919L97.8408 25.9314L95.7594 23.7709C93.0511 26.3802 91.6377 29.6348 91.6377 33.3728H94.6377ZM97.8408 25.9314L99.9291 28.0853C101.495 26.567 103.32 25.8259 105.575 25.8259V22.8259V19.8259C101.788 19.8259 98.4574 21.1551 95.7526 23.7775L97.8408 25.9314ZM112.606 30.9705L109.672 30.3461C109.671 30.3514 109.671 30.3513 109.672 30.3475C109.674 30.3436 109.675 30.3401 109.677 30.338C109.678 30.336 109.676 30.339 109.67 30.3471C109.663 30.3554 109.65 30.3708 109.627 30.3926L111.688 32.572L113.75 34.7514C114.646 33.9042 115.276 32.8382 115.541 31.5948L112.606 30.9705ZM111.688 32.572L109.632 30.3874C109.559 30.4566 109.515 30.4762 109.496 30.4834C109.477 30.491 109.423 30.5095 109.306 30.5095V33.5095V36.5095C110.983 36.5095 112.516 35.9133 113.745 34.7566L111.688 32.572ZM109.306 33.5095V30.5095C109.115 30.5095 109.052 30.4737 108.956 30.3855L106.923 32.5916L104.89 34.7976C106.122 35.9334 107.648 36.5095 109.306 36.5095V33.5095ZM106.923 32.5916L109 30.4274C108.964 30.3922 108.947 30.3695 108.941 30.3614C108.935 30.3538 108.937 30.3554 108.942 30.3651C108.946 30.3749 108.948 30.3832 108.949 30.3859C108.949 30.3881 108.946 30.3761 108.946 30.3455H105.946H102.946C102.946 32.0659 103.628 33.5869 104.845 34.7557L106.923 32.5916ZM105.946 30.3455H108.946C108.946 30.3147 108.949 30.304 108.948 30.3085C108.947 30.3136 108.944 30.3254 108.938 30.3395C108.932 30.3535 108.927 30.3598 108.929 30.3571C108.931 30.3537 108.945 30.3356 108.978 30.3048L106.923 28.1189L104.868 25.933C103.63 27.0965 102.946 28.6228 102.946 30.3455H105.946ZM106.923 28.1189L108.956 30.325C109.052 30.2367 109.115 30.2009 109.306 30.2009V27.2009V24.2009C107.648 24.2009 106.122 24.7771 104.89 25.9128L106.923 28.1189ZM109.306 27.2009V30.2009C109.326 30.2009 109.337 30.2016 109.339 30.2019C109.342 30.2021 109.335 30.2017 109.32 30.1992L109.813 27.24L110.307 24.2808C109.965 24.2239 109.629 24.2009 109.306 24.2009V27.2009ZM109.813 27.24L111.175 24.5665C110.001 23.9693 108.735 23.6931 107.431 23.6931V26.6931V29.6931C107.871 29.6931 108.193 29.7815 108.452 29.9135L109.813 27.24ZM107.431 26.6931V23.6931C105.208 23.6931 103.219 24.4963 101.626 26.0487L103.72 28.197L105.814 30.3454C106.278 29.8926 106.762 29.6931 107.431 29.6931V26.6931ZM103.72 28.197L101.626 26.0483C100.036 27.5973 99.1963 29.5677 99.1963 31.7908H102.196H105.196C105.196 31.2013 105.372 30.7759 105.813 30.3457L103.72 28.197ZM102.196 31.7908H99.1963C99.1963 34.0138 100.036 35.9843 101.626 37.5332L103.72 35.3845L105.813 33.2358C105.372 32.8056 105.196 32.3802 105.196 31.7908H102.196ZM103.72 35.3845L101.64 37.5465C103.235 39.0813 105.221 39.8689 107.431 39.8689V36.8689V33.8689C106.75 33.8689 106.262 33.667 105.8 33.2225L103.72 35.3845ZM107.431 36.8689V39.8689C109.641 39.8689 111.628 39.0803 113.216 37.5332L111.122 35.3845L109.028 33.2358C108.585 33.6679 108.111 33.8689 107.431 33.8689V36.8689ZM111.122 35.3845L113.202 37.5465C114.809 36.0009 115.665 34.0265 115.665 31.7908H112.665H109.665C109.665 32.3675 109.493 32.7889 109.042 33.2225L111.122 35.3845ZM112.665 31.7908H115.665C115.665 31.3682 115.636 30.9453 115.573 30.5254L112.606 30.9705L109.64 31.4155C109.655 31.5164 109.665 31.6404 109.665 31.7908H112.665ZM115.725 24.4861L112.728 24.6213C112.766 25.4512 113.146 26.2284 113.777 26.7678C114.409 27.3072 115.237 27.5604 116.062 27.4671L115.725 24.4861ZM115.608 21.8884L115.093 18.933C113.606 19.1922 112.543 20.5158 112.611 22.0236L115.608 21.8884ZM123.674 20.4822L126.673 20.4003C126.65 19.5291 126.248 18.7114 125.573 18.1598C124.899 17.6081 124.018 17.3771 123.159 17.5268L123.674 20.4822ZM123.928 29.7791L120.929 29.861C120.964 31.1193 121.78 32.2223 122.973 32.623C124.167 33.0237 125.483 32.6368 126.27 31.6543L123.928 29.7791ZM131.624 20.1697L133.593 17.9067C132.977 17.3704 132.169 17.1086 131.355 17.1817C130.541 17.2549 129.793 17.6568 129.282 18.2944L131.624 20.1697ZM137.346 25.1501L139.608 27.1212C140.131 26.5211 140.394 25.7377 140.339 24.9436C140.284 24.1495 139.916 23.4097 139.316 22.8872L137.346 25.1501ZM128.87 34.8767L126.608 32.9057C126.038 33.5604 125.779 34.4302 125.898 35.2903C126.018 36.1505 126.505 36.9165 127.232 37.3905L128.87 34.8767ZM141.194 42.9041L144.183 43.1591C144.277 42.0576 143.758 40.9936 142.831 40.3903L141.194 42.9041ZM140.706 48.6267L139.011 51.1021C139.891 51.7051 141.026 51.7947 141.991 51.3376C142.955 50.8804 143.604 49.9452 143.695 48.8818L140.706 48.6267ZM125.901 38.49L127.596 36.0146C126.675 35.3839 125.48 35.3169 124.494 35.8406C123.508 36.3643 122.894 37.3921 122.901 38.5084L125.901 38.49ZM125.96 48.0212L126.312 51.0005C127.829 50.821 128.969 49.5304 128.96 48.0028L125.96 48.0212ZM120.51 48.6658L117.515 48.8277C117.559 49.6553 117.945 50.4276 118.579 50.9612C119.213 51.4949 120.04 51.7424 120.863 51.645L120.51 48.6658ZM119.182 24.0955L122.178 23.9335C122.133 23.1086 121.75 22.3386 121.12 21.8051C120.489 21.2715 119.666 21.0217 118.845 21.1144L119.182 24.0955ZM115.725 24.4861L118.722 24.3509L118.605 21.7532L115.608 21.8884L112.611 22.0236L112.728 24.6213L115.725 24.4861ZM115.608 21.8884L116.123 24.8439L124.19 23.4376L123.674 20.4822L123.159 17.5268L115.093 18.933L115.608 21.8884ZM123.674 20.4822L120.676 20.5641L120.929 29.861L123.928 29.7791L126.927 29.6972L126.673 20.4003L123.674 20.4822ZM123.928 29.7791L126.27 31.6543L133.965 22.0449L131.624 20.1697L129.282 18.2944L121.587 27.9038L123.928 29.7791ZM131.624 20.1697L129.654 22.4327L135.377 27.4131L137.346 25.1501L139.316 22.8872L133.593 17.9067L131.624 20.1697ZM137.346 25.1501L135.085 23.1791L126.608 32.9057L128.87 34.8767L131.131 36.8477L139.608 27.1212L137.346 25.1501ZM128.87 34.8767L127.232 37.3905L139.557 45.4178L141.194 42.9041L142.831 40.3903L130.507 32.3629L128.87 34.8767ZM141.194 42.9041L138.205 42.649L137.717 48.3717L140.706 48.6267L143.695 48.8818L144.183 43.1591L141.194 42.9041ZM140.706 48.6267L142.401 46.1513L127.596 36.0146L125.901 38.49L124.206 40.9654L139.011 51.1021L140.706 48.6267ZM125.901 38.49L122.901 38.5084L122.96 48.0397L125.96 48.0212L128.96 48.0028L128.901 38.4715L125.901 38.49ZM125.96 48.0212L125.607 45.042L120.158 45.6865L120.51 48.6658L120.863 51.645L126.312 51.0005L125.96 48.0212ZM120.51 48.6658L123.506 48.5038L122.178 23.9335L119.182 24.0955L116.187 24.2574L117.515 48.8277L120.51 48.6658ZM119.182 24.0955L118.845 21.1144L115.388 21.5051L115.725 24.4861L116.062 27.4671L119.519 27.0765L119.182 24.0955ZM140.25 28.5876L140.474 25.596C139.634 25.5332 138.807 25.8262 138.194 26.4036C137.58 26.981 137.238 27.7895 137.251 28.6316L140.25 28.5876ZM145.992 29.0173L148.991 28.9232C148.943 27.39 147.746 26.1402 146.216 26.0257L145.992 29.0173ZM146.52 45.8142L146.568 48.8138C147.372 48.8008 148.136 48.466 148.691 47.8844C149.245 47.3029 149.543 46.5232 149.518 45.7201L146.52 45.8142ZM140.504 45.9119L137.504 45.9558C137.516 46.7522 137.844 47.5113 138.416 48.0657C138.988 48.6201 139.756 48.9244 140.553 48.9115L140.504 45.9119ZM142.789 21.2244L143.116 24.2065C143.131 24.2049 143.146 24.2031 143.161 24.2012L142.789 21.2244ZM145.27 21.7322L143.659 24.2632C143.666 24.2675 143.673 24.2719 143.68 24.2762L145.27 21.7322ZM146.481 23.5291L143.497 23.8431C143.499 23.8603 143.501 23.8775 143.503 23.8947L146.481 23.5291ZM145.699 25.5408L143.601 23.3968C143.593 23.4043 143.586 23.4118 143.578 23.4195L145.699 25.5408ZM143.375 26.5955L143.048 23.6133L143.044 23.6138L143.375 26.5955ZM140.875 26.0876L139.265 28.6186C139.282 28.6299 139.3 28.6411 139.318 28.652L140.875 26.0876ZM139.664 24.2908L136.681 24.6048C136.683 24.622 136.685 24.6393 136.687 24.6564L139.664 24.2908ZM140.446 22.2791L138.347 20.135C138.339 20.1426 138.332 20.1501 138.324 20.1577L140.446 22.2791ZM140.25 28.5876L140.026 31.5793L145.769 32.009L145.992 29.0173L146.216 26.0257L140.474 25.596L140.25 28.5876ZM145.992 29.0173L142.994 29.1115L143.521 45.9083L146.52 45.8142L149.518 45.7201L148.991 28.9232L145.992 29.0173ZM146.52 45.8142L146.471 42.8146L140.455 42.9123L140.504 45.9119L140.553 48.9115L146.568 48.8138L146.52 45.8142ZM140.504 45.9119L143.504 45.8679L143.25 28.5437L140.25 28.5876L137.251 28.6316L137.504 45.9558L140.504 45.9119ZM142.789 21.2244L143.161 24.2012C143.49 24.1602 143.599 24.225 143.659 24.2632L145.27 21.7322L146.88 19.2012C145.508 18.3279 143.964 18.0542 142.417 18.2475L142.789 21.2244ZM145.27 21.7322L143.68 24.2762C143.754 24.3229 143.705 24.3092 143.632 24.1998C143.596 24.1463 143.563 24.0829 143.538 24.0135C143.513 23.9445 143.502 23.8852 143.497 23.8431L146.481 23.5291L149.464 23.215C149.274 21.4076 148.237 20.0491 146.86 19.1882L145.27 21.7322ZM146.481 23.5291L143.503 23.8947C143.498 23.8526 143.495 23.7907 143.504 23.7154C143.514 23.6395 143.532 23.5668 143.557 23.5026C143.608 23.371 143.659 23.3401 143.601 23.3968L145.699 25.5408L147.798 27.6848C148.968 26.5398 149.681 24.9765 149.458 23.1634L146.481 23.5291ZM145.699 25.5408L143.578 23.4195C143.524 23.4738 143.413 23.5734 143.048 23.6133L143.375 26.5955L143.702 29.5776C145.239 29.4092 146.677 28.8057 147.821 27.6621L145.699 25.5408ZM143.375 26.5955L143.044 23.6138C142.691 23.653 142.535 23.5857 142.432 23.5233L140.875 26.0876L139.318 28.652C140.674 29.475 142.184 29.7462 143.706 29.5771L143.375 26.5955ZM140.875 26.0876L142.486 23.5567C142.416 23.5119 142.458 23.5229 142.523 23.6201C142.555 23.6671 142.584 23.7224 142.606 23.7822C142.628 23.8415 142.638 23.8915 142.642 23.9251L139.664 24.2908L136.687 24.6564C136.903 26.4154 137.907 27.7548 139.265 28.6186L140.875 26.0876ZM139.664 24.2908L142.648 23.9767C142.652 24.0123 142.653 24.0657 142.644 24.1315C142.636 24.1977 142.619 24.2612 142.598 24.3172C142.553 24.4329 142.51 24.457 142.567 24.4004L140.446 22.2791L138.324 20.1577C137.183 21.2993 136.494 22.8336 136.681 24.6048L139.664 24.2908ZM140.446 22.2791L142.544 24.4231C142.62 24.3488 142.751 24.2465 143.116 24.2065L142.789 21.2244L142.462 18.2422C140.927 18.4105 139.495 19.0114 138.347 20.135L140.446 22.2791ZM166.689 25.9314L164.601 28.0853L164.608 28.0919L166.689 25.9314ZM166.689 40.8533L168.771 43.0138L168.777 43.0072L166.689 40.8533ZM151.221 40.8533L149.132 43.0072L149.139 43.0137L151.221 40.8533ZM151.221 25.9314L153.302 28.0919L153.309 28.0853L151.221 25.9314ZM165.986 30.9705L168.953 30.5254C168.738 29.091 167.527 28.0159 166.077 27.9718C164.627 27.9278 163.354 28.9274 163.052 30.3461L165.986 30.9705ZM165.068 32.572L167.124 34.7566L167.13 34.7514L165.068 32.572ZM160.303 32.5916L158.225 34.7557C158.24 34.7698 158.255 34.7838 158.27 34.7976L160.303 32.5916ZM160.303 28.1189L158.27 25.9128C158.262 25.9195 158.255 25.9262 158.248 25.933L160.303 28.1189ZM163.193 27.24L162.7 30.1992C164.16 30.4426 165.58 29.5843 166.043 28.1781C166.506 26.7718 165.874 25.2382 164.554 24.5665L163.193 27.24ZM157.099 28.197L159.193 30.3457L159.193 30.3454L157.099 28.197ZM157.099 35.3845L155.006 37.5332C155.01 37.5377 155.015 37.5421 155.02 37.5465L157.099 35.3845ZM164.502 35.3845L162.422 33.2225C162.417 33.227 162.413 33.2314 162.408 33.2358L164.502 35.3845ZM158.955 22.8259V25.8259C161.21 25.8259 163.035 26.567 164.601 28.0853L166.689 25.9314L168.777 23.7775C166.073 21.1551 162.742 19.8259 158.955 19.8259V22.8259ZM166.689 25.9314L164.608 28.0919C166.17 29.5972 166.892 31.3035 166.892 33.3728H169.892H172.892C172.892 29.6348 171.479 26.3802 168.771 23.7709L166.689 25.9314ZM169.892 33.3728H166.892C166.892 35.4598 166.167 37.1815 164.601 38.6994L166.689 40.8533L168.777 43.0072C171.483 40.3844 172.892 37.1191 172.892 33.3728H169.892ZM166.689 40.8533L164.608 38.6928C163.043 40.2003 161.216 40.9392 158.955 40.9392V43.9392V46.9392C162.736 46.9392 166.065 45.6208 168.771 43.0137L166.689 40.8533ZM158.955 43.9392V40.9392C156.694 40.9392 154.867 40.2003 153.302 38.6928L151.221 40.8533L149.139 43.0137C151.845 45.6208 155.174 46.9392 158.955 46.9392V43.9392ZM151.221 40.8533L153.309 38.6994C151.743 37.1815 151.017 35.4598 151.017 33.3728H148.017H145.017C145.017 37.1191 146.427 40.3844 149.132 43.0072L151.221 40.8533ZM148.017 33.3728H151.017C151.017 31.3035 151.739 29.5972 153.302 28.0919L151.221 25.9314L149.139 23.7709C146.431 26.3802 145.017 29.6348 145.017 33.3728H148.017ZM151.221 25.9314L153.309 28.0853C154.875 26.567 156.7 25.8259 158.955 25.8259V22.8259V19.8259C155.168 19.8259 151.837 21.1551 149.132 23.7775L151.221 25.9314ZM165.986 30.9705L163.052 30.3461C163.051 30.3514 163.05 30.3513 163.052 30.3475C163.053 30.3436 163.055 30.3401 163.056 30.338C163.057 30.336 163.056 30.339 163.049 30.3471C163.043 30.3554 163.03 30.3708 163.007 30.3926L165.068 32.572L167.13 34.7514C168.025 33.9042 168.656 32.8382 168.92 31.5948L165.986 30.9705ZM165.068 32.572L163.012 30.3874C162.939 30.4566 162.895 30.4762 162.876 30.4834C162.857 30.491 162.803 30.5095 162.685 30.5095V33.5095V36.5095C164.362 36.5095 165.895 35.9133 167.124 34.7566L165.068 32.572ZM162.685 33.5095V30.5095C162.494 30.5095 162.431 30.4737 162.336 30.3855L160.303 32.5916L158.27 34.7976C159.502 35.9334 161.027 36.5095 162.685 36.5095V33.5095ZM160.303 32.5916L162.38 30.4274C162.343 30.3922 162.326 30.3695 162.32 30.3614C162.315 30.3538 162.317 30.3554 162.321 30.3651C162.326 30.3749 162.328 30.3832 162.328 30.3859C162.329 30.3881 162.326 30.3761 162.326 30.3455H159.326H156.326C156.326 32.0659 157.007 33.5869 158.225 34.7557L160.303 32.5916ZM159.326 30.3455H162.326C162.326 30.3147 162.329 30.304 162.328 30.3085C162.327 30.3136 162.324 30.3254 162.317 30.3395C162.311 30.3535 162.307 30.3598 162.309 30.3571C162.311 30.3537 162.324 30.3356 162.357 30.3048L160.303 28.1189L158.248 25.933C157.01 27.0965 156.326 28.6228 156.326 30.3455H159.326ZM160.303 28.1189L162.336 30.325C162.431 30.2367 162.494 30.2009 162.685 30.2009V27.2009V24.2009C161.027 24.2009 159.502 24.7771 158.27 25.9128L160.303 28.1189ZM162.685 27.2009V30.2009C162.705 30.2009 162.716 30.2016 162.719 30.2019C162.722 30.2021 162.715 30.2017 162.7 30.1992L163.193 27.24L163.686 24.2808C163.345 24.2239 163.009 24.2009 162.685 24.2009V27.2009ZM163.193 27.24L164.554 24.5665C163.381 23.9693 162.115 23.6931 160.81 23.6931V26.6931V29.6931C161.251 29.6931 161.573 29.7815 161.832 29.9135L163.193 27.24ZM160.81 26.6931V23.6931C158.588 23.6931 156.598 24.4963 155.005 26.0487L157.099 28.197L159.193 30.3454C159.658 29.8926 160.142 29.6931 160.81 29.6931V26.6931ZM157.099 28.197L155.006 26.0483C153.416 27.5973 152.576 29.5677 152.576 31.7908H155.576H158.576C158.576 31.2013 158.751 30.7759 159.193 30.3457L157.099 28.197ZM155.576 31.7908H152.576C152.576 34.0138 153.416 35.9843 155.006 37.5332L157.099 35.3845L159.193 33.2358C158.751 32.8056 158.576 32.3802 158.576 31.7908H155.576ZM157.099 35.3845L155.02 37.5465C156.615 39.0813 158.6 39.8689 160.81 39.8689V36.8689V33.8689C160.13 33.8689 159.641 33.667 159.179 33.2225L157.099 35.3845ZM160.81 36.8689V39.8689C163.021 39.8689 165.008 39.0803 166.595 37.5332L164.502 35.3845L162.408 33.2358C161.965 33.6679 161.49 33.8689 160.81 33.8689V36.8689ZM164.502 35.3845L166.582 37.5465C168.188 36.0009 169.045 34.0265 169.045 31.7908H166.045H163.045C163.045 32.3675 162.873 32.7889 162.422 33.2225L164.502 35.3845ZM166.045 31.7908H169.045C169.045 31.3682 169.016 30.9453 168.953 30.5254L165.986 30.9705L163.019 31.4155C163.034 31.5164 163.045 31.6404 163.045 31.7908H166.045ZM181.677 43.6267L179.268 41.8383C178.776 42.5016 178.578 43.3385 178.723 44.1518C178.868 44.9651 179.341 45.6829 180.032 46.1357L181.677 43.6267ZM185.056 39.0759L186.673 36.549C185.345 35.6995 183.587 36.0221 182.647 37.2875L185.056 39.0759ZM193.415 39.8572L195.544 41.971C195.563 41.9517 195.582 41.9321 195.601 41.9123L193.415 39.8572ZM191.013 33.9783L192.684 31.4867C192.565 31.407 192.44 31.3359 192.311 31.2739L191.013 33.9783ZM183.923 28.9978L186.118 26.953C186.025 26.8535 185.926 26.7605 185.821 26.6745L183.923 28.9978ZM183.493 21.7908L181.161 19.9043C181.011 20.0889 180.884 20.2906 180.783 20.5051L183.493 21.7908ZM192.81 19.6033L192.177 22.5358C192.191 22.5388 192.205 22.5417 192.219 22.5445L192.81 19.6033ZM200.075 23.6853L202.547 25.3849C203.296 24.2953 203.244 22.8437 202.418 21.8112L200.075 23.6853ZM197.497 27.4353L195.809 29.9155C197.174 30.8445 199.034 30.4956 199.969 29.1349L197.497 27.4353ZM188.942 24.6033L187.509 21.968C186.96 22.2665 186.518 22.7287 186.245 23.2904L188.942 24.6033ZM195.544 30.8142L197.109 28.2547C197.051 28.2192 196.992 28.1858 196.931 28.1543L195.544 30.8142ZM196.931 44.6619L199.255 46.5586C199.293 46.5122 199.329 46.4646 199.364 46.416L196.931 44.6619ZM181.677 43.6267L184.085 45.4151L187.464 40.8643L185.056 39.0759L182.647 37.2875L179.268 41.8383L181.677 43.6267ZM185.056 39.0759L183.439 41.6029C185.494 42.9178 187.592 43.8521 189.659 44.0453C191.877 44.2526 193.941 43.5852 195.544 41.971L193.415 39.8572L191.286 37.7433C191.04 37.9911 190.786 38.1245 190.218 38.0714C189.499 38.0042 188.342 37.6169 186.673 36.549L185.056 39.0759ZM193.415 39.8572L195.601 41.9123C196.283 41.1868 196.863 40.276 197.113 39.1716C197.37 38.0401 197.227 36.9357 196.822 35.944C196.074 34.1148 194.441 32.6651 192.684 31.4867L191.013 33.9783L189.342 36.4698C190.036 36.9357 190.52 37.3378 190.842 37.6664C191.169 38.001 191.257 38.1877 191.268 38.2137C191.27 38.2191 191.253 38.1795 191.246 38.1019C191.238 38.0213 191.242 37.9314 191.262 37.845C191.302 37.6667 191.368 37.6552 191.229 37.8021L193.415 39.8572ZM191.013 33.9783L192.311 31.2739C189.608 29.9759 187.577 28.5188 186.118 26.953L183.923 28.9978L181.728 31.0426C183.811 33.2789 186.506 35.1421 189.714 36.6827L191.013 33.9783ZM183.923 28.9978L185.821 26.6745C185.551 26.4544 185.446 26.2568 185.423 25.8847C185.393 25.3819 185.537 24.483 186.204 23.0764L183.493 21.7908L180.783 20.5051C179.887 22.3928 179.321 24.3422 179.434 26.2418C179.555 28.2721 180.445 30.0308 182.025 31.3211L183.923 28.9978ZM183.493 21.7908L185.826 23.6773C186.749 22.5352 188.459 21.7334 192.177 22.5358L192.81 19.6033L193.442 16.6708C188.593 15.6242 184.091 16.2807 181.161 19.9043L183.493 21.7908ZM192.81 19.6033L192.219 22.5445C194.859 23.0747 196.596 24.138 197.733 25.5594L200.075 23.6853L202.418 21.8112C200.222 19.0659 197.114 17.4079 193.4 16.662L192.81 19.6033ZM200.075 23.6853L197.603 21.9857L195.025 25.7357L197.497 27.4353L199.969 29.1349L202.547 25.3849L200.075 23.6853ZM197.497 27.4353L199.185 24.9551C197.044 23.4983 195.049 22.3965 193.245 21.7992C191.504 21.223 189.396 20.9412 187.509 21.968L188.942 24.6033L190.376 27.2386C190.116 27.3799 190.248 27.1274 191.359 27.4952C192.406 27.8419 193.875 28.5989 195.809 29.9155L197.497 27.4353ZM188.942 24.6033L186.245 23.2904C185.622 24.5708 185.73 25.8921 186.185 26.9787C186.6 27.9679 187.3 28.7862 188 29.4445C189.407 30.7684 191.533 32.1055 194.156 33.4741L195.544 30.8142L196.931 28.1543C194.438 26.8536 192.905 25.821 192.111 25.0745C191.711 24.6977 191.675 24.5557 191.719 24.6595C191.803 24.8607 191.905 25.3715 191.64 25.9162L188.942 24.6033ZM195.544 30.8142L193.979 33.3737C196.094 34.6667 196.742 35.9028 196.851 36.9872C196.976 38.2389 196.479 40.1577 194.497 42.9077L196.931 44.6619L199.364 46.416C201.718 43.1504 203.158 39.7535 202.821 36.3893C202.467 32.8578 200.254 30.1778 197.109 28.2547L195.544 30.8142ZM196.931 44.6619L194.606 42.7651C193.643 43.9455 192.526 44.4377 190.938 44.3299C189.139 44.2078 186.632 43.2881 183.321 41.1177L181.677 43.6267L180.032 46.1357C183.713 48.5487 187.245 50.0931 190.531 50.3161C194.028 50.5534 197.041 49.2714 199.255 46.5586L196.931 44.6619ZM201.807 19.74L202.165 16.7614C201.333 16.6615 200.497 16.9142 199.859 17.4584C199.222 18.0025 198.841 18.7884 198.809 19.6259L201.807 19.74ZM208.155 20.5017L211.148 20.7067C211.257 19.1131 210.098 17.7134 208.512 17.5231L208.155 20.5017ZM206.885 39.0369L203.892 38.8319C203.832 39.7139 204.164 40.5777 204.799 41.1926C205.434 41.8074 206.308 42.1108 207.188 42.0216L206.885 39.0369ZM217.862 37.9236L220.856 37.729C220.803 36.9162 220.422 36.1599 219.8 35.6337C219.178 35.1075 218.37 34.8567 217.559 34.9389L217.862 37.9236ZM218.37 45.7361L218.486 48.7338C219.295 48.7024 220.056 48.3456 220.598 47.7445C221.14 47.1434 221.416 46.349 221.363 45.5415L218.37 45.7361ZM200.792 46.4197L197.794 46.3056C197.762 47.1407 198.08 47.9512 198.671 48.5419C199.262 49.1326 200.073 49.4499 200.908 49.4174L200.792 46.4197ZM201.807 19.74L201.45 22.7186L207.797 23.4803L208.155 20.5017L208.512 17.5231L202.165 16.7614L201.807 19.74ZM208.155 20.5017L205.162 20.2967L203.892 38.8319L206.885 39.0369L209.878 39.2419L211.148 20.7067L208.155 20.5017ZM206.885 39.0369L207.188 42.0216L218.165 40.9083L217.862 37.9236L217.559 34.9389L206.583 36.0522L206.885 39.0369ZM217.862 37.9236L214.868 38.1182L215.376 45.9307L218.37 45.7361L221.363 45.5415L220.856 37.729L217.862 37.9236ZM218.37 45.7361L218.253 42.7383L200.675 43.4219L200.792 46.4197L200.908 49.4174L218.486 48.7338L218.37 45.7361ZM200.792 46.4197L203.789 46.5338L204.805 19.8541L201.807 19.74L198.809 19.6259L197.794 46.3056L200.792 46.4197ZM238.031 25.9314L235.943 28.0853L235.95 28.0919L238.031 25.9314ZM238.031 40.8533L240.113 43.0138L240.12 43.0072L238.031 40.8533ZM222.563 40.8533L220.474 43.0072L220.481 43.0137L222.563 40.8533ZM222.563 25.9314L224.644 28.0919L224.651 28.0853L222.563 25.9314ZM237.328 30.9705L240.295 30.5254C240.08 29.091 238.869 28.0159 237.419 27.9718C235.97 27.9278 234.696 28.9274 234.394 30.3461L237.328 30.9705ZM236.41 32.572L238.466 34.7566L238.472 34.7514L236.41 32.572ZM231.645 32.5916L229.567 34.7557C229.582 34.7698 229.597 34.7838 229.612 34.7976L231.645 32.5916ZM231.645 28.1189L229.612 25.9128C229.604 25.9195 229.597 25.9262 229.59 25.933L231.645 28.1189ZM234.535 27.24L234.042 30.1992C235.502 30.4426 236.922 29.5843 237.385 28.1781C237.848 26.7718 237.216 25.2382 235.896 24.5665L234.535 27.24ZM228.442 28.197L230.535 30.3457L230.536 30.3454L228.442 28.197ZM228.442 35.3845L226.348 37.5332C226.353 37.5377 226.357 37.5421 226.362 37.5465L228.442 35.3845ZM235.844 35.3845L233.764 33.2225C233.759 33.227 233.755 33.2314 233.75 33.2358L235.844 35.3845ZM230.297 22.8259V25.8259C232.552 25.8259 234.377 26.567 235.943 28.0853L238.031 25.9314L240.12 23.7775C237.415 21.1551 234.084 19.8259 230.297 19.8259V22.8259ZM238.031 25.9314L235.95 28.0919C237.513 29.5972 238.235 31.3035 238.235 33.3728H241.235H244.235C244.235 29.6348 242.821 26.3802 240.113 23.7709L238.031 25.9314ZM241.235 33.3728H238.235C238.235 35.4598 237.509 37.1815 235.943 38.6994L238.031 40.8533L240.12 43.0072C242.825 40.3844 244.235 37.1191 244.235 33.3728H241.235ZM238.031 40.8533L235.95 38.6928C234.385 40.2003 232.558 40.9392 230.297 40.9392V43.9392V46.9392C234.078 46.9392 237.407 45.6208 240.113 43.0137L238.031 40.8533ZM230.297 43.9392V40.9392C228.036 40.9392 226.209 40.2003 224.644 38.6928L222.563 40.8533L220.481 43.0137C223.187 45.6208 226.516 46.9392 230.297 46.9392V43.9392ZM222.563 40.8533L224.651 38.6994C223.085 37.1815 222.36 35.4598 222.36 33.3728H219.36H216.36C216.36 37.1191 217.769 40.3844 220.474 43.0072L222.563 40.8533ZM219.36 33.3728H222.36C222.36 31.3035 223.082 29.5972 224.644 28.0919L222.563 25.9314L220.481 23.7709C217.773 26.3802 216.36 29.6348 216.36 33.3728H219.36ZM222.563 25.9314L224.651 28.0853C226.217 26.567 228.042 25.8259 230.297 25.8259V22.8259V19.8259C226.51 19.8259 223.179 21.1551 220.474 23.7775L222.563 25.9314ZM237.328 30.9705L234.394 30.3461C234.393 30.3514 234.393 30.3513 234.394 30.3475C234.395 30.3436 234.397 30.3401 234.398 30.338C234.4 30.336 234.398 30.339 234.392 30.3471C234.385 30.3554 234.372 30.3708 234.349 30.3926L236.41 32.572L238.472 34.7514C239.368 33.9042 239.998 32.8382 240.263 31.5948L237.328 30.9705ZM236.41 32.572L234.354 30.3874C234.281 30.4566 234.237 30.4762 234.218 30.4834C234.199 30.491 234.145 30.5095 234.028 30.5095V33.5095V36.5095C235.705 36.5095 237.237 35.9133 238.466 34.7566L236.41 32.572ZM234.028 33.5095V30.5095C233.837 30.5095 233.773 30.4737 233.678 30.3855L231.645 32.5916L229.612 34.7976C230.844 35.9334 232.37 36.5095 234.028 36.5095V33.5095ZM231.645 32.5916L233.722 30.4274C233.686 30.3922 233.668 30.3695 233.663 30.3614C233.657 30.3538 233.659 30.3554 233.664 30.3651C233.668 30.3749 233.67 30.3832 233.67 30.3859C233.671 30.3881 233.668 30.3761 233.668 30.3455H230.668H227.668C227.668 32.0659 228.35 33.5869 229.567 34.7557L231.645 32.5916ZM230.668 30.3455H233.668C233.668 30.3147 233.671 30.304 233.67 30.3085C233.669 30.3136 233.666 30.3254 233.66 30.3395C233.654 30.3535 233.649 30.3598 233.651 30.3571C233.653 30.3537 233.667 30.3356 233.699 30.3048L231.645 28.1189L229.59 25.933C228.352 27.0965 227.668 28.6228 227.668 30.3455H230.668ZM231.645 28.1189L233.678 30.325C233.773 30.2367 233.837 30.2009 234.028 30.2009V27.2009V24.2009C232.37 24.2009 230.844 24.7771 229.612 25.9128L231.645 28.1189ZM234.028 27.2009V30.2009C234.047 30.2009 234.058 30.2016 234.061 30.2019C234.064 30.2021 234.057 30.2017 234.042 30.1992L234.535 27.24L235.029 24.2808C234.687 24.2239 234.351 24.2009 234.028 24.2009V27.2009ZM234.535 27.24L235.896 24.5665C234.723 23.9693 233.457 23.6931 232.153 23.6931V26.6931V29.6931C232.593 29.6931 232.915 29.7815 233.174 29.9135L234.535 27.24ZM232.153 26.6931V23.6931C229.93 23.6931 227.94 24.4963 226.348 26.0487L228.442 28.197L230.536 30.3454C231 29.8926 231.484 29.6931 232.153 29.6931V26.6931ZM228.442 28.197L226.348 26.0483C224.758 27.5973 223.918 29.5677 223.918 31.7908H226.918H229.918C229.918 31.2013 230.094 30.7759 230.535 30.3457L228.442 28.197ZM226.918 31.7908H223.918C223.918 34.0138 224.758 35.9843 226.348 37.5332L228.442 35.3845L230.535 33.2358C230.094 32.8056 229.918 32.3802 229.918 31.7908H226.918ZM228.442 35.3845L226.362 37.5465C227.957 39.0813 229.943 39.8689 232.153 39.8689V36.8689V33.8689C231.472 33.8689 230.983 33.667 230.521 33.2225L228.442 35.3845ZM232.153 36.8689V39.8689C234.363 39.8689 236.35 39.0803 237.938 37.5332L235.844 35.3845L233.75 33.2358C233.307 33.6679 232.833 33.8689 232.153 33.8689V36.8689ZM235.844 35.3845L237.924 37.5465C239.53 36.0009 240.387 34.0265 240.387 31.7908H237.387H234.387C234.387 32.3675 234.215 32.7889 233.764 33.2225L235.844 35.3845ZM237.387 31.7908H240.387C240.387 31.3682 240.358 30.9453 240.295 30.5254L237.328 30.9705L234.362 31.4155C234.377 31.5164 234.387 31.6404 234.387 31.7908H237.387ZM241.267 26.9275H238.267C238.267 27.7407 238.597 28.519 239.182 29.0842C239.767 29.6495 240.556 29.9532 241.368 29.9258L241.267 26.9275ZM241.267 20.8337L241.057 17.8411C239.486 17.9516 238.267 19.2585 238.267 20.8337H241.267ZM263.221 19.2908L266.219 19.3704C266.242 18.5246 265.906 17.7087 265.295 17.1237C264.684 16.5386 263.854 16.2388 263.01 16.2982L263.221 19.2908ZM263.045 25.9119L263.286 28.9022C264.814 28.7789 266.003 27.5238 266.044 25.9915L263.045 25.9119ZM254.568 26.5955L254.327 23.6052C253.533 23.6692 252.796 24.0468 252.281 24.6545C251.765 25.2622 251.512 26.0501 251.579 26.8443L254.568 26.5955ZM256.111 45.1306L256.502 48.1051C258.09 47.8966 259.234 46.4777 259.101 44.8817L256.111 45.1306ZM248.377 46.1462L245.378 46.0801C245.358 46.9551 245.722 47.795 246.374 48.3795C247.025 48.9639 247.9 49.2347 248.767 49.1207L248.377 46.1462ZM248.806 26.6736L251.806 26.7398C251.824 25.9153 251.502 25.1197 250.915 24.54C250.329 23.9603 249.53 23.6475 248.705 23.6753L248.806 26.6736ZM241.267 26.9275H244.267V20.8337H241.267H238.267V26.9275H241.267ZM241.267 20.8337L241.478 23.8264L263.431 22.2834L263.221 19.2908L263.01 16.2982L241.057 17.8411L241.267 20.8337ZM263.221 19.2908L260.222 19.2112L260.046 25.8322L263.045 25.9119L266.044 25.9915L266.219 19.3704L263.221 19.2908ZM263.045 25.9119L262.804 22.9216L254.327 23.6052L254.568 26.5955L254.809 29.5858L263.286 28.9022L263.045 25.9119ZM254.568 26.5955L251.579 26.8443L253.121 45.3795L256.111 45.1306L259.101 44.8817L257.558 26.3466L254.568 26.5955ZM256.111 45.1306L255.721 42.1562L247.986 43.1718L248.377 46.1462L248.767 49.1207L256.502 48.1051L256.111 45.1306ZM248.377 46.1462L251.376 46.2124L251.806 26.7398L248.806 26.6736L245.807 26.6074L245.378 46.0801L248.377 46.1462ZM248.806 26.6736L248.705 23.6753L241.166 23.9292L241.267 26.9275L241.368 29.9258L248.907 29.6719L248.806 26.6736ZM263.566 43.6267L261.157 41.8383C260.665 42.5016 260.468 43.3385 260.612 44.1518C260.757 44.9651 261.23 45.6829 261.921 46.1357L263.566 43.6267ZM266.945 39.0759L268.562 36.549C267.234 35.6995 265.476 36.0221 264.536 37.2875L266.945 39.0759ZM275.304 39.8572L277.433 41.971C277.452 41.9517 277.471 41.9321 277.49 41.9123L275.304 39.8572ZM272.902 33.9783L274.573 31.4867C274.454 31.407 274.329 31.3359 274.2 31.2739L272.902 33.9783ZM265.812 28.9978L268.007 26.953C267.914 26.8535 267.815 26.7605 267.71 26.6745L265.812 28.9978ZM265.382 21.7908L263.05 19.9043C262.9 20.0889 262.773 20.2906 262.672 20.5051L265.382 21.7908ZM274.699 19.6033L274.066 22.5358C274.08 22.5388 274.094 22.5417 274.108 22.5445L274.699 19.6033ZM281.964 23.6853L284.436 25.3849C285.185 24.2953 285.133 22.8437 284.307 21.8112L281.964 23.6853ZM279.386 27.4353L277.698 29.9155C279.064 30.8445 280.923 30.4956 281.858 29.1349L279.386 27.4353ZM270.831 24.6033L269.398 21.968C268.849 22.2665 268.407 22.7287 268.134 23.2904L270.831 24.6033ZM277.433 30.8142L278.998 28.2547C278.94 28.2192 278.881 28.1858 278.82 28.1543L277.433 30.8142ZM278.82 44.6619L281.144 46.5586C281.182 46.5122 281.218 46.4646 281.253 46.416L278.82 44.6619ZM263.566 43.6267L265.974 45.4151L269.353 40.8643L266.945 39.0759L264.536 37.2875L261.157 41.8383L263.566 43.6267ZM266.945 39.0759L265.328 41.6029C267.383 42.9178 269.481 43.8521 271.548 44.0453C273.766 44.2526 275.83 43.5852 277.433 41.971L275.304 39.8572L273.175 37.7433C272.929 37.9911 272.675 38.1245 272.107 38.0714C271.388 38.0042 270.231 37.6169 268.562 36.549L266.945 39.0759ZM275.304 39.8572L277.49 41.9123C278.172 41.1868 278.752 40.276 279.003 39.1716C279.259 38.0401 279.116 36.9357 278.711 35.944C277.964 34.1148 276.33 32.6651 274.573 31.4867L272.902 33.9783L271.231 36.4698C271.925 36.9357 272.409 37.3378 272.731 37.6664C273.058 38.001 273.146 38.1877 273.157 38.2137C273.159 38.2191 273.142 38.1795 273.135 38.1019C273.127 38.0213 273.131 37.9314 273.151 37.845C273.191 37.6667 273.257 37.6552 273.119 37.8021L275.304 39.8572ZM272.902 33.9783L274.2 31.2739C271.497 29.9759 269.466 28.5188 268.007 26.953L265.812 28.9978L263.617 31.0426C265.7 33.2789 268.395 35.1421 271.603 36.6827L272.902 33.9783ZM265.812 28.9978L267.71 26.6745C267.44 26.4544 267.335 26.2568 267.312 25.8847C267.282 25.3819 267.426 24.483 268.093 23.0764L265.382 21.7908L262.672 20.5051C261.776 22.3928 261.21 24.3422 261.323 26.2418C261.444 28.2721 262.334 30.0308 263.914 31.3211L265.812 28.9978ZM265.382 21.7908L267.715 23.6773C268.638 22.5352 270.348 21.7334 274.066 22.5358L274.699 19.6033L275.331 16.6708C270.482 15.6242 265.98 16.2807 263.05 19.9043L265.382 21.7908ZM274.699 19.6033L274.108 22.5445C276.748 23.0747 278.485 24.138 279.622 25.5594L281.964 23.6853L284.307 21.8112C282.111 19.0659 279.003 17.4079 275.289 16.662L274.699 19.6033ZM281.964 23.6853L279.492 21.9857L276.914 25.7357L279.386 27.4353L281.858 29.1349L284.436 25.3849L281.964 23.6853ZM279.386 27.4353L281.074 24.9551C278.933 23.4983 276.938 22.3965 275.134 21.7992C273.393 21.223 271.285 20.9412 269.398 21.968L270.831 24.6033L272.265 27.2386C272.005 27.3799 272.137 27.1274 273.248 27.4952C274.295 27.8419 275.764 28.5989 277.698 29.9155L279.386 27.4353ZM270.831 24.6033L268.134 23.2904C267.511 24.5708 267.619 25.8921 268.074 26.9787C268.489 27.9679 269.189 28.7862 269.889 29.4445C271.296 30.7684 273.422 32.1055 276.046 33.4741L277.433 30.8142L278.82 28.1543C276.327 26.8536 274.794 25.821 274 25.0745C273.6 24.6977 273.565 24.5557 273.608 24.6595C273.692 24.8607 273.794 25.3715 273.529 25.9162L270.831 24.6033ZM277.433 30.8142L275.868 33.3737C277.983 34.6667 278.631 35.9028 278.74 36.9872C278.865 38.2389 278.368 40.1577 276.386 42.9077L278.82 44.6619L281.253 46.416C283.607 43.1504 285.047 39.7535 284.71 36.3893C284.356 32.8578 282.143 30.1778 278.998 28.2547L277.433 30.8142ZM278.82 44.6619L276.495 42.7651C275.532 43.9455 274.415 44.4377 272.827 44.3299C271.028 44.2078 268.522 43.2881 265.21 41.1177L263.566 43.6267L261.921 46.1357C265.602 48.5487 269.134 50.0931 272.42 50.3161C275.917 50.5534 278.93 49.2714 281.144 46.5586L278.82 44.6619Z" fill="#341D1A" mask="url(#path-5-outside-2_58_1213)"/>
</g>
</g>
<defs>
<filter id="filter0_d_58_1213" x="0" y="0" width="344.352" height="76.0396" filterUnits="userSpaceOnUse" color-interpolation-filters="sRGB">
<feFlood flood-opacity="0" result="BackgroundImageFix"/>
<feColorMatrix in="SourceAlpha" type="matrix" values="0 0 0 0 0 0 0 0 0 0 0 0 0 0 0 0 0 0 127 0" result="hardAlpha"/>
<feOffset dy="7"/>
<feComposite in2="hardAlpha" operator="out"/>
<feColorMatrix type="matrix" values="0 0 0 0 0.74902 0 0 0 0 0.470588 0 0 0 0 0.054902 0 0 0 0.2 0"/>
<feBlend mode="normal" in2="BackgroundImageFix" result="effect1_dropShadow_58_1213"/>
<feBlend mode="normal" in="SourceGraphic" in2="effect1_dropShadow_58_1213" result="shape"/>
</filter>
<filter id="filter1_ii_58_1213" x="0" y="0" width="344.352" height="69.0396" filterUnits="userSpaceOnUse" color-interpolation-filters="sRGB">
<feFlood flood-opacity="0" result="BackgroundImageFix"/>
<feBlend mode="normal" in="SourceGraphic" in2="BackgroundImageFix" result="shape"/>
<feColorMatrix in="SourceAlpha" type="matrix" values="0 0 0 0 0 0 0 0 0 0 0 0 0 0 0 0 0 0 127 0" result="hardAlpha"/>
<feOffset dy="5"/>
<feComposite in2="hardAlpha" operator="arithmetic" k2="-1" k3="1"/>
<feColorMatrix type="matrix" values="0 0 0 0 0.686275 0 0 0 0 0.588235 0 0 0 0 0.223529 0 0 0 1 0"/>
<feBlend mode="normal" in2="shape" result="effect1_innerShadow_58_1213"/>
<feColorMatrix in="SourceAlpha" type="matrix" values="0 0 0 0 0 0 0 0 0 0 0 0 0 0 0 0 0 0 127 0" result="hardAlpha"/>
<feOffset dy="-6"/>
<feComposite in2="hardAlpha" operator="arithmetic" k2="-1" k3="1"/>
<feColorMatrix type="matrix" values="0 0 0 0 0 0 0 0 0 0 0 0 0 0 0 0 0 0 0.25 0"/>
<feBlend mode="normal" in2="effect1_innerShadow_58_1213" result="effect2_innerShadow_58_1213"/>
</filter>
<filter id="filter2_di_58_1213" x="69.1049" y="16.22" width="215.859" height="38.4458" filterUnits="userSpaceOnUse" color-interpolation-filters="sRGB">
<feFlood flood-opacity="0" result="BackgroundImageFix"/>
<feColorMatrix in="SourceAlpha" type="matrix" values="0 0 0 0 0 0 0 0 0 0 0 0 0 0 0 0 0 0 127 0" result="hardAlpha"/>
<feOffset dy="3"/>
<feComposite in2="hardAlpha" operator="out"/>
<feColorMatrix type="matrix" values="0 0 0 0 0.779167 0 0 0 0 0.505248 0 0 0 0 0.0986945 0 0 0 1 0"/>
<feBlend mode="normal" in2="BackgroundImageFix" result="effect1_dropShadow_58_1213"/>
<feBlend mode="normal" in="SourceGraphic" in2="effect1_dropShadow_58_1213" result="shape"/>
<feColorMatrix in="SourceAlpha" type="matrix" values="0 0 0 0 0 0 0 0 0 0 0 0 0 0 0 0 0 0 127 0" result="hardAlpha"/>
<feOffset dy="1"/>
<feComposite in2="hardAlpha" operator="arithmetic" k2="-1" k3="1"/>
<feColorMatrix type="matrix" values="0 0 0 0 1 0 0 0 0 0.862745 0 0 0 0 0.658824 0 0 0 1 0"/>
<feBlend mode="normal" in2="shape" result="effect2_innerShadow_58_1213"/>
</filter>
</defs>
</svg>
