<svg viewBox="0 0 494.827 296.502" xmlns="http://www.w3.org/2000/svg" xmlns:xlink="http://www.w3.org/1999/xlink" width="494.826904" height="296.502075" fill="none" customFrame="#000000">
	<defs>
		<g id="pixso_custom_effect_0">
			<effect x="0.000000" y="9.000000" visibility="visible" fill="rgb(30,168,221)" fill-opacity="1" effectType="innerShadow" stdDeviation="0" radius="0" />
			<effect x="0.000000" y="-9.000000" visibility="visible" fill="rgb(30,168,221)" fill-opacity="1" effectType="innerShadow" stdDeviation="0" radius="0" />
		</g>
		<filter id="filter_0" width="435.874512" height="234.508301" x="19.345947" y="27.618286" filterUnits="userSpaceOnUse" customEffect="url(#pixso_custom_effect_0)" color-interpolation-filters="sRGB">
			<feFlood flood-opacity="0" result="BackgroundImageFix" />
			<feBlend result="shape" in="SourceGraphic" in2="BackgroundImageFix" mode="normal" />
			<feOffset dx="0.000000" dy="9.000000" in="SourceAlpha" />
			<feGaussianBlur stdDeviation="0" />
			<feComposite k2="-1" k3="1" in2="SourceAlpha" operator="arithmetic" />
			<feColorMatrix type="matrix" values="0 0 0 0 0.117647 0 0 0 0 0.658824 0 0 0 0 0.866667 0 0 0 1 0 " />
			<feBlend result="effect_innerShadow_1" in2="shape" mode="normal" />
			<feOffset dx="0.000000" dy="-9.000000" in="SourceAlpha" />
			<feGaussianBlur stdDeviation="0" />
			<feComposite k2="-1" k3="1" in2="SourceAlpha" operator="arithmetic" />
			<feColorMatrix type="matrix" values="0 0 0 0 0.117647 0 0 0 0 0.658824 0 0 0 0 0.866667 0 0 0 1 0 " />
			<feBlend result="effect_innerShadow_2" in2="effect_innerShadow_1" mode="normal" />
		</filter>
		<g id="pixso_custom_effect_1">
			<effect x="0.000000" y="-6.000000" visibility="visible" fill="rgb(57.375,55.7762,54.3628)" fill-opacity="1" effectType="innerShadow" stdDeviation="0" radius="0" />
			<effect x="0.000000" y="6.000000" visibility="visible" fill="rgb(222.062,187.882,157.664)" fill-opacity="1" effectType="innerShadow" stdDeviation="0" radius="0" />
		</g>
		<filter id="filter_1" width="85.906738" height="148.056519" x="48.713257" y="75.916626" filterUnits="userSpaceOnUse" customEffect="url(#pixso_custom_effect_1)" color-interpolation-filters="sRGB">
			<feFlood flood-opacity="0" result="BackgroundImageFix" />
			<feBlend result="shape" in="SourceGraphic" in2="BackgroundImageFix" mode="normal" />
			<feColorMatrix result="hardAlpha" in="SourceAlpha" type="matrix" values="0 0 0 0 0 0 0 0 0 0 0 0 0 0 0 0 0 0 127 0 " />
			<feOffset dx="0.000000" dy="-6.000000" in="hardAlpha" />
			<feGaussianBlur stdDeviation="0" />
			<feComposite k2="-1" k3="1" in2="hardAlpha" operator="arithmetic" />
			<feColorMatrix type="matrix" values="0 0 0 0 0.225 0 0 0 0 0.21873 0 0 0 0 0.213188 0 0 0 1 0 " />
			<feBlend result="effect_innerShadow_1" in2="shape" mode="normal" />
			<feColorMatrix result="hardAlpha" in="SourceAlpha" type="matrix" values="0 0 0 0 0 0 0 0 0 0 0 0 0 0 0 0 0 0 127 0 " />
			<feOffset dx="0.000000" dy="6.000000" in="hardAlpha" />
			<feGaussianBlur stdDeviation="0" />
			<feComposite k2="-1" k3="1" in2="hardAlpha" operator="arithmetic" />
			<feColorMatrix type="matrix" values="0 0 0 0 0.870833 0 0 0 0 0.736792 0 0 0 0 0.618292 0 0 0 1 0 " />
			<feBlend result="effect_innerShadow_2" in2="effect_innerShadow_1" mode="normal" />
		</filter>
		<clipPath id="clipPath_0">
			<rect width="85.906754" height="148.056488" x="48.713257" y="75.916626" rx="14.000000" fill="rgb(255,255,255)" />
		</clipPath>
		<g id="pixso_custom_effect_2">
			<effect x="0.000000" y="-6.000000" visibility="visible" fill="rgb(57.375,55.7762,54.3628)" fill-opacity="1" effectType="innerShadow" stdDeviation="0" radius="0" />
			<effect x="0.000000" y="6.000000" visibility="visible" fill="rgb(222.062,187.882,157.664)" fill-opacity="1" effectType="innerShadow" stdDeviation="0" radius="0" />
		</g>
		<filter id="filter_2" width="84.427002" height="148.056519" x="146.373291" y="75.916626" filterUnits="userSpaceOnUse" customEffect="url(#pixso_custom_effect_2)" color-interpolation-filters="sRGB">
			<feFlood flood-opacity="0" result="BackgroundImageFix" />
			<feBlend result="shape" in="SourceGraphic" in2="BackgroundImageFix" mode="normal" />
			<feColorMatrix result="hardAlpha" in="SourceAlpha" type="matrix" values="0 0 0 0 0 0 0 0 0 0 0 0 0 0 0 0 0 0 127 0 " />
			<feOffset dx="0.000000" dy="-6.000000" in="hardAlpha" />
			<feGaussianBlur stdDeviation="0" />
			<feComposite k2="-1" k3="1" in2="hardAlpha" operator="arithmetic" />
			<feColorMatrix type="matrix" values="0 0 0 0 0.225 0 0 0 0 0.21873 0 0 0 0 0.213188 0 0 0 1 0 " />
			<feBlend result="effect_innerShadow_1" in2="shape" mode="normal" />
			<feColorMatrix result="hardAlpha" in="SourceAlpha" type="matrix" values="0 0 0 0 0 0 0 0 0 0 0 0 0 0 0 0 0 0 127 0 " />
			<feOffset dx="0.000000" dy="6.000000" in="hardAlpha" />
			<feGaussianBlur stdDeviation="0" />
			<feComposite k2="-1" k3="1" in2="hardAlpha" operator="arithmetic" />
			<feColorMatrix type="matrix" values="0 0 0 0 0.870833 0 0 0 0 0.736792 0 0 0 0 0.618292 0 0 0 1 0 " />
			<feBlend result="effect_innerShadow_2" in2="effect_innerShadow_1" mode="normal" />
		</filter>
		<clipPath id="clipPath_1">
			<rect width="84.427017" height="148.056488" x="146.373291" y="75.916626" rx="14.000000" fill="rgb(255,255,255)" />
		</clipPath>
		<g id="pixso_custom_effect_3">
			<effect x="0.000000" y="-6.000000" visibility="visible" fill="rgb(57.375,55.7762,54.3628)" fill-opacity="1" effectType="innerShadow" stdDeviation="0" radius="0" />
			<effect x="0.000000" y="6.000000" visibility="visible" fill="rgb(222.062,187.882,157.664)" fill-opacity="1" effectType="innerShadow" stdDeviation="0" radius="0" />
		</g>
		<filter id="filter_3" width="85.906738" height="148.056519" x="242.557617" y="75.916626" filterUnits="userSpaceOnUse" customEffect="url(#pixso_custom_effect_3)" color-interpolation-filters="sRGB">
			<feFlood flood-opacity="0" result="BackgroundImageFix" />
			<feBlend result="shape" in="SourceGraphic" in2="BackgroundImageFix" mode="normal" />
			<feColorMatrix result="hardAlpha" in="SourceAlpha" type="matrix" values="0 0 0 0 0 0 0 0 0 0 0 0 0 0 0 0 0 0 127 0 " />
			<feOffset dx="0.000000" dy="-6.000000" in="hardAlpha" />
			<feGaussianBlur stdDeviation="0" />
			<feComposite k2="-1" k3="1" in2="hardAlpha" operator="arithmetic" />
			<feColorMatrix type="matrix" values="0 0 0 0 0.225 0 0 0 0 0.21873 0 0 0 0 0.213188 0 0 0 1 0 " />
			<feBlend result="effect_innerShadow_1" in2="shape" mode="normal" />
			<feColorMatrix result="hardAlpha" in="SourceAlpha" type="matrix" values="0 0 0 0 0 0 0 0 0 0 0 0 0 0 0 0 0 0 127 0 " />
			<feOffset dx="0.000000" dy="6.000000" in="hardAlpha" />
			<feGaussianBlur stdDeviation="0" />
			<feComposite k2="-1" k3="1" in2="hardAlpha" operator="arithmetic" />
			<feColorMatrix type="matrix" values="0 0 0 0 0.870833 0 0 0 0 0.736792 0 0 0 0 0.618292 0 0 0 1 0 " />
			<feBlend result="effect_innerShadow_2" in2="effect_innerShadow_1" mode="normal" />
		</filter>
		<clipPath id="clipPath_2">
			<rect width="85.906754" height="148.056488" x="242.557617" y="75.916626" rx="14.000000" fill="rgb(255,255,255)" />
		</clipPath>
		<g id="pixso_custom_effect_4">
			<effect x="0.000000" y="-6.000000" visibility="visible" fill="rgb(57.375,55.7762,54.3628)" fill-opacity="1" effectType="innerShadow" stdDeviation="0" radius="0" />
			<effect x="0.000000" y="6.000000" visibility="visible" fill="rgb(222.062,187.882,157.664)" fill-opacity="1" effectType="innerShadow" stdDeviation="0" radius="0" />
		</g>
		<filter id="filter_4" width="85.906738" height="148.056519" x="340.225464" y="75.916626" filterUnits="userSpaceOnUse" customEffect="url(#pixso_custom_effect_4)" color-interpolation-filters="sRGB">
			<feFlood flood-opacity="0" result="BackgroundImageFix" />
			<feBlend result="shape" in="SourceGraphic" in2="BackgroundImageFix" mode="normal" />
			<feColorMatrix result="hardAlpha" in="SourceAlpha" type="matrix" values="0 0 0 0 0 0 0 0 0 0 0 0 0 0 0 0 0 0 127 0 " />
			<feOffset dx="0.000000" dy="-6.000000" in="hardAlpha" />
			<feGaussianBlur stdDeviation="0" />
			<feComposite k2="-1" k3="1" in2="hardAlpha" operator="arithmetic" />
			<feColorMatrix type="matrix" values="0 0 0 0 0.225 0 0 0 0 0.21873 0 0 0 0 0.213188 0 0 0 1 0 " />
			<feBlend result="effect_innerShadow_1" in2="shape" mode="normal" />
			<feColorMatrix result="hardAlpha" in="SourceAlpha" type="matrix" values="0 0 0 0 0 0 0 0 0 0 0 0 0 0 0 0 0 0 127 0 " />
			<feOffset dx="0.000000" dy="6.000000" in="hardAlpha" />
			<feGaussianBlur stdDeviation="0" />
			<feComposite k2="-1" k3="1" in2="hardAlpha" operator="arithmetic" />
			<feColorMatrix type="matrix" values="0 0 0 0 0.870833 0 0 0 0 0.736792 0 0 0 0 0.618292 0 0 0 1 0 " />
			<feBlend result="effect_innerShadow_2" in2="effect_innerShadow_1" mode="normal" />
		</filter>
		<clipPath id="clipPath_3">
			<rect width="85.906754" height="148.056488" x="340.225464" y="75.916626" rx="14.000000" fill="rgb(255,255,255)" />
		</clipPath>
	</defs>
	<g id="Group 254">
		<rect id="Rectangle 1299" width="27.149820" height="55.216648" x="467.677124" y="120.463501" rx="2.000000" fill="rgb(0,118,204)" />
		<rect id="Rectangle 1299" width="26.149820" height="54.216648" x="468.177124" y="120.963501" rx="1.500000" stroke="rgb(52,29,26)" stroke-width="1" />
		<rect id="Rectangle 1300" width="8.478669" height="80.573555" x="0.000000" y="0.000000" rx="4.239335" opacity="0" fill="rgb(156,222,250)" transform="matrix(1,5.55112e-17,5.55112e-17,-1,478.659,226.352)" />
		<rect id="Rectangle 1300" width="7.478669" height="79.573555" x="0.500000" y="0.500000" rx="3.739335" opacity="0" stroke="rgb(52,29,26)" stroke-width="1" transform="matrix(1,5.55112e-17,5.55112e-17,-1,478.659,226.352)" />
		<rect id="Rectangle 1298" width="26.454031" height="118.647446" x="444.178833" y="88.757935" rx="2.000000" fill="rgb(0,118,204)" />
		<rect id="Rectangle 1298" width="25.454031" height="117.647446" x="444.678833" y="89.257935" rx="1.500000" stroke="rgb(52,29,26)" stroke-width="1" />
		<g filter="url(#filter_0)">
			<path id="Rectangle 1284" d="M23.3722 74.4339C23.3722 50.7875 41.1996 31.6183 63.1907 31.6183L410.18 31.6183C432.171 31.6183 449.999 50.7875 449.999 74.4338L449.999 125.66L451.214 147.45L449.999 169.24L449.999 215.311C449.999 238.957 432.171 258.127 410.18 258.127L63.1907 258.127C41.1996 258.127 23.3722 238.957 23.3722 215.311L23.3722 169.24L23.3459 147.45L23.3722 125.66L23.3722 74.4339Z" fill="rgb(165,223,247)" fill-rule="nonzero" />
			<path id="Rectangle 1284" d="M418.673 28.4895C415.903 27.9087 413.072 27.6183 410.18 27.6183L63.1907 27.6183C60.2988 27.6183 57.4678 27.9087 54.6976 28.4895C51.7409 29.1094 48.8535 30.0602 46.0356 31.3418C44.3492 32.1088 42.7254 32.9765 41.1642 33.9451C37.8655 35.9916 34.846 38.4881 32.1057 41.4346C30.6287 43.0228 29.2746 44.6968 28.0433 46.4568C25.925 49.4848 24.1702 52.7672 22.779 56.3039C21.9261 58.4721 21.2333 60.6784 20.7007 62.9226C19.8151 66.6546 19.3722 70.4917 19.3722 74.4339L19.3722 125.655L19.346 147.454L19.3722 169.24L19.3722 215.311C19.3722 219.253 19.8151 223.09 20.7007 226.822C21.2333 229.066 21.9261 231.273 22.779 233.441C24.1701 236.977 25.9247 240.26 28.0429 243.287C29.2743 245.048 30.6286 246.722 32.1057 248.31C34.8461 251.257 37.8656 253.753 41.1644 255.8C42.7256 256.768 44.3493 257.636 46.0356 258.403C48.8537 259.685 51.7413 260.636 54.6982 261.255C57.4681 261.836 60.299 262.127 63.1907 262.127L410.18 262.127C413.072 262.127 415.903 261.836 418.673 261.255C421.63 260.636 424.517 259.685 427.335 258.403C429.021 257.636 430.644 256.769 432.205 255.801C435.504 253.754 438.524 251.257 441.265 248.31C442.742 246.722 444.096 245.048 445.327 243.288C447.446 240.26 449.201 236.978 450.592 233.441C451.444 231.274 452.137 229.069 452.669 226.826C453.555 223.093 453.999 219.254 453.999 215.311L453.999 169.351L455.221 147.45L453.999 125.548L453.999 74.4338C453.999 70.4903 453.555 66.652 452.669 62.9188C452.137 60.6759 451.444 58.4709 450.592 56.3039C449.201 52.767 447.446 49.4846 445.327 46.4565C444.096 44.6966 442.742 43.0227 441.265 41.4346C438.524 38.4876 435.504 35.9907 432.205 33.9441C430.644 32.9759 429.021 32.1085 427.335 31.3418C424.517 30.0602 421.63 29.1095 418.673 28.4895ZM449.999 125.66L449.999 74.4338C449.999 50.7875 432.171 31.6183 410.18 31.6183L63.1907 31.6183C41.1996 31.6183 23.3722 50.7875 23.3722 74.4339L23.3722 125.66L23.3459 147.45L23.3722 169.24L23.3722 215.311C23.3722 238.957 41.1996 258.127 63.1907 258.127L410.18 258.127C432.171 258.127 449.999 238.957 449.999 215.311L449.999 169.24L451.214 147.45L449.999 125.66Z" fill="rgb(52,29,26)" fill-rule="evenodd" />
		</g>
		<path id="Rectangle 1284" d="M418.673 28.4895C415.903 27.9087 413.072 27.6183 410.18 27.6183L63.1907 27.6183C60.2988 27.6183 57.4678 27.9087 54.6976 28.4895C51.7409 29.1094 48.8535 30.0602 46.0356 31.3418C44.3492 32.1088 42.7254 32.9765 41.1642 33.9451C37.8655 35.9916 34.846 38.4881 32.1057 41.4346C30.6287 43.0228 29.2746 44.6968 28.0433 46.4568C25.925 49.4848 24.1702 52.7672 22.779 56.3039C21.9261 58.4721 21.2333 60.6784 20.7007 62.9226C19.8151 66.6546 19.3722 70.4917 19.3722 74.4339L19.3722 125.655L19.346 147.454L19.3722 169.24L19.3722 215.311C19.3722 219.253 19.8151 223.09 20.7007 226.822C21.2333 229.066 21.9261 231.273 22.779 233.441C24.1701 236.977 25.9247 240.26 28.0429 243.287C29.2743 245.048 30.6286 246.722 32.1057 248.31C34.8461 251.257 37.8656 253.753 41.1644 255.8C42.7256 256.768 44.3493 257.636 46.0356 258.403C48.8537 259.685 51.7413 260.636 54.6982 261.255C57.4681 261.836 60.299 262.127 63.1907 262.127L410.18 262.127C413.072 262.127 415.903 261.836 418.673 261.255C421.63 260.636 424.517 259.685 427.335 258.403C429.021 257.636 430.644 256.769 432.205 255.801C435.504 253.754 438.524 251.257 441.265 248.31C442.742 246.722 444.096 245.048 445.327 243.288C447.446 240.26 449.201 236.978 450.592 233.441C451.444 231.274 452.137 229.069 452.669 226.826C453.555 223.093 453.999 219.254 453.999 215.311L453.999 169.351L455.221 147.45L453.999 125.548L453.999 74.4338C453.999 70.4903 453.555 66.652 452.669 62.9188C452.137 60.6759 451.444 58.4709 450.592 56.3039C449.201 52.767 447.446 49.4846 445.327 46.4565C444.096 44.6966 442.742 43.0227 441.265 41.4346C438.524 38.4876 435.504 35.9907 432.205 33.9441C430.644 32.9759 429.021 32.1085 427.335 31.3418C424.517 30.0602 421.63 29.1095 418.673 28.4895ZM449.999 125.66L449.999 74.4338C449.999 50.7875 432.171 31.6183 410.18 31.6183L63.1907 31.6183C41.1996 31.6183 23.3722 50.7875 23.3722 74.4339L23.3722 125.66L23.3459 147.45L23.3722 169.24L23.3722 215.311C23.3722 238.957 41.1996 258.127 63.1907 258.127L410.18 258.127C432.171 258.127 449.999 238.957 449.999 215.311L449.999 169.24L451.214 147.45L449.999 125.66Z" fill="rgb(52,29,26)" fill-rule="evenodd" data-pixso-skip-parse="true" />
		<g filter="url(#filter_1)">
			<g id="input" clip-path="url(#clipPath_0)" customFrame="url(#clipPath_0)">
				<rect id="input" width="79.906754" height="142.056488" x="51.713257" y="78.916626" rx="11.000000" fill="rgb(246.5,246.5,246.5)" />
				<rect id="input" width="82.906754" height="145.056488" x="50.213257" y="77.416626" rx="12.500000" stroke="rgb(52,29,26)" stroke-width="3" />
				<rect id="Rectangle 1297" width="173.632477" height="32.928581" x="-1.972046" y="193.423462" fill="rgb(226.312,226.312,226.312)" />
				<rect id="Rectangle 1298" width="173.632477" height="32.928581" x="-2.415833" y="73.691772" fill="rgb(226.312,226.312,226.312)" />
				<path id="Vector 25" d="M67.5336 21.0849L67.5336 4.87695L67.5336 2.28368L71.8476 2.28368L71.8476 7.47031C75.2629 5.09312 83.7113 0.0794091 90.1824 -0.957901C98.2712 -2.25454 106.36 4.87695 109.596 4.87695C112.184 4.87695 112.831 3.1481 112.831 2.28368C114.808 2.06757 118.871 2.54301 119.302 6.17359C119.841 10.7118 110.674 22.3816 106.36 32.7547C102.909 41.0531 104.203 54.3653 105.282 59.984L78.858 59.3357C79.2175 56.7424 80.5836 49.222 83.172 39.8862C85.7604 30.5504 95.3952 21.301 99.889 17.8433C98.6307 18.2755 95.0357 18.8806 90.7216 17.8433C85.329 16.5467 86.4075 16.5467 80.4757 13.3051C75.7303 10.7118 72.3869 17.4111 71.3084 21.0849L67.5336 21.0849Z" fill="rgb(156,29,40)" fill-rule="evenodd" />
				<path id="Vector 25" d="M65.5336 4.87695L65.5336 23.0849L72.8056 23.0849L73.2274 21.6483C73.5057 20.7003 73.8717 19.7617 74.3256 18.8324C74.8551 17.7483 75.4233 16.8549 76.0303 16.1525C76.6426 15.4437 77.2343 14.9976 77.8052 14.814C77.8908 14.7865 77.9774 14.7656 78.0652 14.7512C78.52 14.6769 79.0039 14.7799 79.5166 15.0601C80.5053 15.6004 81.6177 16.2306 82.8536 16.9506C84.2204 17.7468 85.2546 18.283 85.9563 18.5592C86.8067 18.8939 88.2392 19.3034 90.254 19.7879C91.4906 20.0852 92.7296 20.2772 93.971 20.3637C92.2984 21.98 90.7368 23.6496 89.2862 25.3722C85.1461 30.2884 82.4656 34.9483 81.2447 39.3518C80.0903 43.5155 79.0827 47.6406 78.2221 51.7272C77.5813 54.7694 77.133 57.2141 76.8769 59.0611L76.5693 61.2802L107.714 62.0443L107.246 59.607C106.52 55.8261 106.145 51.745 106.122 47.3636C106.091 41.5522 106.786 36.9386 108.207 33.5227C108.992 31.6345 110.052 29.4609 111.385 27.0018C112.185 25.5268 113.423 23.3541 115.099 20.4838C117.279 16.7488 118.748 14.0965 119.507 12.5272C120.879 9.68787 121.473 7.49135 121.288 5.93759C121.187 5.08204 120.94 4.30851 120.549 3.61699C120.366 3.29448 120.152 2.98981 119.906 2.70298C119.872 2.66312 119.838 2.62371 119.802 2.58478C119.172 1.88621 118.375 1.33745 117.412 0.938504C117.076 0.799083 116.733 0.68024 116.385 0.581975C115.196 0.246184 113.939 0.150698 112.614 0.295516L110.831 0.490357L110.831 2.28368C110.831 2.37303 110.786 2.46778 110.696 2.56793C110.511 2.77394 110.144 2.87695 109.596 2.87695C109.15 2.87695 107.761 2.28145 105.431 1.09045C102.515 -0.400005 100.195 -1.43178 98.4691 -2.00487C95.3459 -3.04217 92.4781 -3.35145 89.8658 -2.93269C86.8046 -2.44198 83.1733 -1.14233 78.9719 0.966243C77.1563 1.87746 75.4482 2.81839 73.8476 3.78906L73.8476 0.283678L65.5336 0.283678L65.5336 4.87695ZM73.8476 6.15208C73.071 6.64102 72.3947 7.0895 71.8476 7.47031L71.8476 2.28368L67.5336 2.28368L67.5336 21.0849L71.3084 21.0849C72.3869 17.4111 75.7303 10.7118 80.4757 13.3051C86.4075 16.5467 85.329 16.5467 90.7216 17.8433C92.7142 18.3224 94.5535 18.4512 96.0799 18.4084C97.8582 18.3585 99.2119 18.0759 99.889 17.8433C99.043 18.4942 98.0149 19.3503 96.8859 20.3736C92.0175 24.7864 85.2732 32.3078 83.172 39.8862C81.0759 47.4464 79.7813 53.8162 79.1738 57.3429C79.0311 58.1711 78.9263 58.8425 78.858 59.3357L80.8708 59.3851L103.237 59.9339L105.282 59.984C105.168 59.3943 105.053 58.7197 104.941 57.9751C103.984 51.6258 103.271 40.1821 106.36 32.7547C108.193 28.3469 110.903 23.705 113.371 19.4756C116.712 13.7517 119.612 8.78341 119.302 6.17359C118.99 3.54791 116.779 2.57248 114.831 2.31541C114.739 2.30326 114.647 2.29272 114.557 2.28368C113.913 2.21952 113.311 2.23125 112.831 2.28368C112.831 3.1481 112.184 4.87695 109.596 4.87695C108.445 4.87695 106.681 3.97519 104.521 2.8713C100.607 0.87083 95.3949 -1.79346 90.1824 -0.957901C84.7479 -0.0867627 77.9189 3.58882 73.8476 6.15208Z" fill="rgb(52,29,26)" fill-rule="evenodd" />
				<path id="Vector 26" d="M67.5336 140.945L67.5336 124.737L67.5336 122.144L71.8476 122.144L71.8476 127.33C75.2629 124.953 83.7113 119.94 90.1824 118.902C98.2712 117.606 106.36 124.737 109.596 124.737C112.184 124.737 112.831 123.008 112.831 122.144C114.808 121.928 118.871 122.403 119.302 126.034C119.841 130.572 110.674 142.242 106.36 152.615C102.909 160.913 104.203 174.225 105.282 179.844L78.858 179.196C79.2175 176.603 80.5836 169.082 83.172 159.746C85.7604 150.41 95.3952 141.161 99.889 137.703C98.6307 138.136 95.0357 138.741 90.7216 137.703C85.329 136.407 86.4075 136.407 80.4757 133.165C75.7303 130.572 72.3869 137.271 71.3084 140.945L67.5336 140.945Z" opacity="0" fill="rgb(156,29,40)" fill-rule="evenodd" />
				<path id="Vector 26" d="M65.5336 124.737L65.5336 142.945L72.8056 142.945L73.2274 141.508C73.5057 140.56 73.8717 139.622 74.3256 138.693C74.8551 137.608 75.4233 136.715 76.0303 136.013C76.6426 135.304 77.2343 134.858 77.8052 134.674C77.8908 134.647 77.9774 134.626 78.0652 134.611C78.52 134.537 79.0039 134.64 79.5166 134.92C80.5053 135.461 81.6177 136.091 82.8536 136.811C84.2204 137.607 85.2546 138.143 85.9563 138.419C86.8067 138.754 88.2392 139.164 90.254 139.648C91.4906 139.945 92.7296 140.137 93.971 140.224C92.2984 141.84 90.7368 143.51 89.2862 145.232C85.1461 150.149 82.4656 154.808 81.2447 159.212C80.0903 163.376 79.0827 167.501 78.2221 171.587C77.5813 174.63 77.133 177.074 76.8769 178.921L76.5693 181.14L107.714 181.904L107.246 179.467C106.52 175.686 106.145 171.605 106.122 167.224C106.091 161.412 106.786 156.799 108.207 153.383C108.992 151.495 110.052 149.321 111.385 146.862C112.185 145.387 113.423 143.214 115.099 140.344C117.279 136.609 118.748 133.957 119.507 132.387C120.879 129.548 121.473 127.351 121.288 125.798C121.187 124.942 120.94 124.169 120.549 123.477C120.366 123.155 120.152 122.85 119.906 122.563C119.872 122.523 119.838 122.484 119.802 122.445C119.172 121.746 118.375 121.198 117.412 120.799C117.076 120.659 116.733 120.54 116.385 120.442C115.196 120.106 113.939 120.011 112.614 120.156L110.831 120.35L110.831 122.144C110.831 122.233 110.786 122.328 110.696 122.428C110.511 122.634 110.144 122.737 109.596 122.737C109.15 122.737 107.761 122.142 105.431 120.951C102.515 119.46 100.195 118.428 98.4691 117.855C95.3459 116.818 92.4781 116.509 89.8658 116.927C86.8046 117.418 83.1733 118.718 78.9719 120.826C77.1563 121.738 75.4482 122.678 73.8476 123.649L73.8476 120.144L65.5336 120.144L65.5336 124.737ZM73.8476 126.012C73.071 126.501 72.3947 126.95 71.8476 127.33L71.8476 122.144L67.5336 122.144L67.5336 140.945L71.3084 140.945C72.3869 137.271 75.7303 130.572 80.4757 133.165C86.4075 136.407 85.329 136.407 90.7216 137.703C92.7142 138.183 94.5535 138.311 96.0799 138.268C97.8582 138.219 99.2119 137.936 99.889 137.703C99.043 138.354 98.0149 139.21 96.8859 140.234C92.0175 144.646 85.2732 152.168 83.172 159.746C81.0759 167.307 79.7813 173.676 79.1738 177.203C79.0311 178.031 78.9263 178.703 78.858 179.196L80.8708 179.245L103.237 179.794L105.282 179.844C105.168 179.254 105.053 178.58 104.941 177.835C103.984 171.486 103.271 160.042 106.36 152.615C108.193 148.207 110.903 143.565 113.371 139.336C116.712 133.612 119.612 128.644 119.302 126.034C118.99 123.408 116.779 122.433 114.831 122.176C114.739 122.163 114.647 122.153 114.557 122.144C113.913 122.08 113.311 122.091 112.831 122.144C112.831 123.008 112.184 124.737 109.596 124.737C108.445 124.737 106.681 123.835 104.521 122.731C100.607 120.731 95.3949 118.067 90.1824 118.902C84.7479 119.773 77.9189 123.449 73.8476 126.012Z" opacity="0" fill="rgb(52,29,26)" fill-rule="evenodd" />
			</g>
			<rect id="input" width="82.906754" height="145.056488" x="50.213257" y="77.416626" rx="12.500000" stroke="rgb(52,29,26)" stroke-width="3" data-pixso-skip-parse="true" />
		</g>
		<g filter="url(#filter_2)">
			<g id="input" clip-path="url(#clipPath_1)" customFrame="url(#clipPath_1)">
				<rect id="input" width="78.427017" height="142.056488" x="149.373291" y="78.916626" rx="11.000000" fill="rgb(246.5,246.5,246.5)" />
				<rect id="input" width="81.427017" height="145.056488" x="147.873291" y="77.416626" rx="12.500000" stroke="rgb(52,29,26)" stroke-width="3" />
				<rect id="Rectangle 1297" width="170.417130" height="32.928581" x="96.682190" y="193.423462" fill="rgb(226.312,226.312,226.312)" />
				<rect id="Rectangle 1298" width="170.417130" height="32.928581" x="97.014099" y="73.691772" fill="rgb(226.312,226.312,226.312)" />
				<path id="Vector 25" d="M164.846 21.0849L164.846 4.87695L164.846 2.28368L169.16 2.28368L169.16 7.47031C172.575 5.09312 181.024 0.0794091 187.495 -0.957901C195.584 -2.25454 203.672 4.87695 206.908 4.87695C209.496 4.87695 210.144 3.1481 210.144 2.28368C212.121 2.06757 216.183 2.54301 216.615 6.17359C217.154 10.7118 207.986 22.3816 203.672 32.7547C200.221 41.0531 201.515 54.3653 202.594 59.984L176.17 59.3357C176.53 56.7424 177.896 49.222 180.484 39.8862C183.073 30.5504 192.708 21.301 197.201 17.8433C195.943 18.2755 192.348 18.8806 188.034 17.8433C182.641 16.5467 183.72 16.5467 177.788 13.3051C173.043 10.7118 169.699 17.4111 168.621 21.0849L164.846 21.0849Z" fill="rgb(156,29,40)" fill-rule="evenodd" />
				<path id="Vector 25" d="M162.846 4.87695L162.846 23.0849L170.118 23.0849L170.54 21.6483C170.818 20.7003 171.184 19.7617 171.638 18.8324C172.167 17.7483 172.736 16.8549 173.343 16.1525C173.955 15.4437 174.547 14.9976 175.118 14.814C175.203 14.7865 175.29 14.7656 175.378 14.7512C175.832 14.6769 176.316 14.7799 176.829 15.0601C177.818 15.6004 178.93 16.2306 180.166 16.9506C181.533 17.7468 182.567 18.283 183.269 18.5592C184.119 18.8939 185.552 19.3034 187.566 19.7879C188.803 20.0852 190.042 20.2772 191.283 20.3637C189.611 21.9801 188.049 23.6496 186.599 25.3722C182.458 30.2884 179.778 34.9483 178.557 39.3518C177.403 43.5155 176.395 47.6406 175.534 51.7272C174.894 54.7694 174.445 57.2141 174.189 59.0611L173.882 61.2802L205.026 62.0443L204.558 59.607C203.832 55.8261 203.458 51.745 203.434 47.3636C203.404 41.5522 204.098 36.9386 205.519 33.5227C206.304 31.6345 207.364 29.4609 208.698 27.0018C209.498 25.5269 210.736 23.3542 212.411 20.4838C214.591 16.7488 216.06 14.0966 216.819 12.5272C218.191 9.68787 218.785 7.49135 218.601 5.93759C218.499 5.08204 218.252 4.30851 217.861 3.61699C217.678 3.29448 217.464 2.98981 217.219 2.70298C217.185 2.66312 217.15 2.62373 217.115 2.5848C216.484 1.88622 215.687 1.33746 214.724 0.938504C214.388 0.799076 214.046 0.680228 213.698 0.581961C212.508 0.246181 211.251 0.1507 209.926 0.295516L208.144 0.490357L208.144 2.28368C208.144 2.37304 208.099 2.46779 208.009 2.56793C207.824 2.77394 207.457 2.87695 206.908 2.87695C206.462 2.87695 205.074 2.28145 202.744 1.09044C199.828 -0.400005 197.507 -1.43178 195.782 -2.00487C192.658 -3.04217 189.791 -3.35145 187.178 -2.93269C184.117 -2.44198 180.486 -1.14233 176.284 0.966243C174.469 1.87746 172.761 2.8184 171.16 3.78906L171.16 0.283678L162.846 0.283678L162.846 4.87695ZM171.16 6.15208C170.383 6.64102 169.707 7.0895 169.16 7.47031L169.16 2.28368L164.846 2.28368L164.846 21.0849L168.621 21.0849C169.699 17.4111 173.043 10.7118 177.788 13.3051C183.72 16.5467 182.641 16.5467 188.034 17.8433C190.027 18.3224 191.866 18.4512 193.392 18.4084C195.171 18.3585 196.524 18.0759 197.201 17.8433C196.355 18.4942 195.327 19.3503 194.198 20.3736C189.33 24.7864 182.586 32.3078 180.484 39.8862C178.388 47.4464 177.094 53.8162 176.486 57.3429C176.343 58.1711 176.239 58.8425 176.17 59.3357L178.183 59.3851L200.549 59.9339L202.594 59.984C202.481 59.3943 202.365 58.7197 202.253 57.9751C201.296 51.6258 200.583 40.1821 203.672 32.7547C205.506 28.3469 208.215 23.705 210.684 19.4756C214.025 13.7517 216.925 8.78341 216.615 6.17359C216.303 3.54791 214.091 2.57248 212.143 2.31541C212.051 2.30326 211.96 2.29272 211.869 2.28368C211.226 2.21952 210.623 2.23125 210.144 2.28368C210.144 3.1481 209.496 4.87695 206.908 4.87695C205.757 4.87695 203.993 3.97519 201.834 2.8713C197.92 0.87083 192.707 -1.79346 187.495 -0.957901C182.06 -0.0867627 175.231 3.58882 171.16 6.15208Z" fill="rgb(52,29,26)" fill-rule="evenodd" />
				<path id="Vector 26" d="M165.194 140.945L165.194 124.737L165.194 122.144L169.508 122.144L169.508 127.33C172.923 124.953 181.371 119.94 187.842 118.902C195.931 117.606 204.02 124.737 207.256 124.737C209.844 124.737 210.491 123.008 210.491 122.144C212.468 121.928 216.531 122.403 216.962 126.034C217.501 130.572 208.334 142.242 204.02 152.615C200.569 160.913 201.863 174.225 202.942 179.844L176.518 179.196C176.878 176.603 178.244 169.082 180.832 159.746C183.42 150.41 193.055 141.161 197.549 137.703C196.291 138.136 192.696 138.741 188.382 137.703C182.989 136.407 184.068 136.407 178.136 133.165C173.39 130.572 170.047 137.271 168.968 140.945L165.194 140.945Z" opacity="0" fill="rgb(156,29,40)" fill-rule="evenodd" />
				<path id="Vector 26" d="M163.194 124.737L163.194 142.945L170.466 142.945L170.887 141.508C171.166 140.56 171.532 139.622 171.986 138.693C172.515 137.608 173.083 136.715 173.69 136.013C174.303 135.304 174.894 134.858 175.465 134.674C175.551 134.647 175.637 134.626 175.725 134.611C176.18 134.537 176.664 134.64 177.177 134.92C178.165 135.461 179.278 136.091 180.514 136.811C181.88 137.607 182.915 138.143 183.616 138.419C184.467 138.754 185.899 139.164 187.914 139.648C189.151 139.945 190.39 140.137 191.631 140.224C189.958 141.84 188.397 143.51 186.946 145.232C182.806 150.149 180.126 154.808 178.905 159.212C177.75 163.376 176.743 167.501 175.882 171.587C175.241 174.63 174.793 177.074 174.537 178.921L174.229 181.14L205.374 181.904L204.906 179.467C204.18 175.686 203.805 171.605 203.782 167.224C203.751 161.412 204.446 156.799 205.867 153.383C206.652 151.495 207.712 149.321 209.045 146.862C209.845 145.387 211.083 143.214 212.759 140.344C214.939 136.609 216.408 133.957 217.167 132.387C218.539 129.548 219.133 127.351 218.948 125.798C218.847 124.942 218.6 124.169 218.209 123.477C218.026 123.155 217.812 122.85 217.566 122.563C217.532 122.523 217.498 122.484 217.462 122.445C216.832 121.746 216.035 121.198 215.072 120.799C214.736 120.659 214.393 120.54 214.045 120.442C212.856 120.106 211.599 120.011 210.274 120.156L208.491 120.35L208.491 122.144C208.491 122.233 208.446 122.328 208.356 122.428C208.171 122.634 207.804 122.737 207.256 122.737C206.81 122.737 205.422 122.142 203.091 120.951C200.175 119.46 197.855 118.428 196.129 117.855C193.006 116.818 190.138 116.509 187.526 116.927C184.465 117.418 180.833 118.718 176.632 120.826C174.816 121.738 173.108 122.679 171.508 123.649L171.508 120.144L163.194 120.144L163.194 124.737ZM171.508 126.012C170.731 126.501 170.055 126.95 169.508 127.33L169.508 122.144L165.194 122.144L165.194 140.945L168.968 140.945C170.047 137.271 173.39 130.572 178.136 133.165C184.068 136.407 182.989 136.407 188.382 137.703C190.374 138.183 192.214 138.311 193.74 138.268C195.518 138.219 196.872 137.936 197.549 137.703C196.703 138.354 195.675 139.21 194.546 140.234C189.678 144.646 182.933 152.168 180.832 159.746C178.736 167.307 177.441 173.676 176.834 177.203C176.691 178.031 176.586 178.703 176.518 179.196L178.531 179.245L200.897 179.794L202.942 179.844C202.828 179.254 202.713 178.58 202.601 177.835C201.644 171.486 200.931 160.042 204.02 152.615C205.853 148.207 208.563 143.565 211.031 139.336C214.372 133.612 217.272 128.644 216.962 126.034C216.65 123.408 214.439 122.433 212.491 122.176C212.399 122.163 212.307 122.153 212.217 122.144C211.573 122.08 210.971 122.091 210.491 122.144C210.491 123.008 209.844 124.737 207.256 124.737C206.105 124.737 204.341 123.835 202.181 122.731C198.267 120.731 193.055 118.067 187.842 118.902C182.408 119.773 175.579 123.449 171.508 126.012Z" opacity="0" fill="rgb(52,29,26)" fill-rule="evenodd" />
			</g>
			<rect id="input" width="81.427017" height="145.056488" x="147.873291" y="77.416626" rx="12.500000" stroke="rgb(52,29,26)" stroke-width="3" data-pixso-skip-parse="true" />
		</g>
		<g filter="url(#filter_3)">
			<g id="input" clip-path="url(#clipPath_2)" customFrame="url(#clipPath_2)">
				<rect id="input" width="79.906754" height="142.056488" x="245.557617" y="78.916626" rx="11.000000" fill="rgb(246.5,246.5,246.5)" />
				<rect id="input" width="82.906754" height="145.056488" x="244.057617" y="77.416626" rx="12.500000" stroke="rgb(52,29,26)" stroke-width="3" />
				<rect id="Rectangle 1297" width="173.632477" height="32.928581" x="191.872314" y="193.423462" fill="rgb(226.312,226.312,226.312)" />
				<rect id="Rectangle 1298" width="173.632477" height="32.928581" x="191.872314" y="73.691772" fill="rgb(226.312,226.312,226.312)" />
				<path id="Vector 25" d="M261.378 21.0849L261.378 4.87695L261.378 2.28368L265.692 2.28368L265.692 7.47031C269.107 5.09312 277.556 0.0794091 284.027 -0.957901C292.116 -2.25454 300.204 4.87695 303.44 4.87695C306.028 4.87695 306.675 3.1481 306.675 2.28368C308.653 2.06757 312.715 2.54301 313.147 6.17359C313.686 10.7118 304.518 22.3816 300.204 32.7547C296.753 41.0531 298.047 54.3653 299.126 59.984L272.702 59.3357C273.062 56.7424 274.428 49.222 277.016 39.8862C279.605 30.5504 289.24 21.301 293.733 17.8433C292.475 18.2755 288.88 18.8806 284.566 17.8433C279.173 16.5467 280.252 16.5467 274.32 13.3051C269.575 10.7118 266.231 17.4111 265.153 21.0849L261.378 21.0849Z" fill="rgb(156,29,40)" fill-rule="evenodd" />
				<path id="Vector 25" d="M259.378 4.87695L259.378 23.0849L266.65 23.0849L267.072 21.6483C267.35 20.7003 267.716 19.7617 268.17 18.8324C268.699 17.7483 269.268 16.8549 269.875 16.1525C270.487 15.4437 271.079 14.9976 271.65 14.814C271.735 14.7865 271.822 14.7656 271.91 14.7512C272.364 14.6769 272.848 14.7799 273.361 15.0601C274.35 15.6004 275.462 16.2306 276.698 16.9506C278.065 17.7468 279.099 18.283 279.801 18.5592C280.651 18.8939 282.084 19.3034 284.098 19.7879C285.335 20.0852 286.574 20.2772 287.815 20.3637C286.143 21.98 284.581 23.6496 283.131 25.3722C278.99 30.2884 276.31 34.9483 275.089 39.3518C273.935 43.5155 272.927 47.6406 272.066 51.7272C271.426 54.7694 270.977 57.2141 270.721 59.0611L270.414 61.2802L301.558 62.0443L301.09 59.607C300.364 55.8261 299.99 51.745 299.966 47.3636C299.936 41.5522 300.63 36.9386 302.051 33.5227C302.836 31.6345 303.896 29.4609 305.23 27.0018C306.03 25.5268 307.268 23.3541 308.943 20.4838C311.123 16.7488 312.592 14.0965 313.351 12.5272C314.723 9.68787 315.317 7.49135 315.133 5.93759C315.031 5.08204 314.784 4.30851 314.393 3.61699C314.21 3.29448 313.996 2.98981 313.751 2.70298C313.717 2.66312 313.682 2.62371 313.647 2.58478C313.016 1.88621 312.219 1.33745 311.256 0.938504C310.92 0.799083 310.578 0.68024 310.23 0.581975C309.04 0.246184 307.783 0.150698 306.458 0.295516L304.675 0.490357L304.675 2.28368C304.675 2.37303 304.63 2.46778 304.541 2.56793C304.355 2.77394 303.989 2.87695 303.44 2.87695C302.994 2.87695 301.606 2.28145 299.276 1.09045C296.36 -0.400005 294.039 -1.43178 292.314 -2.00487C289.19 -3.04217 286.322 -3.35145 283.71 -2.93269C280.649 -2.44198 277.018 -1.14233 272.816 0.966243C271.001 1.87746 269.293 2.81839 267.692 3.78906L267.692 0.283678L259.378 0.283678L259.378 4.87695ZM267.692 6.15208C266.915 6.64102 266.239 7.0895 265.692 7.47031L265.692 2.28368L261.378 2.28368L261.378 21.0849L265.153 21.0849C266.231 17.4111 269.575 10.7118 274.32 13.3051C280.252 16.5467 279.173 16.5467 284.566 17.8433C286.559 18.3224 288.398 18.4512 289.924 18.4084C291.703 18.3585 293.056 18.0759 293.733 17.8433C292.887 18.4942 291.859 19.3503 290.73 20.3736C285.862 24.7864 279.118 32.3078 277.016 39.8862C274.92 47.4464 273.626 53.8162 273.018 57.3429C272.875 58.1711 272.771 58.8425 272.702 59.3357L274.715 59.3851L297.081 59.9339L299.126 59.984C299.013 59.3943 298.897 58.7197 298.785 57.9751C297.828 51.6258 297.115 40.1821 300.204 32.7547C302.038 28.3469 304.747 23.705 307.216 19.4756C310.557 13.7517 313.457 8.78341 313.147 6.17359C312.835 3.54791 310.623 2.57248 308.675 2.31541C308.583 2.30326 308.492 2.29272 308.401 2.28368C307.758 2.21952 307.155 2.23125 306.675 2.28368C306.675 3.1481 306.028 4.87695 303.44 4.87695C302.289 4.87695 300.525 3.97519 298.365 2.8713C294.452 0.87083 289.239 -1.79346 284.027 -0.957901C278.592 -0.0867627 271.763 3.58882 267.692 6.15208Z" fill="rgb(52,29,26)" fill-rule="evenodd" />
				<path id="Vector 26" d="M261.378 140.945L261.378 124.737L261.378 122.144L265.692 122.144L265.692 127.33C269.107 124.953 277.556 119.94 284.027 118.902C292.116 117.606 300.204 124.737 303.44 124.737C306.028 124.737 306.675 123.008 306.675 122.144C308.653 121.928 312.715 122.403 313.147 126.034C313.686 130.572 304.518 142.242 300.204 152.615C296.753 160.913 298.047 174.225 299.126 179.844L272.702 179.196C273.062 176.603 274.428 169.082 277.016 159.746C279.605 150.41 289.24 141.161 293.733 137.703C292.475 138.136 288.88 138.741 284.566 137.703C279.173 136.407 280.252 136.407 274.32 133.165C269.575 130.572 266.231 137.271 265.153 140.945L261.378 140.945Z" opacity="0" fill="rgb(156,29,40)" fill-rule="evenodd" />
				<path id="Vector 26" d="M259.378 124.737L259.378 142.945L266.65 142.945L267.072 141.508C267.35 140.56 267.716 139.622 268.17 138.693C268.699 137.608 269.268 136.715 269.875 136.013C270.487 135.304 271.079 134.858 271.65 134.674C271.735 134.647 271.822 134.626 271.91 134.611C272.364 134.537 272.848 134.64 273.361 134.92C274.35 135.461 275.462 136.091 276.698 136.811C278.065 137.607 279.099 138.143 279.801 138.419C280.651 138.754 282.084 139.164 284.098 139.648C285.335 139.945 286.574 140.137 287.815 140.224C286.143 141.84 284.581 143.51 283.131 145.232C278.99 150.149 276.31 154.808 275.089 159.212C273.935 163.376 272.927 167.501 272.066 171.587C271.426 174.63 270.977 177.074 270.721 178.921L270.414 181.14L301.558 181.904L301.09 179.467C300.364 175.686 299.99 171.605 299.966 167.224C299.936 161.412 300.63 156.799 302.051 153.383C302.836 151.495 303.896 149.321 305.23 146.862C306.03 145.387 307.268 143.214 308.943 140.344C311.123 136.609 312.592 133.957 313.351 132.387C314.723 129.548 315.317 127.351 315.133 125.798C315.031 124.942 314.784 124.169 314.393 123.477C314.21 123.155 313.996 122.85 313.751 122.563C313.717 122.523 313.682 122.484 313.647 122.445C313.016 121.746 312.219 121.198 311.256 120.799C310.92 120.659 310.578 120.54 310.23 120.442C309.04 120.106 307.783 120.011 306.458 120.156L304.675 120.35L304.675 122.144C304.675 122.233 304.63 122.328 304.541 122.428C304.355 122.634 303.989 122.737 303.44 122.737C302.994 122.737 301.606 122.142 299.276 120.951C296.36 119.46 294.039 118.428 292.314 117.855C289.19 116.818 286.322 116.509 283.71 116.927C280.649 117.418 277.018 118.718 272.816 120.826C271.001 121.738 269.293 122.678 267.692 123.649L267.692 120.144L259.378 120.144L259.378 124.737ZM267.692 126.012C266.915 126.501 266.239 126.95 265.692 127.33L265.692 122.144L261.378 122.144L261.378 140.945L265.153 140.945C266.231 137.271 269.575 130.572 274.32 133.165C280.252 136.407 279.173 136.407 284.566 137.703C286.559 138.183 288.398 138.311 289.924 138.268C291.703 138.219 293.056 137.936 293.733 137.703C292.887 138.354 291.859 139.21 290.73 140.234C285.862 144.646 279.118 152.168 277.016 159.746C274.92 167.307 273.626 173.676 273.018 177.203C272.875 178.031 272.771 178.703 272.702 179.196L274.715 179.245L297.081 179.794L299.126 179.844C299.013 179.254 298.897 178.58 298.785 177.835C297.828 171.486 297.115 160.042 300.204 152.615C302.038 148.207 304.747 143.565 307.216 139.336C310.557 133.612 313.457 128.644 313.147 126.034C312.835 123.408 310.623 122.433 308.675 122.176C308.583 122.163 308.492 122.153 308.401 122.144C307.758 122.08 307.155 122.091 306.675 122.144C306.675 123.008 306.028 124.737 303.44 124.737C302.289 124.737 300.525 123.835 298.365 122.731C294.452 120.731 289.239 118.067 284.027 118.902C278.592 119.773 271.763 123.449 267.692 126.012Z" opacity="0" fill="rgb(52,29,26)" fill-rule="evenodd" />
			</g>
			<rect id="input" width="82.906754" height="145.056488" x="244.057617" y="77.416626" rx="12.500000" stroke="rgb(52,29,26)" stroke-width="3" data-pixso-skip-parse="true" />
		</g>
		<g filter="url(#filter_4)">
			<g id="input" clip-path="url(#clipPath_3)" customFrame="url(#clipPath_3)">
				<rect id="input" width="79.906754" height="142.056488" x="343.225464" y="78.916626" rx="11.000000" fill="rgb(246.5,246.5,246.5)" />
				<rect id="input" width="82.906754" height="145.056488" x="341.725464" y="77.416626" rx="12.500000" stroke="rgb(52,29,26)" stroke-width="3" />
				<rect id="Rectangle 1297" width="173.632477" height="32.928581" x="289.540161" y="193.423462" fill="rgb(226.312,226.312,226.312)" />
				<rect id="Rectangle 1298" width="173.632477" height="32.928581" x="289.540161" y="73.691772" fill="rgb(226.312,226.312,226.312)" />
				<path id="Vector 25" d="M359.046 21.0849L359.046 4.87695L359.046 2.28368L363.36 2.28368L363.36 7.47031C366.775 5.09312 375.223 0.0794091 381.695 -0.957901C389.783 -2.25454 397.872 4.87695 401.108 4.87695C403.696 4.87695 404.343 3.1481 404.343 2.28368C406.321 2.06757 410.383 2.54301 410.814 6.17359C411.354 10.7118 402.186 22.3816 397.872 32.7547C394.421 41.0531 395.715 54.3653 396.794 59.984L370.37 59.3357C370.73 56.7424 372.096 49.222 374.684 39.8862C377.273 30.5504 386.907 21.301 391.401 17.8433C390.143 18.2755 386.548 18.8806 382.234 17.8433C376.841 16.5467 377.92 16.5467 371.988 13.3051C367.242 10.7118 363.899 17.4111 362.821 21.0849L359.046 21.0849Z" fill="rgb(156,29,40)" fill-rule="evenodd" />
				<path id="Vector 25" d="M357.046 4.87695L357.046 23.0849L364.318 23.0849L364.74 21.6483C365.018 20.7003 365.384 19.7617 365.838 18.8324C366.367 17.7483 366.935 16.8549 367.542 16.1525C368.155 15.4437 368.746 14.9976 369.317 14.814C369.403 14.7865 369.49 14.7656 369.577 14.7512C370.032 14.6769 370.516 14.7799 371.029 15.0601C372.018 15.6004 373.13 16.2306 374.366 16.9506C375.733 17.7468 376.767 18.283 377.469 18.5592C378.319 18.8939 379.751 19.3034 381.766 19.7879C383.003 20.0852 384.242 20.2772 385.483 20.3637C383.811 21.98 382.249 23.6496 380.798 25.3722C376.658 30.2884 373.978 34.9483 372.757 39.3518C371.603 43.5155 370.595 47.6406 369.734 51.7272C369.094 54.7694 368.645 57.2141 368.389 59.0611L368.081 61.2802L399.226 62.0443L398.758 59.607C398.032 55.8261 397.658 51.745 397.634 47.3636C397.603 41.5522 398.298 36.9386 399.719 33.5227C400.504 31.6345 401.564 29.4609 402.898 27.0018C403.698 25.5268 404.935 23.3541 406.611 20.4838C408.791 16.7488 410.26 14.0965 411.019 12.5272C412.391 9.68787 412.985 7.49135 412.8 5.93759C412.699 5.08204 412.452 4.30851 412.061 3.61699C411.878 3.29448 411.664 2.98981 411.419 2.70298C411.384 2.66312 411.35 2.62371 411.315 2.58478C410.684 1.88621 409.887 1.33745 408.924 0.938504C408.588 0.799083 408.246 0.68024 407.898 0.581975C406.708 0.246184 405.451 0.150698 404.126 0.295516L402.343 0.490357L402.343 2.28368C402.343 2.37303 402.298 2.46778 402.208 2.56793C402.023 2.77394 401.656 2.87695 401.108 2.87695C400.662 2.87695 399.274 2.28145 396.944 1.09045C394.028 -0.400005 391.707 -1.43178 389.981 -2.00487C386.858 -3.04217 383.99 -3.35145 381.378 -2.93269C378.317 -2.44198 374.686 -1.14233 370.484 0.966243C368.669 1.87746 366.96 2.81839 365.36 3.78906L365.36 0.283678L357.046 0.283678L357.046 4.87695ZM365.36 6.15208C364.583 6.64102 363.907 7.0895 363.36 7.47031L363.36 2.28368L359.046 2.28368L359.046 21.0849L362.821 21.0849C363.899 17.4111 367.242 10.7118 371.988 13.3051C377.92 16.5467 376.841 16.5467 382.234 17.8433C384.226 18.3224 386.066 18.4512 387.592 18.4084C389.37 18.3585 390.724 18.0759 391.401 17.8433C390.555 18.4942 389.527 19.3503 388.398 20.3736C383.53 24.7864 376.785 32.3078 374.684 39.8862C372.588 47.4464 371.294 53.8162 370.686 57.3429C370.543 58.1711 370.439 58.8425 370.37 59.3357L372.383 59.3851L394.749 59.9339L396.794 59.984C396.681 59.3943 396.565 58.7197 396.453 57.9751C395.496 51.6258 394.783 40.1821 397.872 32.7547C399.705 28.3469 402.415 23.705 404.884 19.4756C408.225 13.7517 411.125 8.78341 410.814 6.17359C410.502 3.54791 408.291 2.57248 406.343 2.31541C406.251 2.30326 406.16 2.29272 406.069 2.28368C405.425 2.21952 404.823 2.23125 404.343 2.28368C404.343 3.1481 403.696 4.87695 401.108 4.87695C399.957 4.87695 398.193 3.97519 396.033 2.8713C392.12 0.87083 386.907 -1.79346 381.695 -0.957901C376.26 -0.0867627 369.431 3.58882 365.36 6.15208Z" fill="rgb(52,29,26)" fill-rule="evenodd" />
				<path id="Vector 26" d="M359.046 140.945L359.046 124.737L359.046 122.144L363.36 122.144L363.36 127.33C366.775 124.953 375.223 119.94 381.695 118.902C389.783 117.606 397.872 124.737 401.108 124.737C403.696 124.737 404.343 123.008 404.343 122.144C406.321 121.928 410.383 122.403 410.814 126.034C411.354 130.572 402.186 142.242 397.872 152.615C394.421 160.913 395.715 174.225 396.794 179.844L370.37 179.196C370.73 176.603 372.096 169.082 374.684 159.746C377.273 150.41 386.907 141.161 391.401 137.703C390.143 138.136 386.548 138.741 382.234 137.703C376.841 136.407 377.92 136.407 371.988 133.165C367.242 130.572 363.899 137.271 362.821 140.945L359.046 140.945Z" opacity="0" fill="rgb(156,29,40)" fill-rule="evenodd" />
				<path id="Vector 26" d="M357.046 124.737L357.046 142.945L364.318 142.945L364.74 141.508C365.018 140.56 365.384 139.622 365.838 138.693C366.367 137.608 366.935 136.715 367.542 136.013C368.155 135.304 368.746 134.858 369.317 134.674C369.403 134.647 369.49 134.626 369.577 134.611C370.032 134.537 370.516 134.64 371.029 134.92C372.018 135.461 373.13 136.091 374.366 136.811C375.733 137.607 376.767 138.143 377.469 138.419C378.319 138.754 379.751 139.164 381.766 139.648C383.003 139.945 384.242 140.137 385.483 140.224C383.811 141.84 382.249 143.51 380.798 145.232C376.658 150.149 373.978 154.808 372.757 159.212C371.603 163.376 370.595 167.501 369.734 171.587C369.094 174.63 368.645 177.074 368.389 178.921L368.081 181.14L399.226 181.904L398.758 179.467C398.032 175.686 397.658 171.605 397.634 167.224C397.603 161.412 398.298 156.799 399.719 153.383C400.504 151.495 401.564 149.321 402.898 146.862C403.698 145.387 404.935 143.214 406.611 140.344C408.791 136.609 410.26 133.957 411.019 132.387C412.391 129.548 412.985 127.351 412.8 125.798C412.699 124.942 412.452 124.169 412.061 123.477C411.878 123.155 411.664 122.85 411.419 122.563C411.384 122.523 411.35 122.484 411.315 122.445C410.684 121.746 409.887 121.198 408.924 120.799C408.588 120.659 408.246 120.54 407.898 120.442C406.708 120.106 405.451 120.011 404.126 120.156L402.343 120.35L402.343 122.144C402.343 122.233 402.298 122.328 402.208 122.428C402.023 122.634 401.656 122.737 401.108 122.737C400.662 122.737 399.274 122.142 396.944 120.951C394.028 119.46 391.707 118.428 389.981 117.855C386.858 116.818 383.99 116.509 381.378 116.927C378.317 117.418 374.686 118.718 370.484 120.826C368.669 121.738 366.96 122.678 365.36 123.649L365.36 120.144L357.046 120.144L357.046 124.737ZM365.36 126.012C364.583 126.501 363.907 126.95 363.36 127.33L363.36 122.144L359.046 122.144L359.046 140.945L362.821 140.945C363.899 137.271 367.242 130.572 371.988 133.165C377.92 136.407 376.841 136.407 382.234 137.703C384.226 138.183 386.066 138.311 387.592 138.268C389.37 138.219 390.724 137.936 391.401 137.703C390.555 138.354 389.527 139.21 388.398 140.234C383.53 144.646 376.785 152.168 374.684 159.746C372.588 167.307 371.294 173.676 370.686 177.203C370.543 178.031 370.439 178.703 370.37 179.196L372.383 179.245L394.749 179.794L396.794 179.844C396.681 179.254 396.565 178.58 396.453 177.835C395.496 171.486 394.783 160.042 397.872 152.615C399.705 148.207 402.415 143.565 404.884 139.336C408.225 133.612 411.125 128.644 410.814 126.034C410.502 123.408 408.291 122.433 406.343 122.176C406.251 122.163 406.16 122.153 406.069 122.144C405.425 122.08 404.823 122.091 404.343 122.144C404.343 123.008 403.696 124.737 401.108 124.737C399.957 124.737 398.193 123.835 396.033 122.731C392.12 120.731 386.907 118.067 381.695 118.902C376.26 119.773 369.431 123.449 365.36 126.012Z" opacity="0" fill="rgb(52,29,26)" fill-rule="evenodd" />
			</g>
			<rect id="input" width="82.906754" height="145.056488" x="341.725464" y="77.416626" rx="12.500000" stroke="rgb(52,29,26)" stroke-width="3" data-pixso-skip-parse="true" />
		</g>
		<path id="Subtract" d="M1.79218 5.17446e-13C0.621153 3.55622e-13 -0.266277 1.06813 0.0731512 2.18889C0.114094 2.32408 0.156389 2.45869 0.20003 2.59269C0.886525 4.70057 1.89274 6.61584 3.16121 8.22914C4.42969 9.84245 5.93559 11.1222 7.59293 11.9953C9.25028 12.8684 11.0266 13.3178 12.8205 13.3178C14.6144 13.3178 16.3907 12.8684 18.0481 11.9953C19.7054 11.1222 21.2113 9.84245 22.4798 8.22914C23.7483 6.61584 24.7545 4.70057 25.441 2.59269C25.4846 2.45869 25.5269 2.32408 25.5679 2.18889C25.9073 1.06813 25.0199 -1.61823e-13 23.8488 1.83873e-26C22.9771 1.20463e-13 22.232 0.606658 21.9649 1.43645C21.9591 1.45463 21.9532 1.47278 21.9473 1.49092C21.38 3.2327 20.5639 4.7663 19.5782 6.01999C18.593 7.27292 17.4737 8.20296 16.3165 8.81258C15.1654 9.41901 13.981 9.70767 12.8205 9.70767C11.66 9.70767 10.4756 9.41901 9.3245 8.81258C8.16732 8.20296 7.04798 7.27292 6.06285 6.01999C5.07711 4.7663 4.26099 3.2327 3.69372 1.49092C3.68782 1.47278 3.68194 1.45463 3.67609 1.43645C3.40898 0.606659 2.66391 6.37909e-13 1.79218 5.17446e-13Z" fill="rgb(52,29,26)" fill-rule="evenodd" transform="matrix(0.999525,-0.0308109,0.0308109,0.999525,224.263,43.7786)" />
		<g id="Group 205">
			<path id="Vector 92" d="M109.424 33.4565L115.542 46.3735L124.154 46.3735L117.808 33.4565L109.424 33.4565Z" fill="rgb(52,29,26)" fill-rule="evenodd" />
			<ellipse id="Ellipse 53" rx="16.651232" ry="16.250978" cx="113.066086" cy="24.4418964" fill="rgb(165,223,247)" />
			<ellipse id="Ellipse 53" rx="15.651232" ry="15.250978" cx="113.066086" cy="24.4418964" stroke="rgb(52,29,26)" stroke-width="2" />
			<path id="Vector 94" d="M97.7097 6.90628L89.0638 0.501953" stroke="rgb(52,29,26)" stroke-linecap="round" stroke-width="1" />
			<path id="Vector 95" d="M8.64584 6.40432L0 0" stroke="rgb(52,29,26)" stroke-linecap="round" stroke-width="1" transform="matrix(0.88101,-0.473098,0.473098,0.88101,81.4434,17.9175)" />
			<path id="Vector 96" d="M8.64584 6.40432L0 0" stroke="rgb(52,29,26)" stroke-linecap="round" stroke-width="1" transform="matrix(0.611019,-0.791616,0.791616,0.611019,83.6236,35.9962)" />
			<ellipse id="Ellipse 64" rx="5.209719" ry="5.210499" cx="114.625488" cy="28.1440926" fill="rgb(52,29,26)" />
		</g>
		<g id="Group 206">
			<path id="Vector 92" d="M0 0L6.11873 12.9161L14.7303 12.9161L8.38493 0L0 0Z" fill="rgb(52,29,26)" fill-rule="evenodd" transform="matrix(-1,-5.55112e-17,-5.55112e-17,1,360.661,34.4601)" />
			<ellipse id="Ellipse 53" rx="16.651690" ry="16.249889" cx="16.6516895" cy="16.2498894" fill="rgb(165,223,247)" transform="matrix(-1,-5.55112e-17,-5.55112e-17,1,373.669,9.19312)" />
			<ellipse id="Ellipse 53" rx="15.651690" ry="15.249889" cx="16.6516895" cy="16.2498894" stroke="rgb(52,29,26)" stroke-width="2" transform="matrix(-1,-5.55112e-17,-5.55112e-17,1,373.669,9.19312)" />
			<path id="Vector 94" d="M8.64607 6.40389L0 0" stroke="rgb(52,29,26)" stroke-linecap="round" stroke-width="1" transform="matrix(-1,-5.55112e-17,-5.55112e-17,1,381.036,1.50659)" />
			<path id="Vector 95" d="M8.64588 6.40403L0 0" stroke="rgb(52,29,26)" stroke-linecap="round" stroke-width="1" transform="matrix(-0.881028,-0.473064,-0.473133,0.880991,388.648,18.9213)" />
			<path id="Vector 96" d="M8.64557 6.40427L0 0" stroke="rgb(52,29,26)" stroke-linecap="round" stroke-width="1" transform="matrix(-0.611055,-0.791588,-0.791644,0.610983,386.461,36.9969)" />
			<ellipse id="Ellipse 68" rx="5.209373" ry="5.210151" cx="354.018585" cy="28.0703812" fill="rgb(52,29,26)" />
		</g>
		<ellipse id="Ellipse 66" rx="22.234852" ry="2.959509" cx="123.992172" cy="54.2999649" fill="rgb(247,64,94)" />
		<ellipse id="Ellipse 67" rx="22.234852" ry="2.959509" cx="345.115234" cy="54.2999649" fill="rgb(247,64,94)" />
		<g id="Group 214">
			<ellipse id="Ellipse 52" rx="185.328049" ry="10.728172" cx="237.283127" cy="285.773956" fill="rgb(177.438,135.644,0)" fill-opacity="0.300000012" />
			<g id="Group 202">
				<path id="Vector 122" d="M137.328 288.665L137.328 263.509L121.126 263.509L121.126 276.3C116.791 273.884 107.013 270.501 102.579 276.3C98.1443 282.099 103.147 286.959 106.203 288.665L137.328 288.665Z" fill="rgb(52,29,26)" fill-rule="evenodd" />
				<path id="Vector 123" d="M36.5055 25.1558L36.5055 0L20.3031 0L20.3031 12.7911C15.9682 10.375 6.18974 6.99247 1.75536 12.7911C-2.67902 18.5897 2.32387 23.4503 5.37961 25.1558L36.5055 25.1558Z" fill="rgb(52,29,26)" fill-rule="evenodd" transform="matrix(-1,0,0,1,355.934,263.509)" />
			</g>
		</g>
		<g id="Group 201" opacity="0">
			<rect id="Rectangle 1301" width="32.556126" height="32.554607" x="466.148438" y="215.220337" rx="16.277304" fill="rgb(238,74,166)" />
			<rect id="Rectangle 1301" width="30.556126" height="30.554607" x="467.148438" y="216.220337" rx="15.277304" stroke="rgb(52,29,26)" stroke-width="2" />
			<rect id="Rectangle 1303" width="21.961727" height="22.776991" x="470.821411" y="217.551025" rx="10.980864" fill="rgb(255,115,184)" />
			<rect id="Rectangle 1302" width="9.340731" height="9.321301" x="473.653320" y="219.764771" rx="4.660650" fill="rgb(255,228.863,241.745)" />
		</g>
		<g id="Group 164">
			<path id="Vector 124" d="M7.4512 0C3.01252 6.16539 -4.08921 20.5679 3.01337 28.8546C11.8916 39.213 27.0598 28.8546 34.8285 28.8546C41.0435 28.8546 45.0635 30.8276 46.2967 31.8141" stroke="rgb(52,29,26)" stroke-linecap="round" stroke-linejoin="round" stroke-width="2" transform="matrix(0.998645,-0.0520487,0.0520487,0.998645,12.2565,219.341)" />
		</g>
		<g id="Group 215">
			<path id="Vector 124" d="M7.19991 0C2.91092 6.1105 -3.9513 20.3847 2.91174 28.5977C11.4906 38.8638 26.1472 28.5977 33.654 28.5977C39.6594 28.5977 43.5438 30.5531 44.7353 31.5308" stroke="rgb(52,29,26)" stroke-linecap="round" stroke-linejoin="round" stroke-width="2" transform="matrix(-0.991264,-0.131896,-0.0963283,0.99535,460.047,216.529)" />
		</g>
	</g>
</svg>
