<svg viewBox="0 0 63.2979 65.5968" xmlns="http://www.w3.org/2000/svg" xmlns:xlink="http://www.w3.org/1999/xlink" width="63.297852" height="65.596802" fill="none" customFrame="#000000">
	<g id="Group 216">
		<g id="Group 182">
			<rect id="cheese 9" width="63.297852" height="56.413273" x="0.000000" y="9.183472" rx="16.000000" fill="rgb(81.4406,87.5095,148.75)" />
			<rect id="cheese 8" width="63.297852" height="58.964851" x="0.000000" y="0.000000" rx="16.000000" fill="rgb(254.363,254.42,255)" />
			<rect id="cheese 8" width="61.297852" height="56.964851" x="1.000000" y="1.000000" rx="15.000000" stroke="rgb(52,29,26)" stroke-width="2" />
		</g>
		<path id="-" d="M28.2996 31.6354C27.9829 31.6354 27.7496 31.5687 27.5996 31.4354C27.4662 31.2854 27.3996 31.052 27.3996 30.7354L27.3996 27.3854C27.3996 27.0687 27.4662 26.8437 27.5996 26.7104C27.7496 26.5604 27.9829 26.4854 28.2996 26.4854L34.9996 26.4854C35.3162 26.4854 35.5412 26.5604 35.6746 26.7104C35.8246 26.8437 35.8996 27.0687 35.8996 27.3854L35.8996 30.7354C35.8996 31.052 35.8246 31.2854 35.6746 31.4354C35.5412 31.5687 35.3162 31.6354 34.9996 31.6354L28.2996 31.6354Z" fill="rgb(52,29,26)" fill-rule="nonzero" />
	</g>
</svg>
