<svg viewBox="0 0 63.2979 65.5968" xmlns="http://www.w3.org/2000/svg" xmlns:xlink="http://www.w3.org/1999/xlink" width="63.297852" height="65.596802" fill="none" customFrame="#000000">
	<g id="Group 190">
		<g id="Group 182">
			<rect id="cheese 9" width="63.297852" height="56.413273" x="0.000000" y="9.183472" rx="16.000000" fill="rgb(81.4406,87.5095,148.75)" />
			<rect id="cheese 8" width="63.297852" height="58.964851" x="0.000000" y="0.000000" rx="16.000000" fill="rgb(254.363,254.42,255)" />
			<rect id="cheese 8" width="61.297852" height="56.964851" x="1.000000" y="1.000000" rx="15.000000" stroke="rgb(52,29,26)" stroke-width="2" />
		</g>
		<path id="+" d="M34.0939 35.5854C34.0939 35.902 34.0189 36.1354 33.8689 36.2854C33.7356 36.4187 33.5106 36.4854 33.1939 36.4854L30.0939 36.4854C29.7772 36.4854 29.5439 36.4187 29.3939 36.2854C29.2606 36.1354 29.1939 35.902 29.1939 35.5854L29.1939 31.3854L25.1189 31.3854C24.8022 31.3854 24.5689 31.3187 24.4189 31.1854C24.2856 31.0354 24.2189 30.802 24.2189 30.4854L24.2189 27.6354C24.2189 27.3187 24.2856 27.0937 24.4189 26.9604C24.5689 26.8104 24.8022 26.7354 25.1189 26.7354L29.1939 26.7354L29.1939 22.5354C29.1939 22.2187 29.2606 21.9937 29.3939 21.8604C29.5439 21.7104 29.7772 21.6354 30.0939 21.6354L33.1939 21.6354C33.5106 21.6354 33.7356 21.7104 33.8689 21.8604C34.0189 21.9937 34.0939 22.2187 34.0939 22.5354L34.0939 26.7354L38.1689 26.7354C38.4856 26.7354 38.7106 26.8104 38.8439 26.9604C38.9939 27.0937 39.0689 27.3187 39.0689 27.6354L39.0689 30.4854C39.0689 30.802 38.9939 31.0354 38.8439 31.1854C38.7106 31.3187 38.4856 31.3854 38.1689 31.3854L34.0939 31.3854L34.0939 35.5854Z" fill="rgb(52,29,26)" fill-rule="nonzero" />
	</g>
</svg>
