<svg viewBox="0 0 251.396 161.001" xmlns="http://www.w3.org/2000/svg" xmlns:xlink="http://www.w3.org/1999/xlink" width="251.395996" height="161.000977" fill="none" customFrame="#000000">
	<defs>
		<g id="pixso_custom_effect_14">
			<effect x="0.000000" y="-1.000000" visibility="visible" fill="rgb(0,0,0)" fill-opacity="0.25" effectType="innerShadow" stdDeviation="0" radius="0" />
		</g>
		<filter id="filter_14" width="120.091736" height="37.570679" x="65.061951" y="23.607544" filterUnits="userSpaceOnUse" customEffect="url(#pixso_custom_effect_14)" color-interpolation-filters="sRGB">
			<feFlood flood-opacity="0" result="BackgroundImageFix" />
			<feBlend result="shape" in="SourceGraphic" in2="BackgroundImageFix" mode="normal" />
			<feOffset dx="0.000000" dy="-1.000000" in="SourceAlpha" />
			<feGaussianBlur stdDeviation="0" />
			<feComposite k2="-1" k3="1" in2="SourceAlpha" operator="arithmetic" />
			<feColorMatrix type="matrix" values="0 0 0 0 0 0 0 0 0 0 0 0 0 0 0 0 0 0 0.25 0 " />
			<feBlend result="effect_innerShadow_1" in2="shape" mode="normal" />
		</filter>
	</defs>
	<rect id="spin button pressed" width="251.395935" height="160.000000" x="0.000000" y="1.000977" fill="rgb(255,255,255)" fill-opacity="0" />
	<path id="Subtract" d="M7.77729 85.6687L1.43051 118.457L1.47506 118.474C1.27958 119.357 1.18024 120.249 1.18024 121.148C1.18024 142.443 56.9287 159.705 125.698 159.705C194.467 159.705 250.216 142.443 250.216 121.148C250.216 120.348 250.137 119.554 249.982 118.766L244.86 86.7977L244.734 86.6386C244.599 87.4524 244.421 88.2322 244.204 88.9791C240.208 108.033 188.898 123.106 126.188 123.106C60.8715 123.106 7.92196 106.754 7.92196 86.5832C7.92196 86.3571 7.92861 86.1315 7.94185 85.9064C7.8811 85.8258 7.8262 85.7465 7.77729 85.6687ZM8.22044 83.3933L8.21702 83.3969L8.1505 83.7406C8.17361 83.6253 8.19692 83.5096 8.22044 83.3933Z" fill="rgb(94,109,132)" fill-rule="evenodd" />
	<path id="Subtract (Stroke)" d="M0.0562353 119.324L7.19242 82.4567L7.27708 82.5915L9.03431 77.2835L8.7488 78.146L8.61902 79.4798L8.26467 80.8058L8.61902 80.0973L9.32354 78.146L8.8625 80.7045L8.8625 82.4567L8.8625 83.1337C8.95304 84.49 8.79457 84.1823 8.8625 84.5507L8.8625 85.2997L9.03431 85.9064C9.0227 86.1038 9.10225 86.385 9.10225 86.5832C9.10225 90.959 11.9851 95.4243 17.8696 99.7208C23.7092 103.984 32.2371 107.875 42.8809 111.162C64.1522 117.731 93.6061 121.81 126.188 121.81C157.468 121.81 185.868 118.05 206.912 111.935C217.439 108.877 226.074 105.243 232.299 101.233C238.572 97.1911 242.167 92.9165 243.053 88.6885L243.064 88.636L243.079 88.5846C243.281 87.892 243.447 87.1664 243.573 86.4059L243.864 84.5304L243.864 81.7774L245.966 86.2203L251.141 118.518C251.31 119.385 251.396 120.263 251.396 121.148C251.396 127.137 247.487 132.547 241.085 137.234C234.639 141.953 225.39 146.153 214.066 149.659C191.401 156.677 160.159 161.001 125.698 161.001C91.2368 161.001 59.9944 156.677 37.3302 149.659C26.0062 146.153 16.7566 141.953 10.3106 137.234C3.90884 132.547 0 127.137 0 121.148C0 120.543 0.0402154 119.943 0.119495 119.347L0.0562353 119.324ZM1.47509 118.474C1.27961 119.357 1.18026 120.249 1.18026 121.148C1.18026 142.443 56.9287 159.705 125.698 159.705C194.467 159.705 250.216 142.443 250.216 121.148C250.216 120.348 250.137 119.554 249.982 118.766L244.86 86.7977L244.734 86.6386C244.724 86.702 244.713 86.7652 244.702 86.8282C244.693 86.8764 244.685 86.9245 244.676 86.9725C244.549 87.6663 244.391 88.3349 244.204 88.9791C244.169 89.1434 244.131 89.3074 244.09 89.4711C239.322 108.292 188.357 123.106 126.188 123.106C63.9235 123.106 12.8973 108.247 8.26467 89.3845C8.03759 88.4599 7.92198 87.5257 7.92198 86.5832C7.92198 86.3571 7.92863 86.1315 7.94188 85.9064C7.88112 85.8257 7.82623 85.7465 7.77731 85.6686L1.43054 118.457L1.47509 118.474Z" fill="rgb(52,29,26)" fill-rule="evenodd" />
	<path id="Union" d="M41.8993 59.09L28.6214 65.6278L23.3102 94.5811C23.3932 94.6065 23.4778 94.6324 23.5639 94.6586C23.3957 95.2841 23.3102 95.9156 23.3102 96.5523C23.3102 111.218 68.6884 123.106 124.665 123.106C180.642 123.106 226.02 111.218 226.02 96.5523C226.02 95.9175 225.935 95.2879 225.768 94.6642C225.854 94.636 225.938 94.6083 226.02 94.5811L221.845 65.0161L208.783 59.09L128.49 69.5314L41.8993 59.09Z" opacity="0" fill="rgb(171.062,28.0828,51.522)" fill-rule="evenodd" />
	<path id="Union" d="M41.7241 58.0617L128.485 68.5236L208.937 58.0616L222.758 64.3324L227.127 95.2691L226.929 95.3346Q226.997 95.7873 227.014 96.2418Q227.02 96.3969 227.02 96.5523Q227.02 96.9149 226.989 97.2747Q226.507 102.83 218.582 107.738Q210.761 112.583 196.588 116.296Q182.489 119.99 164.227 122.013Q145.341 124.106 124.665 124.106Q103.989 124.106 85.1031 122.013Q66.8415 119.99 52.743 116.296Q38.5696 112.583 30.7486 107.738Q22.8235 102.83 22.3414 97.2747L22.3414 97.2741Q22.3102 96.9146 22.3102 96.5523Q22.3102 96.3952 22.3162 96.2384L22.3163 96.2381Q22.3335 95.7923 22.3998 95.3484L22.1658 95.2769L27.7285 64.9528L41.4576 58.1929L41.7241 58.0617ZM28.6214 65.6278L41.8993 59.09L128.49 69.5314L208.783 59.09L221.845 65.0161L226.02 94.5811C225.938 94.6083 225.854 94.636 225.768 94.6642C225.935 95.2879 226.02 95.9175 226.02 96.5523C226.02 111.218 180.642 123.106 124.665 123.106C68.6884 123.106 23.3102 111.218 23.3102 96.5523C23.3102 95.9156 23.3957 95.2841 23.5639 94.6586C23.4778 94.6324 23.3932 94.6065 23.3102 94.5811L28.6214 65.6278Z" opacity="0" fill="rgb(52,29,26)" fill-rule="evenodd" />
	<path id="Subtract" d="M7.77448 85.664C11.8828 64.0794 24.017 20.8421 41.4168 11.3659C57.2421 2.74721 99.8547 0.878568 124.528 1.00702C149.923 0.87857 193.782 2.74721 210.07 11.3659C227.978 20.8421 240.558 64.7272 244.786 86.3118C244.645 87.2443 244.45 88.1327 244.204 88.9791C240.208 108.033 188.898 123.106 126.188 123.106C60.8715 123.106 7.92201 106.754 7.92201 86.5831C7.92201 86.3571 7.92866 86.1315 7.9419 85.9064C7.87996 85.8241 7.8241 85.7433 7.77448 85.664ZM224.794 79.1489L224.84 79.3606C224.813 79.3987 224.783 79.4371 224.752 79.4759C222.509 94.5545 178.863 106.588 123.893 106.588C68.9286 106.588 27.5223 96.7864 25.272 81.7095C25.2402 81.6695 25.2107 81.6298 25.1833 81.5904L25.229 81.3746C25.1986 81.0907 25.1833 80.8058 25.1833 80.5198C25.1833 78.9883 25.272 74.8949 25.7735 71.737C30.2345 53.7596 36.8976 26.6137 50.3377 20.011C63.9305 13.3332 101.229 11.8854 122.422 11.9849C125.542 11.9706 128.988 11.9881 132.642 12.0479C154.529 12.4066 183.908 14.2885 195.897 20.011C205.599 24.6416 213.322 33.224 218.82 48.4173C220.591 55.5427 222.435 61.1297 223.172 67.4455C223.591 71.0323 224.84 76.7187 224.84 78.29C224.84 78.5774 224.825 78.8637 224.794 79.1489Z" fill="rgb(184,210,228)" fill-rule="evenodd" />
	<path id="Subtract" d="M7.91633 66.5377C7.90511 66.7114 7.89948 66.8855 7.89948 67.06C7.89948 82.6296 52.7619 95.2512 108.103 95.2512C161.235 95.2512 204.708 83.6169 208.094 68.9094C208.302 68.2561 208.468 67.5703 208.587 66.8506C205.004 50.1899 194.346 16.3159 179.173 9.00141C165.373 2.34886 128.212 0.906493 106.696 1.00564C85.7912 0.906492 49.6869 2.34886 36.2786 9.00141C21.5362 16.3159 11.2553 49.6899 7.77448 66.3506C7.81652 66.4118 7.86385 66.4742 7.91633 66.5377ZM209.059 69.1747C208.147 73.0601 204.801 76.6994 199.02 80.0924C193.551 83.3025 186.214 86.1257 177.009 88.5623C167.819 90.9948 157.409 92.8731 145.778 94.1971C133.749 95.5665 121.19 96.2512 108.103 96.2512C94.4721 96.2512 81.4316 95.5104 68.9809 94.0288C56.9408 92.596 46.273 90.572 36.9775 87.9568C27.6306 85.3272 20.3781 82.2969 15.2201 78.8659C10.0403 75.4205 7.27894 71.761 6.93596 67.8873C6.91164 67.6126 6.89948 67.3369 6.89948 67.06C6.89948 66.9903 6.90027 66.9207 6.90187 66.8511L6.90198 66.8466L6.70818 66.5646L6.79561 66.1461C7.7959 61.3582 9.08607 56.3432 10.6661 51.101C12.559 44.8209 14.6316 39.0465 16.884 33.7781C22.7695 20.0111 29.0862 11.4536 35.8341 8.10561C41.9323 5.07996 52.8502 2.86993 68.5879 1.47554C80.3767 0.431017 93.0779 -0.0589443 106.692 0.00565445C120.708 -0.0589348 133.782 0.430955 145.914 1.47532C162.105 2.86913 173.336 5.07756 179.607 8.10062C183.326 9.8934 186.95 13.2605 190.48 18.202C193.487 22.4122 196.375 27.6851 199.143 34.0208C201.467 39.3417 203.609 45.1736 205.569 51.5164C207.2 56.7976 208.532 61.839 209.565 66.6404L209.605 66.8263L209.574 67.0139C209.45 67.7602 209.278 68.4805 209.059 69.1747ZM191.648 61.3217C191.674 61.1015 191.687 60.8805 191.687 60.6587C191.687 59.4459 190.629 55.0567 190.274 52.2881C189.649 47.4131 188.087 43.1006 186.587 37.6006C181.928 25.8732 175.385 19.2487 167.165 15.6744C157.007 11.2573 132.115 9.80477 113.571 9.5279C110.475 9.48167 107.556 9.46821 104.911 9.4792C86.9552 9.4024 55.3538 10.52 43.837 15.6744C32.4496 20.7709 26.8041 41.7242 23.0245 55.6006C22.5995 58.0381 22.5245 61.1978 22.5245 62.3799C22.5245 62.6006 22.5374 62.8205 22.5632 63.0397L22.5245 63.2062C22.5476 63.2366 22.5727 63.2673 22.5995 63.2982C24.5062 74.9357 59.5885 82.5015 106.158 82.5015C152.732 82.5015 189.712 73.213 191.613 61.5741C191.639 61.5442 191.664 61.5145 191.687 61.4851L191.648 61.3217ZM190.643 61.3085L190.655 61.2044C190.675 61.041 190.685 60.8774 190.687 60.7138C190.687 60.6954 190.687 60.6771 190.687 60.6587C190.687 60.2926 190.482 59.0524 190.072 56.9382C189.659 54.8076 189.396 53.2999 189.283 52.4153C189.084 50.8681 188.755 49.1769 188.296 47.3416C188.014 46.2131 187.529 44.4762 186.842 42.131C186.311 40.3201 185.91 38.9158 185.637 37.918C183.423 32.3594 180.702 27.8044 177.472 24.2529C176.015 22.6508 174.428 21.2266 172.713 19.9802C170.879 18.6472 168.896 17.5177 166.766 16.5914C162.256 14.6302 154.473 13.1144 143.416 12.0439C134.703 11.2003 124.75 10.6949 113.556 10.5278C110.604 10.4837 107.724 10.4675 104.916 10.4792C93.2026 10.4291 82.2434 10.8067 72.0381 11.612C58.5408 12.677 49.2766 14.3354 44.2455 16.5871C39.5285 18.6983 35.2983 24.038 31.5548 32.6063C30.1164 35.8986 28.6957 39.7974 27.2926 44.3026C26.4711 46.9404 25.3931 50.7091 24.0587 55.6086L24.0017 55.8179C23.6835 57.6637 23.5245 59.851 23.5245 62.3799C23.5245 62.4009 23.5246 62.422 23.5249 62.443C23.5271 62.6031 23.5376 62.7631 23.5564 62.923L23.5689 63.0298L23.5864 63.1365C24.0026 65.6771 26.2709 68.0753 30.3913 70.3311C34.5712 72.6195 40.3909 74.6053 47.8504 76.2884C55.2814 77.9651 63.9359 79.2494 73.8137 80.1415C83.8529 81.0481 94.6345 81.5015 106.158 81.5015C117.555 81.5015 128.431 80.9589 138.788 79.8737C148.764 78.8284 157.634 77.3477 165.399 75.4315C173.085 73.5347 179.125 71.3516 183.518 68.8824C187.84 66.4535 190.209 63.9637 190.626 61.4129L190.643 61.3085Z" fill="rgb(52,29,26)" fill-rule="evenodd" />
	<path id="Union" d="M193.534 9.42734C208.028 16.3169 218.495 49.4253 221.917 65.1183C221.859 65.1992 221.791 65.2815 221.713 65.3654C221.848 65.8798 221.917 66.3987 221.917 66.9216C221.917 80.0361 178.581 90.6675 125.122 90.6675C71.6631 90.6675 28.3263 80.0361 28.3263 66.9216C28.3263 66.0474 28.5189 65.1842 28.8941 64.3345C32.4131 48.3493 42.5636 16.2043 56.5303 9.42734C69.4392 3.16365 104.19 1.80368 124.328 1.89589C144.884 1.80365 180.357 3.16359 193.534 9.42734Z" opacity="0" fill="rgb(247,64,94)" fill-rule="evenodd" />
	<path id="Union" d="M193.963 8.52419Q203.902 13.2488 212.794 33.5707Q216.171 41.2893 219.032 50.4674Q221.409 58.0954 222.894 64.9053L222.989 65.3398L222.794 65.6125Q222.892 66.1304 222.912 66.6513L222.912 66.6587Q222.917 66.7901 222.917 66.9216Q222.917 67.2332 222.89 67.5424L222.89 67.5432Q222.45 72.6 214.812 77.0296Q207.341 81.363 193.805 84.6837Q180.342 87.9866 162.902 89.7961Q144.867 91.6676 125.122 91.6675Q105.377 91.6675 87.3414 89.7961Q69.9019 87.9865 56.4388 84.6837Q42.9026 81.3629 35.4312 77.0296Q27.7939 72.6 27.3533 67.5432L27.3533 67.5428Q27.3263 67.2334 27.3263 66.9216Q27.3263 66.7417 27.3355 66.5624Q27.4015 65.2814 27.9384 64.0248Q29.4545 57.1587 31.7777 49.6683Q34.5883 40.6062 37.877 33.0296Q46.4898 13.1877 56.0937 8.52765Q64.9046 4.25246 87.632 2.28189Q104.656 0.805802 124.333 0.895904Q144.407 0.805782 161.783 2.28171Q184.975 4.25167 193.963 8.52419ZM221.917 65.1183C218.495 49.4253 208.028 16.3169 193.534 9.42734C180.357 3.16359 144.884 1.80365 124.328 1.89589C104.19 1.80368 69.4392 3.16365 56.5303 9.42734C42.5636 16.2043 32.4131 48.3493 28.8941 64.3345C28.5189 65.1842 28.3263 66.0474 28.3263 66.9216C28.3263 80.0361 71.6631 90.6675 125.122 90.6675C178.581 90.6675 221.917 80.0361 221.917 66.9216C221.917 66.3987 221.848 65.8798 221.713 65.3654C221.791 65.2815 221.859 65.1992 221.917 65.1183Z" opacity="0" fill="rgb(52,29,26)" fill-rule="evenodd" />
	<path id="Subtract" d="M215.33 42.803C210.131 28.5464 202.566 13.7724 193.394 9.42728C180.167 3.16112 144.551 1.80254 123.929 1.89594C103.893 1.80257 69.289 3.16118 56.438 9.42728C47.449 13.8103 40.0484 28.8046 34.9943 43.1756C63.7751 38.9509 94.5175 36.666 126.451 36.666C157.433 36.666 187.294 38.8167 215.33 42.803Z" opacity="0" fill="rgb(247,64,94)" fill-rule="evenodd" />
	<g filter="url(#filter_14)">
		<path id="Union" d="M150.483 61.1782L147.385 25.227L165.827 37.5346L164.352 23.6075L177.039 23.6075L185.154 59.5588L163.319 49.5184L165.827 61.1782L150.483 61.1782ZM97.5197 24.7412L92.9462 33.1622C91.6674 32.3525 88.2246 30.895 84.6838 31.5427C80.2578 32.3524 82.0282 34.6196 89.995 37.3727C97.9618 40.1257 97.5197 49.6803 89.1098 56.8058C82.3819 62.5061 70.2746 59.8287 65.062 57.7774L70.9633 46.4414C72.6353 47.4671 76.8056 49.324 80.1103 48.5467C84.2412 47.575 79.2257 44.6601 74.3571 42.069C69.4885 39.4779 71.2589 32.3525 79.2257 26.8464C85.5991 22.4416 94.0773 23.6076 97.5197 24.7412ZM97.5192 60.3688L101.06 26.1989C102.535 25.6051 107.079 24.3852 113.453 24.2556C121.419 24.0937 130.271 26.1989 127.468 37.6969C125.226 46.8952 114.436 51.1381 109.322 52.1097L107.404 60.3688L97.5192 60.3688ZM130.419 60.3685L129.681 24.9031L142.812 24.9031L142.812 59.5588L130.419 60.3685ZM110.65 33.8101L109.764 39.9639C111.24 40.0719 114.456 39.64 115.518 37.0489C116.58 34.4578 112.715 33.8101 110.65 33.8101Z" opacity="0" fill="rgb(254,254,255)" fill-rule="evenodd" />
	</g>
</svg>
