<svg viewBox="0 0 204.996 112.429" xmlns="http://www.w3.org/2000/svg" xmlns:xlink="http://www.w3.org/1999/xlink" width="204.995972" height="112.429077" fill="none" customFrame="#000000">
	<defs>
		<g id="pixso_custom_effect_13">
			<effect x="0.000000" y="-1.000000" visibility="visible" fill="rgb(0,0,0)" fill-opacity="0.25" effectType="innerShadow" stdDeviation="0" radius="0" />
		</g>
		<filter id="filter_13" width="120.091370" height="34.227600" x="42.915588" y="20.784424" filterUnits="userSpaceOnUse" customEffect="url(#pixso_custom_effect_13)" color-interpolation-filters="sRGB">
			<feFlood flood-opacity="0" result="BackgroundImageFix" />
			<feBlend result="shape" in="SourceGraphic" in2="BackgroundImageFix" mode="normal" />
			<feColorMatrix result="hardAlpha" in="SourceAlpha" type="matrix" values="0 0 0 0 0 0 0 0 0 0 0 0 0 0 0 0 0 0 127 0 " />
			<feOffset dx="0.000000" dy="-1.000000" in="hardAlpha" />
			<feGaussianBlur stdDeviation="0" />
			<feComposite k2="-1" k3="1" in2="hardAlpha" operator="arithmetic" />
			<feColorMatrix type="matrix" values="0 0 0 0 0 0 0 0 0 0 0 0 0 0 0 0 0 0 0.25 0 " />
			<feBlend result="effect_innerShadow_1" in2="shape" mode="normal" />
		</filter>
	</defs>
	<rect id="svg 1" width="204.994995" height="112.429054" x="0.000000" y="0.000000" />
	<path id="Union" d="M171.388 7.866C185.881 14.1426 196.349 44.305 199.771 58.6016C199.713 58.6752 199.645 58.7502 199.566 58.8266C199.702 59.2953 199.771 59.768 199.771 60.2443C199.771 72.1919 156.434 81.8773 102.975 81.8773C49.5168 81.8773 6.17993 72.1919 6.17993 60.2443C6.17993 59.4479 6.3725 58.6615 6.74781 57.8874C10.2668 43.3245 20.4173 14.0399 34.3839 7.866C47.2928 2.15966 82.044 0.920692 102.182 1.0047C122.738 0.920667 158.211 2.1596 171.388 7.866Z" fill="rgb(247,64,94)" fill-rule="nonzero" />
	<path id="Union" d="M182.244 15.8153C178.83 11.4451 175.344 8.48942 171.785 6.94836C165.8 4.35646 155.081 2.46265 139.629 1.26693C128.048 0.370736 115.564 -0.0500003 102.178 0.00472391C89.0685 -0.0499882 76.8402 0.370798 65.4933 1.26708C50.3511 2.46315 39.8465 4.35792 33.9796 6.95138C27.5732 9.78334 21.4951 17.2331 15.7453 29.3007C13.5505 33.907 11.5153 38.9646 9.63984 44.4737C8.09141 49.022 6.81154 53.3813 5.80023 57.5515C5.43724 58.3293 5.23356 59.116 5.1892 59.9115C5.18302 60.0222 5.17993 60.1332 5.17993 60.2443C5.17993 60.4201 5.18747 60.5952 5.20254 60.7697C5.47343 63.9064 8.17905 66.8329 13.3194 69.549C18.2965 72.1789 25.2942 74.5016 34.3126 76.5171C43.285 78.5224 53.5822 80.0743 65.2042 81.1728C77.2251 82.3091 89.8153 82.8773 102.975 82.8773C116.135 82.8773 128.726 82.3091 140.747 81.1728C152.369 80.0742 162.666 78.5222 171.638 76.5171C180.657 74.5016 187.654 72.1789 192.631 69.549C197.772 66.8328 200.477 63.9063 200.748 60.7696C200.763 60.5951 200.771 60.42 200.771 60.2443C200.771 60.1638 200.769 60.0833 200.766 60.003C200.754 59.698 200.718 59.394 200.658 59.0908L200.856 58.8397L200.743 58.3688C199.752 54.2275 198.464 49.8385 196.877 45.2017C194.968 39.6219 192.886 34.4858 190.633 29.7934C187.94 24.1871 185.144 19.5277 182.244 15.8153ZM199.566 58.8266C199.645 58.7502 199.713 58.6752 199.771 58.6016C196.349 44.305 185.881 14.1426 171.388 7.86601C158.211 2.15961 122.738 0.92068 102.182 1.00471C82.044 0.920705 47.2928 2.15967 34.3839 7.86601C20.4173 14.0399 10.2668 43.3245 6.74781 57.8874C6.3725 58.6615 6.17993 59.4479 6.17993 60.2443C6.17993 72.1919 49.5168 81.8773 102.975 81.8773C156.434 81.8773 199.771 72.1919 199.771 60.2443C199.771 59.768 199.702 59.2953 199.566 58.8266Z" fill="rgb(52,29,26)" fill-rule="evenodd" />
	<path id="1" d="M193.183 38.2718C187.985 25.2837 180.42 11.8244 171.248 7.86587C158.021 2.15728 122.405 0.91959 101.783 1.00468C81.7463 0.919615 47.1427 2.15734 34.2916 7.86587C25.3026 11.8589 17.9021 25.519 12.848 38.6112C41.6287 34.7625 72.3711 32.6809 104.305 32.6809C135.287 32.6809 165.147 34.6402 193.183 38.2718Z" fill="rgb(228.438,52.731,81.5353)" fill-rule="evenodd" />
	<path id="1" d="M6.18648 60.4984L1.16382 85.4425C1.24688 85.4657 1.33147 85.4893 1.41759 85.5132C1.24936 86.083 1.16382 86.6583 1.16382 87.2384C1.16382 100.599 46.542 111.429 102.519 111.429C158.496 111.429 203.874 100.599 203.874 87.2384C203.874 86.66 203.789 86.0864 203.622 85.5183C203.707 85.4926 203.791 85.4674 203.874 85.4425L199.928 59.9912C199.878 60.069 199.826 60.1531 199.771 60.2442C199.771 72.1918 156.434 81.8772 102.975 81.8772C49.8965 81.8772 6.79614 72.3289 6.18648 60.4984Z" fill="rgb(171.062,28.0828,51.522)" fill-rule="evenodd" />
	<path id="1" d="M5.20617 60.301L7.18518 60.447C7.31526 62.9713 9.77404 65.4694 14.5615 67.9413C19.4415 70.461 26.2946 72.6965 35.1209 74.6478C43.996 76.61 54.1686 78.129 65.6386 79.2048C77.5255 80.3198 89.9709 80.8772 102.975 80.8772C116.072 80.8772 128.6 80.312 140.559 79.1816C152.097 78.0909 162.311 76.5521 171.202 74.5651C180.046 72.5885 186.878 70.327 191.697 67.7806C196.391 65.3002 198.749 62.7998 198.771 60.2792L198.771 60.2442L198.771 59.9673L198.913 59.7299C198.97 59.6342 199.028 59.5408 199.087 59.4498L200.513 57.2361L204.996 86.1498L204.797 86.2094C204.834 86.4526 204.857 86.6964 204.867 86.9406L204.868 86.9601L204.868 86.9606C204.872 87.0532 204.874 87.1458 204.874 87.2384C204.874 87.4407 204.865 87.6423 204.848 87.8431C204.554 91.2861 201.738 94.5135 196.4 97.5255C191.19 100.466 183.863 103.063 174.42 105.317C165.025 107.559 154.242 109.294 142.071 110.523C129.484 111.794 116.3 112.429 102.519 112.429C88.7383 112.429 75.5541 111.794 62.9665 110.523C50.796 109.294 40.0132 107.559 30.6179 105.317C21.1747 103.063 13.8479 100.466 8.63736 97.5255C3.29968 94.5135 0.483745 91.286 0.189567 87.843C0.172408 87.6423 0.163828 87.4407 0.163828 87.2384C0.163828 87.1454 0.165704 87.0524 0.169454 86.9595L0.169498 86.9584C0.179456 86.7128 0.20253 86.4676 0.238722 86.2229L0 86.1564L5.20617 60.301ZM1.16383 85.4425L6.18649 60.4984C6.79615 72.3289 49.8965 81.8772 102.975 81.8772C156.434 81.8772 199.771 72.1918 199.771 60.2442C199.826 60.1531 199.878 60.069 199.928 59.9912L203.874 85.4425C203.791 85.4674 203.707 85.4926 203.622 85.5183C203.789 86.0864 203.874 86.66 203.874 87.2384C203.874 100.599 158.496 111.429 102.519 111.429C46.542 111.429 1.16383 100.599 1.16383 87.2384C1.16383 86.6583 1.24937 86.083 1.4176 85.5132C1.33148 85.4893 1.24689 85.4657 1.16383 85.4425Z" fill="rgb(52,29,26)" fill-rule="evenodd" />
	<g id="Сочетание 2" filter="url(#filter_13)">
		<path id="Union" d="M128.337 55.012L125.239 22.2597L143.681 33.4722L142.205 20.7844L154.893 20.7844L163.007 53.5366L141.172 44.3896L143.681 55.012L128.337 55.012ZM75.3734 21.8171L70.7999 29.4888C69.521 28.7511 66.0782 27.4233 62.5375 28.0135C58.1115 28.7511 59.8819 30.8166 67.8486 33.3246C75.8154 35.8327 75.3734 44.5371 66.9634 51.0286C60.2355 56.2217 48.1282 53.7825 42.9156 51.9138L48.8169 41.5865C50.4889 42.5209 54.6592 44.2126 57.9639 43.5044C62.0949 42.6192 57.0793 39.9636 52.2107 37.6031C47.3421 35.2426 49.1125 28.7512 57.0793 23.735C63.4527 19.7221 71.9309 20.7844 75.3734 21.8171ZM75.3728 54.2746L78.9136 23.1452C80.3889 22.6042 84.9329 21.4928 91.3064 21.3748C99.2731 21.2272 108.125 23.1452 105.322 33.62C103.079 41.9999 92.2899 45.8652 87.1754 46.7504L85.2575 54.2746L75.3728 54.2746ZM108.273 54.2743L107.535 21.9646L120.665 21.9646L120.665 53.5366L108.273 54.2743ZM88.5032 30.0791L87.618 35.6853C89.0934 35.7837 92.3096 35.3902 93.3718 33.0297C94.4341 30.6692 90.5687 30.0791 88.5032 30.0791Z" fill="rgb(254,254,255)" fill-rule="evenodd" />
	</g>
</svg>
