<svg viewBox="0 0 410.044 123" xmlns="http://www.w3.org/2000/svg" xmlns:xlink="http://www.w3.org/1999/xlink" width="410.043579" height="123.000000" fill="none" customFrame="#000000">
	<path id="Union" d="M47.0528 0C38.8906 0 32.7844 4.93513 27.2263 12.4955C24.1808 16.6382 22.2668 21.4755 20.9511 26.446L1.32242 100.601C0.15101 105.027 -0.927716 109.858 1.27584 113.87C4.236 119.261 10.7084 123 18.2166 123L203.03 123C203.49 123 203.946 122.986 204.398 122.958C204.814 122.933 205.231 122.933 205.648 122.958C206.099 122.986 206.556 123 207.016 123L391.827 123C399.335 123 405.808 119.261 408.768 113.87C410.971 109.858 409.893 105.027 408.721 100.601L389.093 26.4459C387.777 21.4755 385.863 16.6382 382.818 12.4956C377.26 4.93514 371.153 0 362.991 0L207.016 0C206.556 0 206.099 0.0140412 205.648 0.0416432C205.231 0.0670733 204.814 0.0670757 204.398 0.0416442C203.946 0.0140416 203.49 0 203.03 0L47.0528 0Z" fill="rgb(52,29,26)" fill-rule="evenodd" />
</svg>
