<svg width="64" height="66" viewBox="0 0 64 66" fill="none" xmlns="http://www.w3.org/2000/svg">
<rect y="9.18347" width="63.2979" height="56.4133" rx="16" fill="#515895"/>
<rect x="1" y="1" width="61.2979" height="56.9649" rx="15" fill="#FEFEFF" stroke="#341D1A" stroke-width="2"/>
<path d="M34.0939 35.0912C34.0939 35.4078 34.0189 35.6412 33.8689 35.7912C33.7356 35.9245 33.5106 35.9912 33.1939 35.9912H30.0939C29.7772 35.9912 29.5439 35.9245 29.3939 35.7912C29.2606 35.6412 29.1939 35.4078 29.1939 35.0912V30.8912H25.1189C24.8022 30.8912 24.5689 30.8245 24.4189 30.6912C24.2856 30.5412 24.2189 30.3078 24.2189 29.9912V27.1412C24.2189 26.8245 24.2856 26.5995 24.4189 26.4662C24.5689 26.3162 24.8022 26.2412 25.1189 26.2412H29.1939V22.0412C29.1939 21.7245 29.2606 21.4995 29.3939 21.3662C29.5439 21.2162 29.7772 21.1412 30.0939 21.1412H33.1939C33.5106 21.1412 33.7356 21.2162 33.8689 21.3662C34.0189 21.4995 34.0939 21.7245 34.0939 22.0412V26.2412H38.1689C38.4856 26.2412 38.7106 26.3162 38.8439 26.4662C38.9939 26.5995 39.0689 26.8245 39.0689 27.1412V29.9912C39.0689 30.3078 38.9939 30.5412 38.8439 30.6912C38.7106 30.8245 38.4856 30.8912 38.1689 30.8912H34.0939V35.0912Z" fill="#341D1A"/>
</svg>
