<svg width="64" height="66" viewBox="0 0 64 66" fill="none" xmlns="http://www.w3.org/2000/svg">
<rect y="9.18347" width="63.2979" height="56.4133" rx="16" fill="#515895"/>
<rect x="1" y="1" width="61.2979" height="56.9649" rx="15" fill="#FEFEFF" stroke="#341D1A" stroke-width="2"/>
<path d="M28.2996 31.1412C27.9829 31.1412 27.7496 31.0745 27.5996 30.9412C27.4662 30.7912 27.3996 30.5578 27.3996 30.2412V26.8912C27.3996 26.5745 27.4662 26.3495 27.5996 26.2162C27.7496 26.0662 27.9829 25.9912 28.2996 25.9912H34.9996C35.3162 25.9912 35.5412 26.0662 35.6746 26.2162C35.8246 26.3495 35.8996 26.5745 35.8996 26.8912V30.2412C35.8996 30.5578 35.8246 30.7912 35.6746 30.9412C35.5412 31.0745 35.3162 31.1412 34.9996 31.1412H28.2996Z" fill="#341D1A"/>
</svg>
