<svg width="250" height="146" viewBox="0 0 250 146" fill="none" xmlns="http://www.w3.org/2000/svg">
<g clip-path="url(#clip0_229_195)">
<path fill-rule="evenodd" clip-rule="evenodd" d="M6.59705 78.1339L0.250276 108.005L0.294824 108.02C0.0993465 108.825 0 109.637 0 110.456C0 129.856 55.7485 145.583 124.518 145.583C193.287 145.583 249.035 129.856 249.035 110.456C249.035 109.727 248.957 109.004 248.802 108.286L243.679 79.1624L243.554 79.0175C243.419 79.7589 243.241 80.4693 243.023 81.1498C239.028 98.5085 187.718 112.24 125.008 112.24C59.6912 112.24 6.74172 97.3432 6.74172 78.967C6.74172 78.7611 6.74837 78.5556 6.76162 78.3505C6.70086 78.277 6.64596 78.2048 6.59705 78.1339ZM7.0402 76.061L7.03679 76.0642L6.97026 76.3773C6.99337 76.2724 7.01668 76.1669 7.0402 76.061Z" fill="#5E6D84"/>
<path d="M123.347 0.50588C136.054 0.447363 153.383 0.843279 169.577 2.23732C177.674 2.93435 185.494 3.88162 192.314 5.14748C199.127 6.41193 204.975 8.00018 209.107 9.99221C213.692 12.2025 217.895 16.3962 221.681 21.6973C225.472 27.0044 228.871 33.4593 231.835 40.2441C237.764 53.8137 241.975 68.7581 244.094 78.6143L244.115 78.708L244.099 78.8018C243.956 79.6687 243.755 80.496 243.503 81.2861C242.448 85.8231 238.343 90.0204 231.969 93.7617C225.563 97.5217 216.768 100.88 206.162 103.688C184.944 109.304 156.394 112.74 125.007 112.74C92.3169 112.74 62.7028 109.012 41.2456 102.976C30.5205 99.9582 21.8043 96.3565 15.7583 92.335C9.73143 88.3261 6.2417 83.8182 6.2417 78.9668C6.2417 78.8132 6.24737 78.6599 6.25438 78.5068C6.23063 78.4748 6.20423 78.4452 6.18213 78.4131L6.06104 78.2363L6.10498 78.0273C8.16411 68.1716 12.2332 53.3751 17.9712 39.9531C20.8403 33.242 24.1321 26.8603 27.8071 21.6084C31.4777 16.363 35.5572 12.2065 40.0142 9.99514C44.0317 8.0018 49.7155 6.41308 56.3354 5.14846C62.9633 3.88233 70.5626 2.93441 78.4302 2.23732C94.1643 0.843249 111.001 0.447399 123.347 0.50588ZM121.244 11.5068H121.239C110.659 11.4616 94.2447 12.0781 78.7798 13.4658C71.0476 14.1596 63.5591 15.0457 57.1597 16.1367C50.7486 17.2298 45.4693 18.5221 42.1323 20.0156C35.635 22.9237 31.7867 30.5573 29.0103 39.6953C27.6283 44.2435 26.5243 49.1192 25.4849 53.8936C24.4471 58.6601 23.4726 63.3331 22.353 67.4434L22.3335 67.5166L22.2925 67.5801C21.4893 68.8491 21.0864 70.1271 21.0864 71.4121C21.0864 71.6528 21.1003 71.8927 21.1284 72.1318L21.1392 72.2188L21.1294 72.2568L21.145 72.2744L21.1685 72.415C21.6912 75.6051 24.7251 78.7645 30.0796 81.7109C35.4027 84.6401 42.8869 87.2854 52.0444 89.5088C70.3539 93.9542 95.2597 96.6924 122.713 96.6924C150.17 96.6924 175.077 93.9539 193.387 89.5078C202.545 87.2841 210.029 84.6385 215.351 81.709C220.705 78.762 223.737 75.6015 224.258 72.4111L224.282 72.2676L224.293 72.2529L224.287 72.2236L224.297 72.1357C224.326 71.8953 224.34 71.654 224.34 71.4121C224.34 69.9802 224.271 64.8282 223.857 61.5957C223.12 55.8513 222.46 50.7981 220.706 44.3564C215.27 30.6979 204.143 22.9633 194.517 18.7773C188.604 16.206 178.335 14.4778 166.753 13.3564C155.193 12.2371 142.39 11.7268 131.455 11.5635C127.804 11.509 124.361 11.4939 121.244 11.5068Z" fill="#B8D2E4" stroke="#341D1A"/>
</g>
<defs>
<clipPath id="clip0_229_195">
<rect width="250" height="146" fill="white"/>
</clipPath>
</defs>
</svg>
