<svg width="375" height="193" viewBox="0 0 375 193" fill="none" xmlns="http://www.w3.org/2000/svg">
<path d="M88.3718 88.3517C90.5143 85.7924 97.1694 80.3767 106.65 79.1879C116.13 77.9991 124.258 81.8297 127.137 83.8936" stroke="#8EA3CA"/>
<path d="M113.481 91.8192C115.088 89.1774 120.189 83.869 127.742 83.77C135.294 83.6709 139.057 87.0309 139.994 88.7233" stroke="#8EA3CA"/>
<path d="M125.532 75.597C128.946 74.6476 137.222 73.3184 143.006 75.597C148.791 77.8755 151.308 80.4265 151.844 81.4172" stroke="#8EA3CA"/>
<path d="M185.788 86.9897C185.855 83.9351 183.619 76.9839 174.139 73.6156C164.658 70.2473 152.111 74.6063 147.023 77.2068" stroke="#8EA3CA"/>
<path d="M48.4065 48.1058C33.744 35.1032 12.9888 32.2137 0 32.6265L0 193.677H375V0.677246C373.393 1.17258 368.412 3.97124 361.342 11.2032C354.272 18.4351 360.003 29.5719 363.752 34.2363C358.664 34.1125 339.448 34.2363 325.187 41.914C309.094 50.5786 305.37 62.7595 307.11 69.1576C304.031 68.3733 295.541 67.2753 286.221 69.1576C276.901 71.0399 269.751 79.4358 267.341 83.3985C264.529 79.5184 255.45 71.6343 241.631 71.1389C227.812 70.6436 217.796 74.4824 214.515 76.4638C212.775 75.0191 205.589 70.6436 197.242 70.6436C185.994 70.6436 181.909 72.79 177.758 75.1016C176.285 72.6662 169.041 67.6963 155.865 64.328C142.689 60.9597 128.281 63.8327 122.724 65.6902C117.635 63.4199 103.803 58.9536 89.1805 59.2508C74.5581 59.548 61.1275 65.8966 56.24 69.0337C56.7756 67.6303 57.0369 55.7591 48.4065 48.1058Z" fill="#F4F4F4" stroke="#8EA3CA"/>
<path d="M178.76 90.9524C180.032 89.4664 184.103 86.4696 190.209 86.3705C196.315 86.2714 201.055 87.7327 202.662 88.4757" stroke="#8EA3CA"/>
<path d="M204.673 107.422C206.882 105.813 212.345 102.543 216.523 102.345C220.701 102.147 223.085 102.675 223.754 102.964C225.495 101.643 230.061 99.1007 234.4 99.497C238.738 99.8933 242.769 101.561 244.242 102.345" stroke="#8EA3CA"/>
<path d="M197.639 130.455C201.723 127.401 212.061 121.267 220.738 121.168C229.415 121.069 233.726 122.035 234.798 122.53C236.137 121.539 239.538 119.409 242.43 118.815C245.322 118.221 247.652 118.567 248.456 118.815" stroke="#8EA3CA"/>
<path d="M245.845 123.521C246.247 121.828 247.693 117.948 250.264 115.967C252.835 113.985 255.219 113.242 256.089 113.119" stroke="#8EA3CA"/>
<path d="M310.926 93.429C311.864 91.6953 315.024 87.9308 320.166 86.742C325.308 85.5532 327.664 85.0909 328.2 85.0083" stroke="#8EA3CA"/>
<path d="M12.6504 44.7625C16.132 44.3084 23.6172 43.9947 25.7061 46.3723C27.7951 48.7499 28.9868 50.0873 29.3216 50.4588C31.0623 49.9635 35.0259 49.27 36.9541 50.4588C38.8824 51.6476 39.2305 52.7704 39.1636 53.1832" stroke="#8EA3CA"/>
<path d="M56.0365 69.2812L50.4126 75.1015" stroke="#8EA3CA"/>
<path d="M51.013 78.5689C52.7537 78.445 56.4763 78.8165 57.4404 81.2932C58.4045 83.7699 57.8421 85.0495 57.4404 85.3797" stroke="#8EA3CA"/>
<path d="M85.7636 91.3238C88.3747 85.1321 92.7986 79.4358 100.828 74.6062C109.063 69.6529 122.219 65.3187 129.048 64.0803" stroke="#8EA3CA"/>
</svg>
