<svg width="1512" height="99" viewBox="0 0 1512 99" fill="none" xmlns="http://www.w3.org/2000/svg">
<path d="M1512.7 91.3971C1512.7 92.8346 1511.53 94 1510.1 94C1509.6 94 1509.12 94.1417 1508.7 94.4083L1506.95 95.5206C1503.77 97.5481 1499.71 97.5481 1496.53 95.5206L1494.35 94.1321C1494.22 94.0458 1494.06 94 1493.9 94C1493.74 94 1493.58 94.0458 1493.45 94.1321L1491.27 95.521C1488.09 97.5482 1484.02 97.5481 1480.84 95.5207L1478.67 94.1318C1478.53 94.0457 1478.38 94 1478.22 94C1478.06 94 1477.9 94.0457 1477.76 94.1318L1475.59 95.5206C1472.41 97.548 1468.34 97.548 1465.16 95.5206L1462.99 94.1318C1462.85 94.0457 1462.69 94 1462.53 94C1462.37 94 1462.22 94.0457 1462.08 94.1318L1459.9 95.5207C1456.73 97.5481 1452.66 97.5482 1449.48 95.521L1447.3 94.1318C1447.17 94.0457 1447.01 94 1446.85 94C1446.69 94 1446.53 94.0457 1446.4 94.1318L1444.22 95.5207C1441.04 97.5481 1436.98 97.5482 1433.8 95.521L1431.62 94.1318C1431.49 94.0457 1431.33 94 1431.17 94C1431.01 94 1430.85 94.0457 1430.72 94.1318L1428.54 95.521C1425.36 97.5482 1421.29 97.5481 1418.12 95.5207L1415.94 94.1323C1415.8 94.0459 1415.65 94 1415.49 94C1415.32 94 1415.17 94.0459 1415.03 94.1323L1412.85 95.5207C1409.68 97.5481 1405.61 97.5482 1402.43 95.521L1400.25 94.1318C1400.12 94.0457 1399.96 94 1399.8 94C1399.64 94 1399.48 94.0457 1399.35 94.1318L1397.17 95.5207C1393.99 97.5481 1389.93 97.5482 1386.75 95.521L1384.57 94.1318C1384.44 94.0457 1384.28 94 1384.12 94C1383.96 94 1383.8 94.0457 1383.67 94.1318L1381.49 95.521C1378.31 97.5482 1374.24 97.5481 1371.07 95.5207L1368.89 94.1318C1368.75 94.0457 1368.6 94 1368.44 94C1368.28 94 1368.12 94.0457 1367.98 94.1318L1365.81 95.5206C1362.63 97.548 1358.56 97.5481 1355.39 95.5209L1353.21 94.1321C1353.07 94.0458 1352.92 94 1352.76 94C1352.59 94 1352.44 94.0458 1352.3 94.1321L1350.12 95.521C1346.95 97.5482 1342.88 97.5481 1339.7 95.5207L1337.52 94.1318C1337.39 94.0457 1337.23 94 1337.07 94C1336.91 94 1336.76 94.0457 1336.62 94.1318L1334.44 95.5207C1331.26 97.5481 1327.2 97.5482 1324.02 95.521L1321.84 94.1321C1321.71 94.0458 1321.55 94 1321.39 94C1321.23 94 1321.07 94.0458 1320.94 94.1321L1318.76 95.521C1315.58 97.5482 1311.51 97.5481 1308.34 95.5207L1306.16 94.1318C1306.02 94.0457 1305.87 94 1305.71 94C1305.55 94 1305.39 94.0457 1305.25 94.1318L1303.08 95.5207C1299.9 97.5481 1295.83 97.5482 1292.65 95.521L1290.48 94.1321C1290.34 94.0458 1290.18 94 1290.02 94C1289.86 94 1289.71 94.0458 1289.57 94.1321L1287.39 95.521C1284.21 97.5482 1280.15 97.5481 1276.97 95.5207L1274.79 94.1321C1274.66 94.0458 1274.5 94 1274.34 94C1274.18 94 1274.02 94.0458 1273.89 94.1321L1271.71 95.5207C1268.53 97.5481 1264.46 97.5482 1261.29 95.521L1259.77 94.5564C1259.2 94.193 1258.54 94 1257.87 94C1257.19 94 1256.53 94.193 1255.96 94.5563L1254.94 95.2046C1252.43 96.8101 1249.21 96.81 1246.69 95.2043L1246.34 94.9823C1245.33 94.3408 1244.17 94 1242.97 94C1241.78 94 1240.61 94.3408 1239.61 94.9823L1239.26 95.2043C1236.74 96.81 1233.52 96.8101 1231 95.2046L1230.65 94.9813C1229.65 94.3404 1228.48 94 1227.29 94C1226.1 94 1224.93 94.3406 1223.92 94.9818L1223.58 95.2044C1221.06 96.81 1217.84 96.8102 1215.32 95.205L1214.97 94.9817C1213.97 94.3406 1212.8 94 1211.61 94C1210.41 94 1209.25 94.3406 1208.24 94.9817L1207.89 95.2046C1205.37 96.8101 1202.15 96.81 1199.64 95.2043L1199.29 94.9815C1198.28 94.3405 1197.12 94 1195.92 94C1194.73 94 1193.56 94.3405 1192.56 94.9815L1192.21 95.2043C1189.69 96.81 1186.47 96.81 1183.96 95.2043L1183.61 94.9816C1182.6 94.3406 1181.43 94 1180.24 94C1179.05 94 1177.88 94.3405 1176.88 94.9813L1176.53 95.2046C1174.01 96.8101 1170.79 96.81 1168.27 95.2043L1167.92 94.9818C1166.92 94.3406 1165.75 94 1164.56 94C1163.37 94 1162.2 94.3406 1161.19 94.9816L1160.84 95.2046C1158.33 96.8101 1155.11 96.81 1152.59 95.2043L1152.24 94.9818C1151.24 94.3406 1150.07 94 1148.88 94C1147.68 94 1146.52 94.3406 1145.51 94.9818L1145.16 95.2043C1142.64 96.81 1139.42 96.81 1136.91 95.2043L1136.56 94.9815C1135.55 94.3405 1134.39 94 1133.19 94C1132 94 1130.83 94.3405 1129.83 94.9815L1129.48 95.2043C1126.96 96.81 1123.74 96.81 1121.22 95.2043L1120.88 94.9815C1119.87 94.3405 1118.7 94 1117.51 94C1116.32 94 1115.15 94.3405 1114.15 94.9815L1113.8 95.2043C1111.28 96.81 1108.06 96.81 1105.54 95.2043L1105.19 94.9818C1104.19 94.3406 1103.02 94 1101.83 94C1100.64 94 1099.47 94.3406 1098.46 94.9818L1098.12 95.2043C1095.6 96.81 1092.38 96.8101 1089.86 95.2046L1089.51 94.9816C1088.51 94.3406 1087.34 94 1086.15 94C1084.95 94 1083.79 94.3406 1082.78 94.9818L1082.43 95.2043C1079.91 96.81 1076.69 96.8101 1074.18 95.2046L1073.83 94.9813C1072.82 94.3405 1071.65 94 1070.46 94C1069.27 94 1068.1 94.3406 1067.1 94.9816L1066.75 95.2043C1064.23 96.81 1061.01 96.81 1058.49 95.2043L1058.15 94.9815C1057.14 94.3405 1055.97 94 1054.78 94C1053.59 94 1052.42 94.3405 1051.42 94.9815L1051.07 95.2043C1048.55 96.81 1045.33 96.81 1042.81 95.2043L1042.46 94.9823C1041.46 94.3408 1040.29 94 1039.1 94C1037.91 94 1036.74 94.3408 1035.73 94.9823L1035.38 95.2043C1032.87 96.81 1029.65 96.8101 1027.13 95.2046L1026.78 94.9813C1025.77 94.3405 1024.61 94 1023.41 94C1022.22 94 1021.05 94.3406 1020.05 94.9816L1019.7 95.2043C1017.18 96.81 1013.96 96.8098 1011.45 95.2044C1010.21 94.4179 1008.78 94 1007.32 94H1005.87C1004.21 94 1002.59 94.4728 1001.2 95.3628C998.346 97.1798 994.702 97.1799 991.853 95.3631L990.587 94.5555C990.018 94.1927 989.357 94 988.682 94C988.008 94 987.347 94.1927 986.778 94.5555L985.512 95.3631C982.663 97.1799 979.019 97.1798 976.17 95.3628L974.904 94.5556C974.335 94.1928 973.675 94 973 94C972.325 94 971.664 94.1928 971.096 94.5556L969.83 95.3628C966.981 97.1798 963.337 97.1799 960.488 95.3631L959.222 94.5555C958.653 94.1927 957.992 94 957.317 94C956.642 94 955.982 94.1928 955.413 94.5556L954.147 95.3628C951.298 97.1798 947.654 97.1799 944.805 95.3631L943.539 94.5555C942.97 94.1927 942.309 94 941.635 94C940.96 94 940.299 94.1927 939.73 94.5555L938.464 95.3631C935.615 97.1799 931.971 97.1798 929.122 95.3628L927.856 94.5556C927.287 94.1928 926.627 94 925.952 94C925.277 94 924.617 94.1927 924.048 94.5555L922.781 95.3631C919.932 97.1799 916.288 97.1798 913.439 95.3628L912.174 94.5558C911.605 94.1928 910.944 94 910.269 94C909.594 94 908.933 94.1928 908.364 94.5558L907.098 95.3628C904.25 97.1798 900.606 97.1799 897.757 95.3631L896.49 94.5555C895.921 94.1927 895.261 94 894.586 94C893.911 94 893.25 94.1928 892.681 94.5556L891.416 95.3628C888.567 97.1798 884.923 97.1799 882.074 95.3631L880.808 94.5555C880.239 94.1927 879.578 94 878.903 94C878.228 94 877.568 94.1927 876.999 94.5555L875.732 95.3631C872.883 97.1799 869.239 97.1798 866.391 95.3628L865.125 94.5555C864.556 94.1927 863.895 94 863.221 94C862.546 94 861.885 94.1928 861.316 94.5557L860.051 95.3628C857.202 97.1797 853.559 97.1798 850.71 95.3631L849.445 94.5561C848.876 94.1929 848.214 94 847.539 94C846.864 94 846.202 94.1929 845.633 94.5561L844.368 95.3628C841.519 97.1798 837.875 97.1799 835.026 95.3631L833.76 94.5555C833.191 94.1927 832.53 94 831.855 94C831.181 94 830.52 94.1928 829.951 94.5557L828.686 95.3629C825.837 97.1798 822.194 97.18 819.345 95.3635L818.079 94.556C817.509 94.1929 816.848 94 816.173 94C815.497 94 814.836 94.1929 814.266 94.5561L813.002 95.3628C810.153 97.1798 806.509 97.1799 803.66 95.3631L802.393 94.5555C801.825 94.1927 801.164 94 800.489 94C799.814 94 799.154 94.1928 798.585 94.5556L797.319 95.3627C794.47 97.1797 790.826 97.1797 787.977 95.3627L786.712 94.5556C786.143 94.1928 785.482 94 784.807 94C784.133 94 783.472 94.1927 782.903 94.5555L781.637 95.3631C778.788 97.1799 775.144 97.1798 772.295 95.3628L771.03 94.5561C770.461 94.1929 769.799 94 769.124 94C768.448 94 767.787 94.1929 767.218 94.5561L765.953 95.3627C763.104 97.1797 759.46 97.1797 756.611 95.3627L755.345 94.5555C754.777 94.1927 754.116 94 753.441 94C752.767 94 752.106 94.1928 751.537 94.5557L750.271 95.3629C747.423 97.1798 743.78 97.18 740.931 95.3635L739.665 94.5561C739.095 94.1929 738.434 94 737.759 94C737.083 94 736.422 94.1929 735.852 94.5561L734.587 95.3631C731.738 97.1799 728.094 97.1798 725.245 95.3628L723.979 94.5556C723.41 94.1928 722.75 94 722.075 94C721.4 94 720.74 94.1928 720.171 94.5556L718.905 95.3628C716.056 97.1798 712.412 97.1799 709.563 95.3631L708.297 94.5555C707.728 94.1927 707.067 94 706.392 94C705.718 94 705.057 94.1928 704.488 94.5556L703.222 95.3628C700.374 97.1798 696.73 97.1799 693.881 95.3631L692.614 94.5555C692.045 94.1927 691.385 94 690.71 94C690.035 94 689.374 94.1928 688.805 94.5556L687.54 95.3627C684.691 97.1797 681.047 97.1797 678.198 95.3627L676.933 94.5559C676.364 94.1929 675.703 94 675.028 94C674.353 94 673.692 94.1928 673.122 94.5558L671.856 95.3631C669.007 97.1799 665.363 97.1798 662.515 95.3628L661.249 94.5556C660.68 94.1928 660.019 94 659.345 94C658.67 94 658.009 94.1928 657.44 94.5556L656.175 95.3628C653.326 97.1798 649.682 97.1799 646.833 95.3631L645.567 94.5558C644.998 94.1928 644.337 94 643.662 94C642.986 94 642.325 94.1929 641.756 94.5559L640.491 95.3628C637.642 97.1798 633.998 97.1799 631.149 95.3631L629.883 94.5558C629.314 94.1928 628.653 94 627.978 94C627.303 94 626.642 94.1929 626.073 94.5559L624.808 95.3627C621.959 97.1797 618.315 97.1797 615.466 95.3627L614.2 94.5556C613.631 94.1928 612.97 94 612.296 94C611.621 94 610.96 94.1928 610.391 94.5556L609.126 95.3628C606.277 97.1798 602.633 97.1799 599.784 95.3631L598.517 94.5555C597.949 94.1927 597.288 94 596.613 94C595.938 94 595.278 94.1927 594.709 94.5555L593.443 95.3628C590.594 97.1798 586.949 97.1798 584.1 95.3628L582.834 94.5555C582.265 94.1927 581.604 94 580.93 94C580.255 94 579.594 94.1928 579.025 94.5556L577.76 95.3628C574.911 97.1798 571.267 97.1799 568.418 95.3631L567.151 94.5555C566.582 94.1927 565.922 94 565.247 94C564.572 94 563.911 94.1927 563.343 94.5555L562.076 95.3635C559.227 97.18 555.583 97.1798 552.735 95.3629L551.47 94.5556C550.901 94.1928 550.24 94 549.565 94C548.891 94 548.23 94.1928 547.661 94.5556L546.396 95.3629C543.547 97.1798 539.904 97.18 537.055 95.3635L535.789 94.5561C535.219 94.1929 534.558 94 533.883 94C533.207 94 532.546 94.1929 531.977 94.5561L530.711 95.3628C527.862 97.1798 524.218 97.1798 521.368 95.3628L520.102 94.5555C519.533 94.1927 518.873 94 518.198 94C517.523 94 516.863 94.1928 516.294 94.5557L515.028 95.3629C512.18 97.1798 508.536 97.18 505.688 95.3635L504.943 94.8887C504.033 94.3083 502.976 94 501.897 94C500.817 94 499.76 94.3083 498.85 94.8887L497.858 95.5213C494.679 97.5489 490.612 97.5488 487.432 95.521L485.253 94.1308C485.119 94.0454 484.963 94 484.805 94C484.646 94 484.49 94.0454 484.356 94.1307L482.176 95.5213C478.996 97.5489 474.929 97.5488 471.75 95.521L469.57 94.1308C469.436 94.0454 469.281 94 469.122 94C468.963 94 468.808 94.0454 468.674 94.1307L466.493 95.5213C463.314 97.5489 459.247 97.5488 456.067 95.521L453.887 94.1308C453.754 94.0454 453.598 94 453.439 94C453.28 94 453.125 94.0454 452.991 94.1308L450.811 95.521C447.632 97.5488 443.565 97.5489 440.385 95.5213L438.205 94.1307C438.071 94.0454 437.915 94 437.757 94C437.598 94 437.442 94.0454 437.308 94.1307L435.128 95.5213C431.948 97.5489 427.881 97.5488 424.702 95.521L422.522 94.1308C422.388 94.0454 422.233 94 422.074 94C421.915 94 421.76 94.0454 421.626 94.1307L419.445 95.5213C416.266 97.5489 412.199 97.5488 409.019 95.521L406.84 94.131C406.706 94.0455 406.55 94 406.391 94C406.232 94 406.076 94.0454 405.942 94.131L403.762 95.5213C400.582 97.5489 396.515 97.5488 393.336 95.521L391.156 94.1308C391.022 94.0454 390.867 94 390.708 94C390.549 94 390.394 94.0454 390.26 94.1308L388.08 95.521C384.9 97.5488 380.834 97.5489 377.654 95.5213L375.473 94.1307C375.34 94.0454 375.184 94 375.025 94C374.866 94 374.711 94.0454 374.577 94.1308L372.397 95.5209C369.218 97.5488 365.151 97.5488 361.971 95.5209L359.792 94.1308C359.658 94.0454 359.502 94 359.344 94C359.185 94 359.029 94.0454 358.895 94.1308L356.716 95.5209C353.536 97.5488 349.469 97.5488 346.29 95.5209L344.111 94.1313C343.977 94.0455 343.82 94 343.661 94C343.502 94 343.345 94.0455 343.211 94.1313L341.032 95.521C337.853 97.5488 333.786 97.5489 330.606 95.5213L328.426 94.1307C328.292 94.0454 328.136 94 327.977 94C327.819 94 327.663 94.0454 327.529 94.1308L325.35 95.521C322.171 97.5488 318.104 97.549 314.925 95.5216L312.744 94.131C312.61 94.0455 312.454 94 312.295 94C312.136 94 311.98 94.0455 311.846 94.131L309.666 95.5213C306.486 97.5489 302.42 97.5488 299.24 95.521L297.06 94.1308C296.926 94.0454 296.771 94 296.612 94C296.453 94 296.298 94.0454 296.164 94.1308L293.984 95.521C290.805 97.5488 286.738 97.5489 283.558 95.5213L281.378 94.131C281.244 94.0454 281.088 94 280.929 94C280.77 94 280.614 94.0455 280.48 94.131L278.301 95.521C275.121 97.5488 271.054 97.5489 267.875 95.5213L265.694 94.131C265.56 94.0454 265.405 94 265.245 94C265.086 94 264.93 94.0455 264.796 94.131L262.617 95.5209C259.438 97.5488 255.371 97.5488 252.191 95.5209L250.011 94.1308C249.878 94.0454 249.722 94 249.563 94C249.405 94 249.249 94.0454 249.115 94.1308L246.935 95.5209C243.756 97.5488 239.689 97.5488 236.509 95.5209L234.331 94.1313C234.196 94.0455 234.04 94 233.881 94C233.721 94 233.565 94.0455 233.431 94.1313L231.251 95.5213C228.071 97.5489 224.004 97.5488 220.825 95.521L218.645 94.1308C218.511 94.0454 218.356 94 218.197 94C218.038 94 217.883 94.0454 217.749 94.1308L215.569 95.5209C212.39 97.5488 208.323 97.5488 205.143 95.5209L202.964 94.131C202.83 94.0455 202.674 94 202.515 94C202.356 94 202.2 94.0455 202.066 94.131L199.887 95.521C196.707 97.5488 192.64 97.5489 189.461 95.5213L187.28 94.1307C187.146 94.0454 186.991 94 186.832 94C186.673 94 186.518 94.0454 186.384 94.1308L184.204 95.521C181.024 97.5488 176.958 97.5489 173.778 95.5213L171.598 94.131C171.464 94.0454 171.308 94 171.149 94C170.99 94 170.834 94.0455 170.7 94.131L168.52 95.521C165.341 97.5488 161.274 97.5489 158.094 95.5213L155.914 94.1307C155.78 94.0454 155.624 94 155.466 94C155.307 94 155.151 94.0454 155.017 94.1308L152.838 95.5209C149.658 97.5488 145.591 97.5488 142.412 95.5209L140.233 94.131C140.098 94.0455 139.943 94 139.784 94C139.624 94 139.469 94.0455 139.334 94.131L137.155 95.521C133.976 97.5488 129.909 97.5489 126.729 95.5213L124.549 94.131C124.415 94.0455 124.259 94 124.1 94C123.941 94 123.785 94.0455 123.651 94.131L121.471 95.5213C118.291 97.5489 114.224 97.5488 111.045 95.521L108.865 94.1308C108.731 94.0454 108.576 94 108.417 94C108.258 94 108.103 94.0454 107.969 94.1308L105.789 95.5209C102.609 97.5488 98.5425 97.5488 95.363 95.5209L93.1834 94.1308C93.0495 94.0454 92.894 94 92.7352 94C92.5764 94 92.4209 94.0454 92.287 94.1307L90.1065 95.5213C86.9269 97.5489 82.86 97.5488 79.6805 95.521L77.5012 94.131C77.367 94.0455 77.2112 94 77.0521 94C76.893 94 76.7371 94.0455 76.603 94.131L74.4237 95.521C71.2442 97.5488 67.1773 97.5489 63.9977 95.5213L61.8172 94.1307C61.6833 94.0454 61.5278 94 61.369 94C61.2102 94 61.0547 94.0454 60.9208 94.1307L58.7403 95.5213C55.5607 97.5489 51.4938 97.5488 48.3143 95.521L46.1345 94.1308C46.0006 94.0454 45.8451 94 45.6863 94C45.5275 94 45.3721 94.0454 45.2382 94.1308L43.0585 95.5209C39.879 97.5488 35.812 97.5488 32.6325 95.5209L30.4537 94.1313C30.3193 94.0455 30.1632 94 30.0037 94C29.8443 94 29.6882 94.0455 29.5538 94.1313L27.3741 95.5213C24.1944 97.5489 20.1275 97.5488 16.948 95.521L14.7683 94.1308C14.6344 94.0454 14.4789 94 14.3201 94C14.1613 94 14.0058 94.0454 13.872 94.1308L8.74671 97.3996C7.36377 98.2816 5.59484 98.2816 4.21187 97.3997L-0.575207 94.3468C-0.94228 94.1127 -0.942306 93.5767 -0.575255 93.3426C-0.40378 93.2332 -0.299982 93.0439 -0.299982 92.8405V22C-0.299982 8.74516 10.4452 -2 23.7 -2H1488.7C1501.95 -2 1512.7 8.74517 1512.7 22V91.3971Z" fill="#FFF6DE"/>
</svg>
