<svg viewBox="0 0 1512 153" xmlns="http://www.w3.org/2000/svg" xmlns:xlink="http://www.w3.org/1999/xlink" width="1512.000000" height="153.000000" fill="none" customFrame="#000000">
	<path id="Union" d="M1512 153L1047.72 153C1047.71 153 1047.7 153 1047.69 153C1047.68 153 1047.66 153 1047.65 153L941.716 153C941.705 153 941.693 153 941.682 153C941.67 153 941.659 153 941.648 153L667.107 153C667.097 153 667.088 153 667.079 153C667.07 153 667.06 153 667.051 153L551.165 153C551.158 153 551.15 153 551.142 153C551.135 153 551.127 153 551.119 153L276.549 153C276.546 153 276.542 153 276.539 153C276.536 153 276.533 153 276.53 153L0 153L0 24.3076C14.3122 23.9935 37.1823 26.1919 53.3389 36.0845C62.8487 41.9073 62.5607 50.9391 61.9705 52.0068C67.356 49.62 82.1552 44.7899 98.2675 44.5638C114.38 44.3377 129.622 47.7357 135.229 49.463C141.352 48.0498 157.228 45.864 171.747 48.4267C186.266 50.9893 194.248 54.7705 195.871 56.6234C200.445 54.8647 204.945 53.2316 217.339 53.2316C220.247 53.2316 223.026 53.5641 225.528 54.0537L225.528 54.5594L226.54 54.5594C237.415 46.8248 255.751 41.7451 276.539 41.7451C290.391 41.7451 303.155 44.0006 313.348 47.7941C319.446 43.0813 330.271 39.9473 342.608 39.9473C358.159 39.9473 371.307 44.9269 375.616 51.7712C381.352 49.713 388.453 48.4956 396.142 48.4956C405.418 48.4956 413.84 50.2675 420.04 53.1501C429.845 45.555 447.274 40.5024 467.142 40.5024C487.104 40.5024 504.604 45.6028 514.383 53.2579C524.173 49.0663 537.044 46.5221 551.142 46.5221C561.654 46.5221 571.483 47.9364 579.862 50.3934C583.654 47.4368 590.423 45.468 598.142 45.468C608.171 45.468 616.596 48.7916 618.973 53.2872C630.013 46.2726 647.453 41.7451 667.079 41.7451C680.931 41.7451 693.694 44.0006 703.887 47.7941C709.986 43.0813 720.81 39.9473 733.147 39.9473C748.698 39.9473 761.846 44.9269 766.155 51.7712C771.891 49.713 778.993 48.4956 786.682 48.4956C795.958 48.4956 804.379 50.2675 810.579 53.1501C820.384 45.555 837.814 40.5024 857.682 40.5024C877.644 40.5024 895.144 45.6028 904.923 53.2579C914.713 49.0663 927.583 46.5221 941.682 46.5221C952.194 46.5221 962.023 47.9364 970.401 50.3934C974.193 47.4368 980.962 45.468 988.681 45.468C999.073 45.468 1007.74 49.0363 1009.75 53.7793C1019.67 49.2783 1033.01 46.5221 1047.69 46.5221C1057.94 46.5221 1067.54 47.8675 1075.78 50.2134C1078.73 42.855 1092.12 37.2991 1108.18 37.2991C1124.04 37.2991 1137.29 42.7162 1140.46 49.9366C1146.07 47.798 1153.16 46.5221 1160.86 46.5221C1172.95 46.5221 1183.53 49.6715 1189.27 54.3684C1201.06 45.9981 1220.92 40.5024 1243.43 40.5024C1266.11 40.5024 1286.1 46.0818 1297.86 54.5594L1301.09 54.5594C1304.51 53.7691 1309.02 53.2316 1316.13 53.2316C1325.33 53.2316 1333.24 56.5606 1335.16 57.6597C1338.78 56.1523 1349.81 53.2316 1365.04 53.6085C1380.27 53.9853 1390.27 59.9837 1393.37 62.9358C1396.03 59.9209 1403.91 53.5331 1414.18 52.101C1424.44 50.669 1433.8 51.5043 1437.19 52.101C1435.27 47.2332 1439.38 37.9658 1457.11 31.3737C1472.83 25.5323 1494 25.4381 1499.61 25.5323C1495.47 21.9836 1489.16 13.5105 1496.95 8.0083C1504.74 2.50613 1510.23 0.376861 1512 0L1512 153Z" fill="rgb(244.375,244.375,244.375)" fill-rule="nonzero" />
</svg>
