<svg width="216" height="39" viewBox="0 0 216 39" fill="none" xmlns="http://www.w3.org/2000/svg">
<g filter="url(#filter0_di_58_1219)">
<mask id="path-1-outside-1_58_1219" maskUnits="userSpaceOnUse" x="-0.00244141" y="-0.194824" width="216" height="36" fill="black">
<rect fill="white" x="-0.00244141" y="-0.194824" width="216" height="36"/>
<path d="M2.99997 10.7075V4.61377L24.9531 3.0708L24.7773 9.69189L16.3008 10.3755L17.8437 28.9106L10.1093 29.9263L10.539 10.4536L2.99997 10.7075ZM36.4703 6.60596C39.4911 6.60596 42.0692 7.64111 44.2047 9.71143C46.3401 11.7687 47.4078 14.2492 47.4078 17.1528C47.4078 20.0695 46.3401 22.563 44.2047 24.6333C42.0692 26.6906 39.4911 27.7192 36.4703 27.7192C33.4495 27.7192 30.8713 26.6906 28.7359 24.6333C26.6005 22.563 25.5328 20.0695 25.5328 17.1528C25.5328 14.2492 26.6005 11.7687 28.7359 9.71143C30.8713 7.64111 33.4495 6.60596 36.4703 6.60596ZM43.5015 14.7505C43.3713 15.3625 43.0653 15.8963 42.5836 16.3521C41.9195 16.9771 41.1252 17.2896 40.2008 17.2896C39.2763 17.2896 38.482 16.9836 37.8179 16.3716C37.1669 15.7466 36.8414 14.9979 36.8414 14.1255C36.8414 13.2531 37.1669 12.5109 37.8179 11.8989C38.482 11.2869 39.2763 10.981 40.2008 10.981C40.383 10.981 40.5523 10.994 40.7086 11.02C39.9924 10.6554 39.1981 10.4731 38.3258 10.4731C36.8804 10.4731 35.6435 10.9744 34.6148 11.9771C33.5992 12.9666 33.0914 14.1646 33.0914 15.5708C33.0914 16.9771 33.5992 18.175 34.6148 19.1646C35.6435 20.1541 36.8804 20.6489 38.3258 20.6489C39.7711 20.6489 41.0015 20.1541 42.0172 19.1646C43.0458 18.175 43.5601 16.9771 43.5601 15.5708C43.5601 15.2843 43.5406 15.0109 43.5015 14.7505ZM46.6203 8.26611L46.5031 5.66846L54.5695 4.26221L54.8234 13.5591L62.5187 3.94971L68.2414 8.93018L59.7648 18.6567L72.089 26.6841L71.6008 32.4067L56.7961 22.27L56.8547 31.8013L51.4054 32.4458L50.0773 7.87549L46.6203 8.26611ZM71.1453 12.3677L76.8875 12.7974L77.4148 29.5942L71.3992 29.6919L71.1453 12.3677ZM73.6843 5.00439C74.6218 4.88721 75.4487 5.05648 76.1648 5.51221C76.894 5.96794 77.2976 6.56689 77.3757 7.30908C77.4669 8.05127 77.2065 8.72184 76.5945 9.3208C75.9955 9.91976 75.2208 10.2713 74.2703 10.3755C73.3328 10.4797 72.4994 10.3104 71.7703 9.86768C71.0541 9.41195 70.6505 8.81299 70.5593 8.0708C70.4812 7.32861 70.7416 6.65804 71.3406 6.05908C71.9526 5.46012 72.7338 5.10856 73.6843 5.00439ZM89.85 6.60596C92.8708 6.60596 95.4489 7.64111 97.5843 9.71143C99.7198 11.7687 100.787 14.2492 100.787 17.1528C100.787 20.0695 99.7198 22.563 97.5843 24.6333C95.4489 26.6906 92.8708 27.7192 89.85 27.7192C86.8291 27.7192 84.251 26.6906 82.1156 24.6333C79.9802 22.563 78.9125 20.0695 78.9125 17.1528C78.9125 14.2492 79.9802 11.7687 82.1156 9.71143C84.251 7.64111 86.8291 6.60596 89.85 6.60596ZM96.8812 14.7505C96.751 15.3625 96.445 15.8963 95.9632 16.3521C95.2992 16.9771 94.5049 17.2896 93.5804 17.2896C92.656 17.2896 91.8617 16.9836 91.1976 16.3716C90.5466 15.7466 90.2211 14.9979 90.2211 14.1255C90.2211 13.2531 90.5466 12.5109 91.1976 11.8989C91.8617 11.2869 92.656 10.981 93.5804 10.981C93.7627 10.981 93.932 10.994 94.0882 11.02C93.3721 10.6554 92.5778 10.4731 91.7054 10.4731C90.2601 10.4731 89.0231 10.9744 87.9945 11.9771C86.9789 12.9666 86.4711 14.1646 86.4711 15.5708C86.4711 16.9771 86.9789 18.175 87.9945 19.1646C89.0231 20.1541 90.2601 20.6489 91.7054 20.6489C93.1507 20.6489 94.3812 20.1541 95.3968 19.1646C96.4255 18.175 96.9398 16.9771 96.9398 15.5708C96.9398 15.2843 96.9203 15.0109 96.8812 14.7505ZM112.572 27.4067L115.951 22.856C119.675 25.2388 122.461 25.4992 124.31 23.6372C125.951 21.8924 125.15 19.9328 121.908 17.7583C118.952 16.339 116.589 14.6789 114.818 12.7778C112.969 11.2674 112.826 8.86507 114.388 5.5708C116.315 3.18799 119.421 2.45882 123.705 3.3833C126.882 4.02132 129.304 5.382 130.97 7.46533L128.392 11.2153C124.317 8.44189 121.465 7.49788 119.837 8.3833C119.121 9.85465 121.322 11.925 126.439 14.5942C131.699 17.8104 132.162 22.4263 127.826 28.4419C124.649 32.3351 119.564 31.9901 112.572 27.4067ZM132.702 3.52002L139.05 4.28174L137.78 22.8169L148.757 21.7036L149.265 29.5161L131.687 30.1997L132.702 3.52002ZM161.192 6.60596C164.213 6.60596 166.791 7.64111 168.927 9.71143C171.062 11.7687 172.13 14.2492 172.13 17.1528C172.13 20.0695 171.062 22.563 168.927 24.6333C166.791 26.6906 164.213 27.7192 161.192 27.7192C158.171 27.7192 155.593 26.6906 153.458 24.6333C151.322 22.563 150.255 20.0695 150.255 17.1528C150.255 14.2492 151.322 11.7687 153.458 9.71143C155.593 7.64111 158.171 6.60596 161.192 6.60596ZM168.223 14.7505C168.093 15.3625 167.787 15.8963 167.305 16.3521C166.641 16.9771 165.847 17.2896 164.923 17.2896C163.998 17.2896 163.204 16.9836 162.54 16.3716C161.889 15.7466 161.563 14.9979 161.563 14.1255C161.563 13.2531 161.889 12.5109 162.54 11.8989C163.204 11.2869 163.998 10.981 164.923 10.981C165.105 10.981 165.274 10.994 165.43 11.02C164.714 10.6554 163.92 10.4731 163.048 10.4731C161.602 10.4731 160.365 10.9744 159.337 11.9771C158.321 12.9666 157.813 14.1646 157.813 15.5708C157.813 16.9771 158.321 18.175 159.337 19.1646C160.365 20.1541 161.602 20.6489 163.048 20.6489C164.493 20.6489 165.723 20.1541 166.739 19.1646C167.768 18.175 168.282 16.9771 168.282 15.5708C168.282 15.2843 168.262 15.0109 168.223 14.7505ZM172.162 10.7075V4.61377L194.116 3.0708L193.94 9.69189L185.463 10.3755L187.006 28.9106L179.272 29.9263L179.702 10.4536L172.162 10.7075ZM194.461 27.4067L197.84 22.856C201.564 25.2388 204.35 25.4992 206.199 23.6372C207.84 21.8924 207.039 19.9328 203.797 17.7583C200.841 16.339 198.478 14.6789 196.707 12.7778C194.858 11.2674 194.715 8.86507 196.277 5.5708C198.204 3.18799 201.31 2.45882 205.594 3.3833C208.771 4.02132 211.193 5.382 212.859 7.46533L210.281 11.2153C206.206 8.44189 203.354 7.49788 201.727 8.3833C201.01 9.85465 203.211 11.925 208.328 14.5942C213.589 17.8104 214.051 22.4263 209.715 28.4419C206.538 32.3351 201.453 31.9901 194.461 27.4067Z"/>
</mask>
<path d="M2.99997 10.7075V4.61377L24.9531 3.0708L24.7773 9.69189L16.3008 10.3755L17.8437 28.9106L10.1093 29.9263L10.539 10.4536L2.99997 10.7075ZM36.4703 6.60596C39.4911 6.60596 42.0692 7.64111 44.2047 9.71143C46.3401 11.7687 47.4078 14.2492 47.4078 17.1528C47.4078 20.0695 46.3401 22.563 44.2047 24.6333C42.0692 26.6906 39.4911 27.7192 36.4703 27.7192C33.4495 27.7192 30.8713 26.6906 28.7359 24.6333C26.6005 22.563 25.5328 20.0695 25.5328 17.1528C25.5328 14.2492 26.6005 11.7687 28.7359 9.71143C30.8713 7.64111 33.4495 6.60596 36.4703 6.60596ZM43.5015 14.7505C43.3713 15.3625 43.0653 15.8963 42.5836 16.3521C41.9195 16.9771 41.1252 17.2896 40.2008 17.2896C39.2763 17.2896 38.482 16.9836 37.8179 16.3716C37.1669 15.7466 36.8414 14.9979 36.8414 14.1255C36.8414 13.2531 37.1669 12.5109 37.8179 11.8989C38.482 11.2869 39.2763 10.981 40.2008 10.981C40.383 10.981 40.5523 10.994 40.7086 11.02C39.9924 10.6554 39.1981 10.4731 38.3258 10.4731C36.8804 10.4731 35.6435 10.9744 34.6148 11.9771C33.5992 12.9666 33.0914 14.1646 33.0914 15.5708C33.0914 16.9771 33.5992 18.175 34.6148 19.1646C35.6435 20.1541 36.8804 20.6489 38.3258 20.6489C39.7711 20.6489 41.0015 20.1541 42.0172 19.1646C43.0458 18.175 43.5601 16.9771 43.5601 15.5708C43.5601 15.2843 43.5406 15.0109 43.5015 14.7505ZM46.6203 8.26611L46.5031 5.66846L54.5695 4.26221L54.8234 13.5591L62.5187 3.94971L68.2414 8.93018L59.7648 18.6567L72.089 26.6841L71.6008 32.4067L56.7961 22.27L56.8547 31.8013L51.4054 32.4458L50.0773 7.87549L46.6203 8.26611ZM71.1453 12.3677L76.8875 12.7974L77.4148 29.5942L71.3992 29.6919L71.1453 12.3677ZM73.6843 5.00439C74.6218 4.88721 75.4487 5.05648 76.1648 5.51221C76.894 5.96794 77.2976 6.56689 77.3757 7.30908C77.4669 8.05127 77.2065 8.72184 76.5945 9.3208C75.9955 9.91976 75.2208 10.2713 74.2703 10.3755C73.3328 10.4797 72.4994 10.3104 71.7703 9.86768C71.0541 9.41195 70.6505 8.81299 70.5593 8.0708C70.4812 7.32861 70.7416 6.65804 71.3406 6.05908C71.9526 5.46012 72.7338 5.10856 73.6843 5.00439ZM89.85 6.60596C92.8708 6.60596 95.4489 7.64111 97.5843 9.71143C99.7198 11.7687 100.787 14.2492 100.787 17.1528C100.787 20.0695 99.7198 22.563 97.5843 24.6333C95.4489 26.6906 92.8708 27.7192 89.85 27.7192C86.8291 27.7192 84.251 26.6906 82.1156 24.6333C79.9802 22.563 78.9125 20.0695 78.9125 17.1528C78.9125 14.2492 79.9802 11.7687 82.1156 9.71143C84.251 7.64111 86.8291 6.60596 89.85 6.60596ZM96.8812 14.7505C96.751 15.3625 96.445 15.8963 95.9632 16.3521C95.2992 16.9771 94.5049 17.2896 93.5804 17.2896C92.656 17.2896 91.8617 16.9836 91.1976 16.3716C90.5466 15.7466 90.2211 14.9979 90.2211 14.1255C90.2211 13.2531 90.5466 12.5109 91.1976 11.8989C91.8617 11.2869 92.656 10.981 93.5804 10.981C93.7627 10.981 93.932 10.994 94.0882 11.02C93.3721 10.6554 92.5778 10.4731 91.7054 10.4731C90.2601 10.4731 89.0231 10.9744 87.9945 11.9771C86.9789 12.9666 86.4711 14.1646 86.4711 15.5708C86.4711 16.9771 86.9789 18.175 87.9945 19.1646C89.0231 20.1541 90.2601 20.6489 91.7054 20.6489C93.1507 20.6489 94.3812 20.1541 95.3968 19.1646C96.4255 18.175 96.9398 16.9771 96.9398 15.5708C96.9398 15.2843 96.9203 15.0109 96.8812 14.7505ZM112.572 27.4067L115.951 22.856C119.675 25.2388 122.461 25.4992 124.31 23.6372C125.951 21.8924 125.15 19.9328 121.908 17.7583C118.952 16.339 116.589 14.6789 114.818 12.7778C112.969 11.2674 112.826 8.86507 114.388 5.5708C116.315 3.18799 119.421 2.45882 123.705 3.3833C126.882 4.02132 129.304 5.382 130.97 7.46533L128.392 11.2153C124.317 8.44189 121.465 7.49788 119.837 8.3833C119.121 9.85465 121.322 11.925 126.439 14.5942C131.699 17.8104 132.162 22.4263 127.826 28.4419C124.649 32.3351 119.564 31.9901 112.572 27.4067ZM132.702 3.52002L139.05 4.28174L137.78 22.8169L148.757 21.7036L149.265 29.5161L131.687 30.1997L132.702 3.52002ZM161.192 6.60596C164.213 6.60596 166.791 7.64111 168.927 9.71143C171.062 11.7687 172.13 14.2492 172.13 17.1528C172.13 20.0695 171.062 22.563 168.927 24.6333C166.791 26.6906 164.213 27.7192 161.192 27.7192C158.171 27.7192 155.593 26.6906 153.458 24.6333C151.322 22.563 150.255 20.0695 150.255 17.1528C150.255 14.2492 151.322 11.7687 153.458 9.71143C155.593 7.64111 158.171 6.60596 161.192 6.60596ZM168.223 14.7505C168.093 15.3625 167.787 15.8963 167.305 16.3521C166.641 16.9771 165.847 17.2896 164.923 17.2896C163.998 17.2896 163.204 16.9836 162.54 16.3716C161.889 15.7466 161.563 14.9979 161.563 14.1255C161.563 13.2531 161.889 12.5109 162.54 11.8989C163.204 11.2869 163.998 10.981 164.923 10.981C165.105 10.981 165.274 10.994 165.43 11.02C164.714 10.6554 163.92 10.4731 163.048 10.4731C161.602 10.4731 160.365 10.9744 159.337 11.9771C158.321 12.9666 157.813 14.1646 157.813 15.5708C157.813 16.9771 158.321 18.175 159.337 19.1646C160.365 20.1541 161.602 20.6489 163.048 20.6489C164.493 20.6489 165.723 20.1541 166.739 19.1646C167.768 18.175 168.282 16.9771 168.282 15.5708C168.282 15.2843 168.262 15.0109 168.223 14.7505ZM172.162 10.7075V4.61377L194.116 3.0708L193.94 9.69189L185.463 10.3755L187.006 28.9106L179.272 29.9263L179.702 10.4536L172.162 10.7075ZM194.461 27.4067L197.84 22.856C201.564 25.2388 204.35 25.4992 206.199 23.6372C207.84 21.8924 207.039 19.9328 203.797 17.7583C200.841 16.339 198.478 14.6789 196.707 12.7778C194.858 11.2674 194.715 8.86507 196.277 5.5708C198.204 3.18799 201.31 2.45882 205.594 3.3833C208.771 4.02132 211.193 5.382 212.859 7.46533L210.281 11.2153C206.206 8.44189 203.354 7.49788 201.727 8.3833C201.01 9.85465 203.211 11.925 208.328 14.5942C213.589 17.8104 214.051 22.4263 209.715 28.4419C206.538 32.3351 201.453 31.9901 194.461 27.4067Z" fill="#A5DFF7"/>
<path d="M2.99997 10.7075H-3.05176e-05C-3.05176e-05 11.5207 0.330067 12.299 0.914656 12.8642C1.49925 13.4295 2.28825 13.7332 3.10095 13.7058L2.99997 10.7075ZM2.99997 4.61377L2.78963 1.62115C1.21828 1.73159 -3.05176e-05 3.03854 -3.05176e-05 4.61377H2.99997ZM24.9531 3.0708L27.952 3.15042C27.9745 2.30467 27.6388 1.48877 27.0276 0.903715C26.4165 0.318665 25.5867 0.0188656 24.7428 0.0781841L24.9531 3.0708ZM24.7773 9.69189L25.0185 12.6822C26.5463 12.559 27.7356 11.3038 27.7763 9.77151L24.7773 9.69189ZM16.3008 10.3755L16.0596 7.3852C15.2652 7.44926 14.5289 7.8268 14.0133 8.43451C13.4976 9.04221 13.245 9.83012 13.3111 10.6244L16.3008 10.3755ZM17.8437 28.9106L18.2343 31.8851C19.8221 31.6766 20.9662 30.2577 20.8334 28.6618L17.8437 28.9106ZM10.1093 29.9263L7.11007 29.8601C7.09076 30.7352 7.4546 31.575 8.10617 32.1595C8.75775 32.744 9.63209 33.0147 10.4999 32.9007L10.1093 29.9263ZM10.539 10.4536L13.5383 10.5198C13.5565 9.69534 13.2345 8.89975 12.648 8.32002C12.0615 7.74029 11.2622 7.42756 10.4381 7.45531L10.539 10.4536ZM2.99997 10.7075H5.99997V4.61377H2.99997H-3.05176e-05V10.7075H2.99997ZM2.99997 4.61377L3.2103 7.60639L25.1634 6.06342L24.9531 3.0708L24.7428 0.0781841L2.78963 1.62115L2.99997 4.61377ZM24.9531 3.0708L21.9542 2.99118L21.7784 9.61228L24.7773 9.69189L27.7763 9.77151L27.952 3.15042L24.9531 3.0708ZM24.7773 9.69189L24.5362 6.7016L16.0596 7.3852L16.3008 10.3755L16.5419 13.3658L25.0185 12.6822L24.7773 9.69189ZM16.3008 10.3755L13.3111 10.6244L14.8541 29.1595L17.8437 28.9106L20.8334 28.6618L19.2904 10.1266L16.3008 10.3755ZM17.8437 28.9106L17.4531 25.9362L9.71876 26.9518L10.1093 29.9263L10.4999 32.9007L18.2343 31.8851L17.8437 28.9106ZM10.1093 29.9263L13.1086 29.9925L13.5383 10.5198L10.539 10.4536L7.53976 10.3874L7.11007 29.8601L10.1093 29.9263ZM10.539 10.4536L10.4381 7.45531L2.89899 7.70922L2.99997 10.7075L3.10095 13.7058L10.64 13.4519L10.539 10.4536ZM44.2047 9.71143L42.1164 11.8653L42.1232 11.8719L44.2047 9.71143ZM44.2047 24.6333L46.2861 26.7938L46.2929 26.7872L44.2047 24.6333ZM28.7359 24.6333L26.6477 26.7872L26.6545 26.7938L28.7359 24.6333ZM28.7359 9.71143L30.8173 11.8719L30.8241 11.8653L28.7359 9.71143ZM43.5015 14.7505L46.4683 14.3055C46.2532 12.871 45.0425 11.7959 43.5926 11.7519C42.1428 11.7078 40.8691 12.7074 40.5672 14.1262L43.5015 14.7505ZM42.5836 16.3521L44.6397 18.5367L44.6452 18.5315L42.5836 16.3521ZM37.8179 16.3716L35.7403 18.5357C35.7551 18.5499 35.7699 18.5638 35.7849 18.5776L37.8179 16.3716ZM37.8179 11.8989L35.7849 9.69286C35.7776 9.69955 35.7704 9.70628 35.7632 9.71304L37.8179 11.8989ZM40.7086 11.02L40.2154 13.9792C41.6757 14.2226 43.0952 13.3643 43.5581 11.9581C44.0211 10.5519 43.3889 9.01819 42.0696 8.34653L40.7086 11.02ZM34.6148 11.9771L36.7084 14.1257L36.7088 14.1254L34.6148 11.9771ZM34.6148 19.1646L32.5212 21.3132C32.5258 21.3177 32.5304 21.3221 32.5349 21.3265L34.6148 19.1646ZM42.0172 19.1646L39.9373 17.0026C39.9327 17.007 39.9281 17.0114 39.9236 17.0159L42.0172 19.1646ZM36.4703 6.60596V9.60596C38.7252 9.60596 40.5504 10.3471 42.1164 11.8653L44.2047 9.71143L46.2929 7.55753C43.5881 4.93515 40.257 3.60596 36.4703 3.60596V6.60596ZM44.2047 9.71143L42.1232 11.8719C43.6857 13.3772 44.4078 15.0835 44.4078 17.1528H47.4078H50.4078C50.4078 13.4149 48.9944 10.1602 46.2861 7.55095L44.2047 9.71143ZM47.4078 17.1528H44.4078C44.4078 19.2399 43.682 20.9616 42.1164 22.4794L44.2047 24.6333L46.2929 26.7872C48.9982 24.1644 50.4078 20.8991 50.4078 17.1528H47.4078ZM44.2047 24.6333L42.1232 22.4728C40.5585 23.9804 38.7311 24.7192 36.4703 24.7192V27.7192V30.7192C40.2512 30.7192 43.58 29.4008 46.2861 26.7938L44.2047 24.6333ZM36.4703 27.7192V24.7192C34.2095 24.7192 32.3821 23.9804 30.8173 22.4728L28.7359 24.6333L26.6545 26.7938C29.3605 29.4008 32.6894 30.7192 36.4703 30.7192V27.7192ZM28.7359 24.6333L30.8241 22.4794C29.2586 20.9616 28.5328 19.2399 28.5328 17.1528H25.5328H22.5328C22.5328 20.8991 23.9424 24.1644 26.6477 26.7872L28.7359 24.6333ZM25.5328 17.1528H28.5328C28.5328 15.0835 29.2548 13.3772 30.8173 11.8719L28.7359 9.71143L26.6545 7.55095C23.9461 10.1602 22.5328 13.4149 22.5328 17.1528H25.5328ZM28.7359 9.71143L30.8241 11.8653C32.3901 10.3471 34.2154 9.60596 36.4703 9.60596V6.60596V3.60596C32.6835 3.60596 29.3525 4.93515 26.6477 7.55753L28.7359 9.71143ZM43.5015 14.7505L40.5672 14.1262C40.5661 14.1315 40.5658 14.1313 40.5672 14.1275C40.5687 14.1236 40.5704 14.1201 40.5716 14.118C40.5727 14.1161 40.5713 14.1191 40.5648 14.1272C40.5582 14.1355 40.545 14.1509 40.522 14.1726L42.5836 16.3521L44.6452 18.5315C45.5408 17.6842 46.1713 16.6182 46.4359 15.3748L43.5015 14.7505ZM42.5836 16.3521L40.5275 14.1674C40.454 14.2366 40.4099 14.2562 40.3914 14.2635C40.3722 14.271 40.3185 14.2896 40.2008 14.2896V17.2896V20.2896C41.8777 20.2896 43.4106 19.6934 44.6397 18.5367L42.5836 16.3521ZM40.2008 17.2896V14.2896C40.0098 14.2896 39.9467 14.2537 39.851 14.1655L37.8179 16.3716L35.7849 18.5776C37.0173 19.7134 38.5427 20.2896 40.2008 20.2896V17.2896ZM37.8179 16.3716L39.8955 14.2074C39.8588 14.1722 39.8416 14.1496 39.8358 14.1414C39.8304 14.1338 39.8325 14.1354 39.8367 14.1451C39.841 14.155 39.8432 14.1632 39.8437 14.166C39.8441 14.1682 39.8414 14.1561 39.8414 14.1255H36.8414H33.8414C33.8414 15.8459 34.5229 17.367 35.7403 18.5357L37.8179 16.3716ZM36.8414 14.1255H39.8414C39.8414 14.0948 39.8442 14.084 39.8432 14.0885C39.8422 14.0936 39.8391 14.1054 39.8329 14.1195C39.8267 14.1336 39.822 14.1399 39.824 14.1371C39.8264 14.1337 39.8399 14.1157 39.8727 14.0848L37.8179 11.8989L35.7632 9.71304C34.5255 10.8765 33.8414 12.4028 33.8414 14.1255H36.8414ZM37.8179 11.8989L39.851 14.105C39.9467 14.0168 40.0098 13.981 40.2008 13.981V10.981V7.98096C38.5427 7.98096 37.0173 8.55712 35.7849 9.69286L37.8179 11.8989ZM40.2008 10.981V13.981C40.2207 13.981 40.2316 13.9817 40.2343 13.9819C40.2371 13.9821 40.2304 13.9817 40.2154 13.9792L40.7086 11.02L41.2018 8.06084C40.8604 8.00394 40.5242 7.98096 40.2008 7.98096V10.981ZM40.7086 11.02L42.0696 8.34653C40.8965 7.74932 39.6299 7.47314 38.3258 7.47314V10.4731V13.4731C38.7664 13.4731 39.0883 13.5616 39.3475 13.6935L40.7086 11.02ZM38.3258 10.4731V7.47314C36.1035 7.47314 34.1136 8.27628 32.5209 9.82871L34.6148 11.9771L36.7088 14.1254C37.1733 13.6726 37.6573 13.4731 38.3258 13.4731V10.4731ZM34.6148 11.9771L32.5212 9.82836C30.9315 11.3773 30.0914 13.3478 30.0914 15.5708H33.0914H36.0914C36.0914 14.9813 36.2668 14.556 36.7084 14.1257L34.6148 11.9771ZM33.0914 15.5708H30.0914C30.0914 17.7938 30.9315 19.7643 32.5212 21.3132L34.6148 19.1646L36.7084 17.0159C36.2668 16.5856 36.0914 16.1603 36.0914 15.5708H33.0914ZM34.6148 19.1646L32.5349 21.3265C34.1303 22.8613 36.1158 23.6489 38.3258 23.6489V20.6489V17.6489C37.6451 17.6489 37.1566 17.447 36.6947 17.0026L34.6148 19.1646ZM38.3258 20.6489V23.6489C40.5364 23.6489 42.523 22.8603 44.1108 21.3132L42.0172 19.1646L39.9236 17.0159C39.4801 17.448 39.0057 17.6489 38.3258 17.6489V20.6489ZM42.0172 19.1646L44.097 21.3265C45.7036 19.781 46.5601 17.8066 46.5601 15.5708H43.5601H40.5601C40.5601 16.1475 40.388 16.569 39.9373 17.0026L42.0172 19.1646ZM43.5601 15.5708H46.5601C46.5601 15.1482 46.5313 14.7254 46.4683 14.3055L43.5015 14.7505L40.5347 15.1955C40.5499 15.2964 40.5601 15.4205 40.5601 15.5708H43.5601ZM46.6203 8.26611L43.6233 8.40131C43.6608 9.23123 44.0407 10.0085 44.6725 10.5478C45.3044 11.0872 46.1316 11.3404 46.9571 11.2471L46.6203 8.26611ZM46.5031 5.66846L45.9879 2.71303C44.5009 2.97225 43.4381 4.29584 43.5061 5.80366L46.5031 5.66846ZM54.5695 4.26221L57.5684 4.18031C57.5446 3.30918 57.1432 2.49144 56.4686 1.9398C55.7939 1.38815 54.9128 1.15712 54.0543 1.30678L54.5695 4.26221ZM54.8234 13.5591L51.8245 13.641C51.8589 14.8993 52.6751 16.0023 53.8684 16.403C55.0617 16.8037 56.3783 16.4169 57.1651 15.4343L54.8234 13.5591ZM62.5187 3.94971L64.4882 1.68672C63.872 1.1504 63.0637 0.888588 62.25 0.961767C61.4363 1.03495 60.6877 1.43679 60.177 2.07446L62.5187 3.94971ZM68.2414 8.93018L70.503 10.9012C71.026 10.3011 71.2891 9.51776 71.2343 8.72365C71.1795 7.92954 70.8113 7.18976 70.2109 6.66719L68.2414 8.93018ZM59.7648 18.6567L57.5032 16.6857C56.9326 17.3404 56.6737 18.2102 56.7935 19.0704C56.9132 19.9305 57.3998 20.6965 58.1275 21.1705L59.7648 18.6567ZM72.089 26.6841L75.0782 26.9391C75.1722 25.8376 74.6527 24.7737 73.7264 24.1703L72.089 26.6841ZM71.6008 32.4067L69.9059 34.8821C70.7866 35.4851 71.9213 35.5748 72.8858 35.1176C73.8502 34.6604 74.4992 33.7253 74.5899 32.6618L71.6008 32.4067ZM56.7961 22.27L58.4909 19.7947C57.5698 19.164 56.3746 19.0969 55.3887 19.6206C54.4028 20.1443 53.7893 21.1721 53.7961 22.2885L56.7961 22.27ZM56.8547 31.8013L57.207 34.7805C58.7241 34.6011 59.864 33.3104 59.8546 31.7828L56.8547 31.8013ZM51.4054 32.4458L48.4098 32.6077C48.4546 33.4353 48.8397 34.2076 49.4739 34.7412C50.108 35.2749 50.9347 35.5224 51.7578 35.425L51.4054 32.4458ZM50.0773 7.87549L53.0729 7.71356C53.0284 6.88866 52.6456 6.11864 52.0149 5.5851C51.3842 5.05156 50.5614 4.8017 49.7405 4.89446L50.0773 7.87549ZM46.6203 8.26611L49.6172 8.13091L49.5 5.53326L46.5031 5.66846L43.5061 5.80366L43.6233 8.40131L46.6203 8.26611ZM46.5031 5.66846L47.0183 8.62388L55.0847 7.21763L54.5695 4.26221L54.0543 1.30678L45.9879 2.71303L46.5031 5.66846ZM54.5695 4.26221L51.5706 4.34411L51.8245 13.641L54.8234 13.5591L57.8223 13.4772L57.5684 4.18031L54.5695 4.26221ZM54.8234 13.5591L57.1651 15.4343L64.8604 5.82495L62.5187 3.94971L60.177 2.07446L52.4817 11.6838L54.8234 13.5591ZM62.5187 3.94971L60.5492 6.21269L66.2719 11.1932L68.2414 8.93018L70.2109 6.66719L64.4882 1.68672L62.5187 3.94971ZM68.2414 8.93018L65.9797 6.95917L57.5032 16.6857L59.7648 18.6567L62.0265 20.6277L70.503 10.9012L68.2414 8.93018ZM59.7648 18.6567L58.1275 21.1705L70.4517 29.1979L72.089 26.6841L73.7264 24.1703L61.4022 16.143L59.7648 18.6567ZM72.089 26.6841L69.0999 26.429L68.6116 32.1517L71.6008 32.4067L74.5899 32.6618L75.0782 26.9391L72.089 26.6841ZM71.6008 32.4067L73.2956 29.9314L58.4909 19.7947L56.7961 22.27L55.1012 24.7454L69.9059 34.8821L71.6008 32.4067ZM56.7961 22.27L53.7961 22.2885L53.8547 31.8197L56.8547 31.8013L59.8546 31.7828L59.796 22.2516L56.7961 22.27ZM56.8547 31.8013L56.5023 28.822L51.0531 29.4666L51.4054 32.4458L51.7578 35.425L57.207 34.7805L56.8547 31.8013ZM51.4054 32.4458L54.4011 32.2839L53.0729 7.71356L50.0773 7.87549L47.0817 8.03741L48.4098 32.6077L51.4054 32.4458ZM50.0773 7.87549L49.7405 4.89446L46.2834 5.28508L46.6203 8.26611L46.9571 11.2471L50.4142 10.8565L50.0773 7.87549ZM71.1453 12.3677L71.3691 9.37604C70.5293 9.31319 69.7017 9.60626 69.0886 10.1836C68.4755 10.761 68.1333 11.5695 68.1456 12.4116L71.1453 12.3677ZM76.8875 12.7974L79.886 12.7032C79.8379 11.1701 78.641 9.92019 77.1113 9.80573L76.8875 12.7974ZM77.4148 29.5942L77.4635 32.5938C78.2669 32.5808 79.0315 32.246 79.586 31.6645C80.1405 31.0829 80.4385 30.3032 80.4133 29.5001L77.4148 29.5942ZM71.3992 29.6919L68.3995 29.7359C68.4112 30.5322 68.7391 31.2913 69.3109 31.8457C69.8827 32.4001 70.6515 32.7044 71.4479 32.6915L71.3992 29.6919ZM73.6843 5.00439L74.0112 7.98654C74.0263 7.98488 74.0414 7.98311 74.0564 7.98123L73.6843 5.00439ZM76.1648 5.51221L74.5542 8.04319C74.561 8.04756 74.5679 8.05189 74.5748 8.0562L76.1648 5.51221ZM77.3757 7.30908L74.3922 7.62314C74.394 7.64036 74.396 7.65757 74.3981 7.67476L77.3757 7.30908ZM76.5945 9.3208L74.4961 7.17679C74.4884 7.18431 74.4808 7.19188 74.4732 7.19948L76.5945 9.3208ZM74.2703 10.3755L73.9435 7.39334L73.939 7.39384L74.2703 10.3755ZM71.7703 9.86768L70.1597 12.3987C70.1774 12.41 70.1953 12.4211 70.2133 12.432L71.7703 9.86768ZM70.5593 8.0708L67.5758 8.38486C67.5776 8.40208 67.5796 8.41928 67.5817 8.43647L70.5593 8.0708ZM71.3406 6.05908L69.2422 3.91508C69.2345 3.9226 69.2269 3.93016 69.2193 3.93776L71.3406 6.05908ZM71.1453 12.3677L70.9214 15.3593L76.6636 15.789L76.8875 12.7974L77.1113 9.80573L71.3691 9.37604L71.1453 12.3677ZM76.8875 12.7974L73.8889 12.8915L74.4163 29.6884L77.4148 29.5942L80.4133 29.5001L79.886 12.7032L76.8875 12.7974ZM77.4148 29.5942L77.3661 26.5946L71.3505 26.6923L71.3992 29.6919L71.4479 32.6915L77.4635 32.5938L77.4148 29.5942ZM71.3992 29.6919L74.3989 29.6479L74.145 12.3237L71.1453 12.3677L68.1456 12.4116L68.3995 29.7359L71.3992 29.6919ZM73.6843 5.00439L74.0564 7.98123C74.3847 7.9402 74.4942 8.00499 74.5542 8.04319L76.1648 5.51221L77.7754 2.98122C76.4032 2.10797 74.859 1.83422 73.3122 2.02756L73.6843 5.00439ZM76.1648 5.51221L74.5748 8.0562C74.6495 8.10291 74.6004 8.0892 74.5266 7.97978C74.4906 7.92633 74.4577 7.8629 74.4328 7.79351C74.408 7.72457 74.3967 7.66524 74.3922 7.62314L77.3757 7.30908L80.3593 6.99503C80.169 5.18759 79.1322 3.82909 77.7548 2.96821L76.1648 5.51221ZM77.3757 7.30908L74.3981 7.67476C74.3929 7.6326 74.3905 7.57076 74.3995 7.4954C74.4086 7.41948 74.4274 7.34679 74.4523 7.28262C74.5034 7.15102 74.554 7.12013 74.4961 7.17679L76.5945 9.3208L78.6929 11.4648C79.8627 10.3199 80.576 8.75654 80.3534 6.94341L77.3757 7.30908ZM76.5945 9.3208L74.4732 7.19948C74.4189 7.25378 74.3077 7.35343 73.9435 7.39334L74.2703 10.3755L74.5971 13.3576C76.1339 13.1892 77.5722 12.5857 78.7158 11.4421L76.5945 9.3208ZM74.2703 10.3755L73.939 7.39384C73.5861 7.43305 73.4301 7.36576 73.3272 7.30331L71.7703 9.86768L70.2133 12.432C71.5688 13.255 73.0795 13.5263 74.6016 13.3571L74.2703 10.3755ZM71.7703 9.86768L73.3809 7.33669C73.3106 7.29197 73.3527 7.30288 73.4182 7.4001C73.4499 7.44715 73.4788 7.50245 73.5009 7.5622C73.5228 7.62155 73.5328 7.67149 73.537 7.70513L70.5593 8.0708L67.5817 8.43647C67.7977 10.1954 68.8022 11.5348 70.1597 12.3987L71.7703 9.86768ZM70.5593 8.0708L73.5429 7.75675C73.5466 7.7923 73.548 7.84576 73.5396 7.9115C73.531 7.97772 73.5143 8.04123 73.4926 8.09726C73.4477 8.21291 73.4053 8.23701 73.4619 8.1804L71.3406 6.05908L69.2193 3.93776C68.0777 5.07935 67.3894 6.61365 67.5758 8.38486L70.5593 8.0708ZM71.3406 6.05908L73.439 8.20309C73.5149 8.12878 73.646 8.02656 74.0112 7.98654L73.6843 5.00439L73.3575 2.02225C71.8216 2.19057 70.3902 2.79146 69.2422 3.91508L71.3406 6.05908ZM97.5843 9.71143L95.4961 11.8653L95.5029 11.8719L97.5843 9.71143ZM97.5843 24.6333L99.6658 26.7938L99.6726 26.7872L97.5843 24.6333ZM82.1156 24.6333L80.0274 26.7872L80.0342 26.7938L82.1156 24.6333ZM82.1156 9.71143L84.197 11.8719L84.2038 11.8653L82.1156 9.71143ZM96.8812 14.7505L99.848 14.3055C99.6329 12.871 98.4222 11.7959 96.9723 11.7519C95.5225 11.7078 94.2488 12.7074 93.9469 14.1262L96.8812 14.7505ZM95.9632 16.3521L98.0193 18.5367L98.0248 18.5315L95.9632 16.3521ZM91.1976 16.3716L89.12 18.5357C89.1347 18.5499 89.1496 18.5638 89.1646 18.5776L91.1976 16.3716ZM91.1976 11.8989L89.1646 9.69286C89.1573 9.69955 89.1501 9.70628 89.1429 9.71304L91.1976 11.8989ZM94.0882 11.02L93.5951 13.9792C95.0554 14.2226 96.4749 13.3643 96.9378 11.9581C97.4007 10.5519 96.7686 9.01819 95.4493 8.34653L94.0882 11.02ZM87.9945 11.9771L90.0881 14.1257L90.0884 14.1254L87.9945 11.9771ZM87.9945 19.1646L85.9009 21.3132C85.9055 21.3177 85.91 21.3221 85.9146 21.3265L87.9945 19.1646ZM95.3968 19.1646L93.317 17.0026C93.3124 17.007 93.3078 17.0114 93.3032 17.0159L95.3968 19.1646ZM89.85 6.60596V9.60596C92.1049 9.60596 93.9301 10.3471 95.4961 11.8653L97.5843 9.71143L99.6726 7.55753C96.9677 4.93515 93.6367 3.60596 89.85 3.60596V6.60596ZM97.5843 9.71143L95.5029 11.8719C97.0654 13.3772 97.7875 15.0835 97.7875 17.1528H100.787H103.787C103.787 13.4149 102.374 10.1602 99.6658 7.55095L97.5843 9.71143ZM100.787 17.1528H97.7875C97.7875 19.2399 97.0617 20.9616 95.4961 22.4794L97.5843 24.6333L99.6726 26.7872C102.378 24.1644 103.787 20.8991 103.787 17.1528H100.787ZM97.5843 24.6333L95.5029 22.4728C93.9381 23.9804 92.1107 24.7192 89.85 24.7192V27.7192V30.7192C93.6309 30.7192 96.9597 29.4008 99.6658 26.7938L97.5843 24.6333ZM89.85 27.7192V24.7192C87.5892 24.7192 85.7618 23.9804 84.197 22.4728L82.1156 24.6333L80.0342 26.7938C82.7402 29.4008 86.0691 30.7192 89.85 30.7192V27.7192ZM82.1156 24.6333L84.2038 22.4794C82.6383 20.9616 81.9125 19.2399 81.9125 17.1528H78.9125H75.9125C75.9125 20.8991 77.3221 24.1644 80.0274 26.7872L82.1156 24.6333ZM78.9125 17.1528H81.9125C81.9125 15.0835 82.6345 13.3772 84.197 11.8719L82.1156 9.71143L80.0342 7.55095C77.3258 10.1602 75.9125 13.4149 75.9125 17.1528H78.9125ZM82.1156 9.71143L84.2038 11.8653C85.7698 10.3471 87.5951 9.60596 89.85 9.60596V6.60596V3.60596C86.0632 3.60596 82.7322 4.93515 80.0274 7.55753L82.1156 9.71143ZM96.8812 14.7505L93.9469 14.1262C93.9458 14.1315 93.9454 14.1313 93.9469 14.1275C93.9484 14.1236 93.9501 14.1201 93.9513 14.118C93.9524 14.1161 93.951 14.1191 93.9445 14.1272C93.9379 14.1355 93.9247 14.1509 93.9016 14.1726L95.9632 16.3521L98.0248 18.5315C98.9205 17.6842 99.551 16.6182 99.8155 15.3748L96.8812 14.7505ZM95.9632 16.3521L93.9072 14.1674C93.8337 14.2366 93.7896 14.2562 93.7711 14.2635C93.7519 14.271 93.6982 14.2896 93.5804 14.2896V17.2896V20.2896C95.2574 20.2896 96.7903 19.6934 98.0193 18.5367L95.9632 16.3521ZM93.5804 17.2896V14.2896C93.3895 14.2896 93.3264 14.2537 93.2307 14.1655L91.1976 16.3716L89.1646 18.5776C90.397 19.7134 91.9224 20.2896 93.5804 20.2896V17.2896ZM91.1976 16.3716L93.2752 14.2074C93.2385 14.1722 93.2213 14.1496 93.2155 14.1414C93.2101 14.1338 93.2122 14.1354 93.2164 14.1451C93.2207 14.155 93.2228 14.1632 93.2234 14.166C93.2238 14.1682 93.2211 14.1561 93.2211 14.1255H90.2211H87.2211C87.2211 15.8459 87.9026 17.367 89.12 18.5357L91.1976 16.3716ZM90.2211 14.1255H93.2211C93.2211 14.0948 93.2238 14.084 93.2229 14.0885C93.2219 14.0936 93.2188 14.1054 93.2126 14.1195C93.2064 14.1336 93.2017 14.1399 93.2037 14.1371C93.2061 14.1337 93.2195 14.1157 93.2524 14.0848L91.1976 11.8989L89.1429 9.71304C87.9052 10.8765 87.2211 12.4028 87.2211 14.1255H90.2211ZM91.1976 11.8989L93.2307 14.105C93.3264 14.0168 93.3895 13.981 93.5804 13.981V10.981V7.98096C91.9224 7.98096 90.397 8.55712 89.1646 9.69286L91.1976 11.8989ZM93.5804 10.981V13.981C93.6004 13.981 93.6113 13.9817 93.614 13.9819C93.6167 13.9821 93.6101 13.9817 93.5951 13.9792L94.0882 11.02L94.5814 8.06084C94.24 8.00394 93.9039 7.98096 93.5804 7.98096V10.981ZM94.0882 11.02L95.4493 8.34653C94.2762 7.74932 93.0096 7.47314 91.7054 7.47314V10.4731V13.4731C92.1461 13.4731 92.468 13.5616 92.7272 13.6935L94.0882 11.02ZM91.7054 10.4731V7.47314C89.4832 7.47314 87.4933 8.27628 85.9006 9.82871L87.9945 11.9771L90.0884 14.1254C90.553 13.6726 91.037 13.4731 91.7054 13.4731V10.4731ZM87.9945 11.9771L85.9009 9.82836C84.3112 11.3773 83.4711 13.3478 83.4711 15.5708H86.4711H89.4711C89.4711 14.9813 89.6465 14.556 90.0881 14.1257L87.9945 11.9771ZM86.4711 15.5708H83.4711C83.4711 17.7938 84.3112 19.7643 85.9009 21.3132L87.9945 19.1646L90.0881 17.0159C89.6465 16.5856 89.4711 16.1603 89.4711 15.5708H86.4711ZM87.9945 19.1646L85.9146 21.3265C87.51 22.8613 89.4955 23.6489 91.7054 23.6489V20.6489V17.6489C91.0248 17.6489 90.5363 17.447 90.0744 17.0026L87.9945 19.1646ZM91.7054 20.6489V23.6489C93.9161 23.6489 95.9027 22.8603 97.4904 21.3132L95.3968 19.1646L93.3032 17.0159C92.8598 17.448 92.3854 17.6489 91.7054 17.6489V20.6489ZM95.3968 19.1646L97.4767 21.3265C99.0833 19.781 99.9398 17.8066 99.9398 15.5708H96.9398H93.9398C93.9398 16.1475 93.7677 16.569 93.317 17.0026L95.3968 19.1646ZM96.9398 15.5708H99.9398C99.9398 15.1482 99.911 14.7254 99.848 14.3055L96.8812 14.7505L93.9144 15.1955C93.9296 15.2964 93.9398 15.4205 93.9398 15.5708H96.9398ZM112.572 27.4067L110.163 25.6183C109.671 26.2816 109.474 27.1185 109.618 27.9319C109.763 28.7452 110.236 29.4629 110.927 29.9158L112.572 27.4067ZM115.951 22.856L117.568 20.329C116.24 19.4795 114.482 19.8022 113.542 21.0676L115.951 22.856ZM124.31 23.6372L126.439 25.7511C126.458 25.7317 126.477 25.7121 126.496 25.6923L124.31 23.6372ZM121.908 17.7583L123.579 15.2668C123.46 15.187 123.335 15.1159 123.206 15.0539L121.908 17.7583ZM114.818 12.7778L117.013 10.733C116.92 10.6336 116.821 10.5405 116.716 10.4545L114.818 12.7778ZM114.388 5.5708L112.056 3.68431C111.906 3.86893 111.779 4.07063 111.678 4.28516L114.388 5.5708ZM123.705 3.3833L123.072 6.31579C123.086 6.31882 123.1 6.32175 123.114 6.32458L123.705 3.3833ZM130.97 7.46533L133.442 9.16492C134.191 8.07532 134.139 6.62376 133.313 5.59125L130.97 7.46533ZM128.392 11.2153L126.704 13.6955C128.07 14.6245 129.929 14.2756 130.864 12.9149L128.392 11.2153ZM119.837 8.3833L118.404 5.748C117.855 6.04648 117.413 6.50877 117.14 7.07038L119.837 8.3833ZM126.439 14.5942L128.004 12.0347C127.946 11.9993 127.887 11.9658 127.826 11.9344L126.439 14.5942ZM127.826 28.4419L130.15 30.3386C130.188 30.2922 130.224 30.2447 130.259 30.1961L127.826 28.4419ZM112.572 27.4067L114.98 29.1951L118.359 24.6444L115.951 22.856L113.542 21.0676L110.163 25.6183L112.572 27.4067ZM115.951 22.856L114.334 25.3829C116.389 26.6978 118.487 27.6321 120.554 27.8254C122.772 28.0327 124.836 27.3652 126.439 25.7511L124.31 23.6372L122.181 21.5233C121.935 21.7711 121.681 21.9045 121.113 21.8514C120.394 21.7842 119.237 21.3969 117.568 20.329L115.951 22.856ZM124.31 23.6372L126.496 25.6923C127.178 24.9668 127.758 24.056 128.009 22.9516C128.265 21.8201 128.122 20.7157 127.717 19.7241C126.97 17.8948 125.336 16.4451 123.579 15.2668L121.908 17.7583L120.237 20.2498C120.931 20.7158 121.415 21.1178 121.737 21.4464C122.064 21.781 122.152 21.9678 122.163 21.9937C122.165 21.9991 122.148 21.9596 122.141 21.8819C122.133 21.8013 122.137 21.7114 122.157 21.625C122.197 21.4468 122.263 21.4352 122.125 21.5821L124.31 23.6372ZM121.908 17.7583L123.206 15.0539C120.503 13.7559 118.472 12.2989 117.013 10.733L114.818 12.7778L112.623 14.8226C114.706 17.0589 117.401 18.9222 120.609 20.4627L121.908 17.7583ZM114.818 12.7778L116.716 10.4545C116.446 10.2344 116.341 10.0368 116.318 9.66472C116.288 9.16195 116.432 8.26307 117.099 6.85644L114.388 5.5708L111.678 4.28516C110.782 6.17281 110.216 8.12223 110.329 10.0218C110.45 12.0521 111.34 13.8108 112.92 15.1012L114.818 12.7778ZM114.388 5.5708L116.721 7.45729C117.644 6.31526 119.354 5.51341 123.072 6.31579L123.705 3.3833L124.337 0.450809C119.488 -0.595767 114.986 0.0607128 112.056 3.68431L114.388 5.5708ZM123.705 3.3833L123.114 6.32458C125.754 6.85474 127.491 7.91806 128.628 9.33942L130.97 7.46533L133.313 5.59125C131.117 2.84593 128.009 1.1879 124.295 0.442024L123.705 3.3833ZM130.97 7.46533L128.498 5.76575L125.92 9.51575L128.392 11.2153L130.864 12.9149L133.442 9.16492L130.97 7.46533ZM128.392 11.2153L130.08 8.73514C127.939 7.2783 125.944 6.17655 124.14 5.57925C122.399 5.00307 120.291 4.72121 118.404 5.748L119.837 8.3833L121.271 11.0186C121.011 11.16 121.143 10.9074 122.254 11.2752C123.301 11.622 124.77 12.3789 126.704 13.6955L128.392 11.2153ZM119.837 8.3833L117.14 7.07038C116.517 8.35079 116.625 9.67211 117.08 10.7587C117.495 11.7479 118.195 12.5662 118.895 13.2245C120.302 14.5484 122.428 15.8856 125.052 17.2541L126.439 14.5942L127.826 11.9344C125.333 10.6336 123.8 9.60099 123.006 8.85457C122.606 8.47775 122.571 8.33572 122.614 8.4395C122.698 8.64071 122.8 9.15149 122.535 9.69622L119.837 8.3833ZM126.439 14.5942L124.874 17.1538C126.989 18.4468 127.637 19.6828 127.746 20.7672C127.871 22.0189 127.374 23.9377 125.392 26.6877L127.826 28.4419L130.259 30.1961C132.613 26.9305 134.053 23.5335 133.716 20.1693C133.362 16.6378 131.149 13.9579 128.004 12.0347L126.439 14.5942ZM127.826 28.4419L125.501 26.5451C124.538 27.7256 123.421 28.2177 121.833 28.1099C120.034 27.9879 117.528 27.0681 114.216 24.8977L112.572 27.4067L110.927 29.9158C114.608 32.3287 118.14 33.8731 121.426 34.0961C124.923 34.3334 127.936 33.0515 130.15 30.3386L127.826 28.4419ZM132.702 3.52002L133.06 0.541389C132.228 0.441542 131.392 0.694279 130.754 1.23841C130.117 1.78255 129.736 2.56847 129.704 3.4059L132.702 3.52002ZM139.05 4.28174L142.043 4.48674C142.152 2.89311 140.993 1.49343 139.407 1.30311L139.05 4.28174ZM137.78 22.8169L134.787 22.6119C134.727 23.4939 135.059 24.3577 135.694 24.9726C136.329 25.5875 137.204 25.8908 138.083 25.8016L137.78 22.8169ZM148.757 21.7036L151.751 21.509C151.698 20.6963 151.317 19.9399 150.695 19.4137C150.074 18.8876 149.265 18.6367 148.454 18.7189L148.757 21.7036ZM149.265 29.5161L149.381 32.5138C150.19 32.4824 150.952 32.1256 151.493 31.5246C152.035 30.9235 152.311 30.129 152.258 29.3215L149.265 29.5161ZM131.687 30.1997L128.689 30.0856C128.657 30.9207 128.975 31.7312 129.566 32.3219C130.157 32.9126 130.968 33.2299 131.803 33.1974L131.687 30.1997ZM132.702 3.52002L132.345 6.49865L138.693 7.26037L139.05 4.28174L139.407 1.30311L133.06 0.541389L132.702 3.52002ZM139.05 4.28174L136.057 4.07674L134.787 22.6119L137.78 22.8169L140.773 23.0219L142.043 4.48674L139.05 4.28174ZM137.78 22.8169L138.083 25.8016L149.06 24.6883L148.757 21.7036L148.454 18.7189L137.478 19.8322L137.78 22.8169ZM148.757 21.7036L145.763 21.8982L146.271 29.7107L149.265 29.5161L152.258 29.3215L151.751 21.509L148.757 21.7036ZM149.265 29.5161L149.148 26.5184L131.57 27.202L131.687 30.1997L131.803 33.1974L149.381 32.5138L149.265 29.5161ZM131.687 30.1997L134.685 30.3138L135.7 3.63414L132.702 3.52002L129.704 3.4059L128.689 30.0856L131.687 30.1997ZM168.927 9.71143L166.838 11.8653L166.845 11.8719L168.927 9.71143ZM168.927 24.6333L171.008 26.7938L171.015 26.7872L168.927 24.6333ZM153.458 24.6333L151.37 26.7872L151.376 26.7938L153.458 24.6333ZM153.458 9.71143L155.539 11.8719L155.546 11.8653L153.458 9.71143ZM168.223 14.7505L171.19 14.3055C170.975 12.871 169.764 11.7959 168.315 11.7519C166.865 11.7078 165.591 12.7074 165.289 14.1262L168.223 14.7505ZM167.305 16.3521L169.362 18.5367L169.367 18.5315L167.305 16.3521ZM162.54 16.3716L160.462 18.5357C160.477 18.5499 160.492 18.5638 160.507 18.5776L162.54 16.3716ZM162.54 11.8989L160.507 9.69286C160.5 9.69955 160.492 9.70628 160.485 9.71304L162.54 11.8989ZM165.43 11.02L164.937 13.9792C166.398 14.2226 167.817 13.3643 168.28 11.9581C168.743 10.5519 168.111 9.01819 166.791 8.34653L165.43 11.02ZM159.337 11.9771L161.43 14.1257L161.431 14.1254L159.337 11.9771ZM159.337 19.1646L157.243 21.3132C157.248 21.3177 157.252 21.3221 157.257 21.3265L159.337 19.1646ZM166.739 19.1646L164.659 17.0026C164.655 17.007 164.65 17.0114 164.645 17.0159L166.739 19.1646ZM161.192 6.60596V9.60596C163.447 9.60596 165.272 10.3471 166.838 11.8653L168.927 9.71143L171.015 7.55753C168.31 4.93515 164.979 3.60596 161.192 3.60596V6.60596ZM168.927 9.71143L166.845 11.8719C168.408 13.3772 169.13 15.0835 169.13 17.1528H172.13H175.13C175.13 13.4149 173.716 10.1602 171.008 7.55095L168.927 9.71143ZM172.13 17.1528H169.13C169.13 19.2399 168.404 20.9616 166.838 22.4794L168.927 24.6333L171.015 26.7872C173.72 24.1644 175.13 20.8991 175.13 17.1528H172.13ZM168.927 24.6333L166.845 22.4728C165.28 23.9804 163.453 24.7192 161.192 24.7192V27.7192V30.7192C164.973 30.7192 168.302 29.4008 171.008 26.7938L168.927 24.6333ZM161.192 27.7192V24.7192C158.931 24.7192 157.104 23.9804 155.539 22.4728L153.458 24.6333L151.376 26.7938C154.082 29.4008 157.411 30.7192 161.192 30.7192V27.7192ZM153.458 24.6333L155.546 22.4794C153.98 20.9616 153.255 19.2399 153.255 17.1528H150.255H147.255C147.255 20.8991 148.664 24.1644 151.37 26.7872L153.458 24.6333ZM150.255 17.1528H153.255C153.255 15.0835 153.977 13.3772 155.539 11.8719L153.458 9.71143L151.376 7.55095C148.668 10.1602 147.255 13.4149 147.255 17.1528H150.255ZM153.458 9.71143L155.546 11.8653C157.112 10.3471 158.937 9.60596 161.192 9.60596V6.60596V3.60596C157.405 3.60596 154.074 4.93515 151.37 7.55753L153.458 9.71143ZM168.223 14.7505L165.289 14.1262C165.288 14.1315 165.288 14.1313 165.289 14.1275C165.291 14.1236 165.292 14.1201 165.293 14.118C165.295 14.1161 165.293 14.1191 165.287 14.1272C165.28 14.1355 165.267 14.1509 165.244 14.1726L167.305 16.3521L169.367 18.5315C170.263 17.6842 170.893 16.6182 171.158 15.3748L168.223 14.7505ZM167.305 16.3521L165.249 14.1674C165.176 14.2366 165.132 14.2562 165.113 14.2635C165.094 14.271 165.04 14.2896 164.923 14.2896V17.2896V20.2896C166.6 20.2896 168.133 19.6934 169.362 18.5367L167.305 16.3521ZM164.923 17.2896V14.2896C164.732 14.2896 164.669 14.2537 164.573 14.1655L162.54 16.3716L160.507 18.5776C161.739 19.7134 163.265 20.2896 164.923 20.2896V17.2896ZM162.54 16.3716L164.617 14.2074C164.581 14.1722 164.563 14.1496 164.558 14.1414C164.552 14.1338 164.554 14.1354 164.559 14.1451C164.563 14.155 164.565 14.1632 164.566 14.166C164.566 14.1682 164.563 14.1561 164.563 14.1255H161.563H158.563C158.563 15.8459 159.245 17.367 160.462 18.5357L162.54 16.3716ZM161.563 14.1255H164.563C164.563 14.0948 164.566 14.084 164.565 14.0885C164.564 14.0936 164.561 14.1054 164.555 14.1195C164.549 14.1336 164.544 14.1399 164.546 14.1371C164.548 14.1337 164.562 14.1157 164.595 14.0848L162.54 11.8989L160.485 9.71304C159.247 10.8765 158.563 12.4028 158.563 14.1255H161.563ZM162.54 11.8989L164.573 14.105C164.669 14.0168 164.732 13.981 164.923 13.981V10.981V7.98096C163.265 7.98096 161.739 8.55712 160.507 9.69286L162.54 11.8989ZM164.923 10.981V13.981C164.943 13.981 164.953 13.9817 164.956 13.9819C164.959 13.9821 164.952 13.9817 164.937 13.9792L165.43 11.02L165.924 8.06084C165.582 8.00394 165.246 7.98096 164.923 7.98096V10.981ZM165.43 11.02L166.791 8.34653C165.618 7.74932 164.352 7.47314 163.048 7.47314V10.4731V13.4731C163.488 13.4731 163.81 13.5616 164.069 13.6935L165.43 11.02ZM163.048 10.4731V7.47314C160.825 7.47314 158.835 8.27628 157.243 9.82871L159.337 11.9771L161.431 14.1254C161.895 13.6726 162.379 13.4731 163.048 13.4731V10.4731ZM159.337 11.9771L157.243 9.82836C155.653 11.3773 154.813 13.3478 154.813 15.5708H157.813H160.813C160.813 14.9813 160.989 14.556 161.43 14.1257L159.337 11.9771ZM157.813 15.5708H154.813C154.813 17.7938 155.653 19.7643 157.243 21.3132L159.337 19.1646L161.43 17.0159C160.989 16.5856 160.813 16.1603 160.813 15.5708H157.813ZM159.337 19.1646L157.257 21.3265C158.852 22.8613 160.838 23.6489 163.048 23.6489V20.6489V17.6489C162.367 17.6489 161.878 17.447 161.417 17.0026L159.337 19.1646ZM163.048 20.6489V23.6489C165.258 23.6489 167.245 22.8603 168.833 21.3132L166.739 19.1646L164.645 17.0159C164.202 17.448 163.728 17.6489 163.048 17.6489V20.6489ZM166.739 19.1646L168.819 21.3265C170.425 19.781 171.282 17.8066 171.282 15.5708H168.282H165.282C165.282 16.1475 165.11 16.569 164.659 17.0026L166.739 19.1646ZM168.282 15.5708H171.282C171.282 15.1482 171.253 14.7254 171.19 14.3055L168.223 14.7505L165.257 15.1955C165.272 15.2964 165.282 15.4205 165.282 15.5708H168.282ZM172.162 10.7075H169.162C169.162 11.5207 169.493 12.299 170.077 12.8642C170.662 13.4295 171.451 13.7332 172.263 13.7058L172.162 10.7075ZM172.162 4.61377L171.952 1.62115C170.381 1.73159 169.162 3.03854 169.162 4.61377H172.162ZM194.116 3.0708L197.115 3.15042C197.137 2.30467 196.801 1.48877 196.19 0.903715C195.579 0.318665 194.749 0.0188656 193.905 0.0781841L194.116 3.0708ZM193.94 9.69189L194.181 12.6822C195.709 12.559 196.898 11.3038 196.939 9.77151L193.94 9.69189ZM185.463 10.3755L185.222 7.3852C184.428 7.44926 183.691 7.8268 183.176 8.43451C182.66 9.04221 182.407 9.83012 182.474 10.6244L185.463 10.3755ZM187.006 28.9106L187.397 31.8851C188.985 31.6766 190.129 30.2577 189.996 28.6618L187.006 28.9106ZM179.272 29.9263L176.273 29.8601C176.253 30.7352 176.617 31.575 177.269 32.1595C177.92 32.744 178.795 33.0147 179.662 32.9007L179.272 29.9263ZM179.702 10.4536L182.701 10.5198C182.719 9.69534 182.397 8.89975 181.811 8.32002C181.224 7.74029 180.425 7.42756 179.601 7.45531L179.702 10.4536ZM172.162 10.7075H175.162V4.61377H172.162H169.162V10.7075H172.162ZM172.162 4.61377L172.373 7.60639L194.326 6.06342L194.116 3.0708L193.905 0.0781841L171.952 1.62115L172.162 4.61377ZM194.116 3.0708L191.117 2.99118L190.941 9.61228L193.94 9.69189L196.939 9.77151L197.115 3.15042L194.116 3.0708ZM193.94 9.69189L193.699 6.7016L185.222 7.3852L185.463 10.3755L185.704 13.3658L194.181 12.6822L193.94 9.69189ZM185.463 10.3755L182.474 10.6244L184.017 29.1595L187.006 28.9106L189.996 28.6618L188.453 10.1266L185.463 10.3755ZM187.006 28.9106L186.616 25.9362L178.881 26.9518L179.272 29.9263L179.662 32.9007L187.397 31.8851L187.006 28.9106ZM179.272 29.9263L182.271 29.9925L182.701 10.5198L179.702 10.4536L176.702 10.3874L176.273 29.8601L179.272 29.9263ZM179.702 10.4536L179.601 7.45531L172.061 7.70922L172.162 10.7075L172.263 13.7058L179.803 13.4519L179.702 10.4536ZM194.461 27.4067L192.052 25.6183C191.56 26.2816 191.363 27.1185 191.507 27.9319C191.652 28.7452 192.125 29.4629 192.816 29.9158L194.461 27.4067ZM197.84 22.856L199.457 20.329C198.129 19.4795 196.371 19.8022 195.431 21.0676L197.84 22.856ZM206.199 23.6372L208.328 25.7511C208.347 25.7317 208.366 25.7121 208.385 25.6923L206.199 23.6372ZM203.797 17.7583L205.468 15.2668C205.349 15.187 205.224 15.1159 205.095 15.0539L203.797 17.7583ZM196.707 12.7778L198.902 10.733C198.81 10.6336 198.71 10.5405 198.605 10.4545L196.707 12.7778ZM196.277 5.5708L193.945 3.68431C193.795 3.86893 193.669 4.07063 193.567 4.28516L196.277 5.5708ZM205.594 3.3833L204.961 6.31579C204.975 6.31882 204.989 6.32175 205.003 6.32458L205.594 3.3833ZM212.859 7.46533L215.331 9.16492C216.081 8.07532 216.028 6.62376 215.202 5.59125L212.859 7.46533ZM210.281 11.2153L208.593 13.6955C209.959 14.6245 211.818 14.2756 212.753 12.9149L210.281 11.2153ZM201.727 8.3833L200.293 5.748C199.744 6.04648 199.302 6.50877 199.029 7.07038L201.727 8.3833ZM208.328 14.5942L209.893 12.0347C209.835 11.9993 209.776 11.9658 209.716 11.9344L208.328 14.5942ZM209.715 28.4419L212.039 30.3386C212.077 30.2922 212.113 30.2447 212.149 30.1961L209.715 28.4419ZM194.461 27.4067L196.87 29.1951L200.248 24.6444L197.84 22.856L195.431 21.0676L192.052 25.6183L194.461 27.4067ZM197.84 22.856L196.223 25.3829C198.278 26.6978 200.376 27.6321 202.443 27.8254C204.661 28.0327 206.725 27.3652 208.328 25.7511L206.199 23.6372L204.07 21.5233C203.824 21.7711 203.57 21.9045 203.002 21.8514C202.283 21.7842 201.126 21.3969 199.457 20.329L197.84 22.856ZM206.199 23.6372L208.385 25.6923C209.067 24.9668 209.647 24.056 209.898 22.9516C210.154 21.8201 210.011 20.7157 209.606 19.7241C208.859 17.8948 207.225 16.4451 205.468 15.2668L203.797 17.7583L202.126 20.2498C202.821 20.7158 203.305 21.1178 203.626 21.4464C203.953 21.781 204.041 21.9678 204.052 21.9937C204.054 21.9991 204.038 21.9596 204.03 21.8819C204.022 21.8013 204.027 21.7114 204.046 21.625C204.087 21.4468 204.152 21.4352 204.014 21.5821L206.199 23.6372ZM203.797 17.7583L205.095 15.0539C202.392 13.7559 200.361 12.2989 198.902 10.733L196.707 12.7778L194.512 14.8226C196.595 17.0589 199.29 18.9222 202.498 20.4627L203.797 17.7583ZM196.707 12.7778L198.605 10.4545C198.336 10.2344 198.23 10.0368 198.208 9.66472C198.178 9.16195 198.321 8.26307 198.988 6.85644L196.277 5.5708L193.567 4.28516C192.671 6.17281 192.105 8.12223 192.218 10.0218C192.339 12.0521 193.23 13.8108 194.809 15.1012L196.707 12.7778ZM196.277 5.5708L198.61 7.45729C199.534 6.31526 201.243 5.51341 204.961 6.31579L205.594 3.3833L206.227 0.450809C201.377 -0.595767 196.875 0.0607128 193.945 3.68431L196.277 5.5708ZM205.594 3.3833L205.003 6.32458C207.643 6.85474 209.38 7.91806 210.517 9.33942L212.859 7.46533L215.202 5.59125C213.006 2.84593 209.899 1.1879 206.184 0.442024L205.594 3.3833ZM212.859 7.46533L210.387 5.76575L207.809 9.51575L210.281 11.2153L212.753 12.9149L215.331 9.16492L212.859 7.46533ZM210.281 11.2153L211.969 8.73514C209.828 7.2783 207.833 6.17655 206.029 5.57925C204.288 5.00307 202.18 4.72121 200.293 5.748L201.727 8.3833L203.16 11.0186C202.9 11.16 203.032 10.9074 204.143 11.2752C205.19 11.622 206.659 12.3789 208.593 13.6955L210.281 11.2153ZM201.727 8.3833L199.029 7.07038C198.406 8.35079 198.514 9.67211 198.969 10.7587C199.384 11.7479 200.084 12.5662 200.784 13.2245C202.191 14.5484 204.317 15.8856 206.941 17.2541L208.328 14.5942L209.716 11.9344C207.222 10.6336 205.689 9.60099 204.896 8.85457C204.495 8.47775 204.46 8.33572 204.503 8.4395C204.587 8.64071 204.689 9.15149 204.424 9.69622L201.727 8.3833ZM208.328 14.5942L206.763 17.1538C208.878 18.4468 209.526 19.6828 209.635 20.7672C209.76 22.0189 209.263 23.9377 207.281 26.6877L209.715 28.4419L212.149 30.1961C214.502 26.9305 215.942 23.5335 215.605 20.1693C215.252 16.6378 213.039 13.9579 209.893 12.0347L208.328 14.5942ZM209.715 28.4419L207.391 26.5451C206.427 27.7256 205.31 28.2177 203.722 28.1099C201.923 27.9879 199.417 27.0681 196.106 24.8977L194.461 27.4067L192.816 29.9158C196.497 32.3287 200.029 33.8731 203.315 34.0961C206.812 34.3334 209.825 33.0515 212.039 30.3386L209.715 28.4419Z" fill="#341D1A" mask="url(#path-1-outside-1_58_1219)"/>
</g>
<defs>
<filter id="filter0_di_58_1219" x="0" y="0" width="215.859" height="38.4458" filterUnits="userSpaceOnUse" color-interpolation-filters="sRGB">
<feFlood flood-opacity="0" result="BackgroundImageFix"/>
<feColorMatrix in="SourceAlpha" type="matrix" values="0 0 0 0 0 0 0 0 0 0 0 0 0 0 0 0 0 0 127 0" result="hardAlpha"/>
<feOffset dy="3"/>
<feComposite in2="hardAlpha" operator="out"/>
<feColorMatrix type="matrix" values="0 0 0 0 0.779167 0 0 0 0 0.505248 0 0 0 0 0.0986945 0 0 0 1 0"/>
<feBlend mode="normal" in2="BackgroundImageFix" result="effect1_dropShadow_58_1219"/>
<feBlend mode="normal" in="SourceGraphic" in2="effect1_dropShadow_58_1219" result="shape"/>
<feColorMatrix in="SourceAlpha" type="matrix" values="0 0 0 0 0 0 0 0 0 0 0 0 0 0 0 0 0 0 127 0" result="hardAlpha"/>
<feOffset dy="1"/>
<feComposite in2="hardAlpha" operator="arithmetic" k2="-1" k3="1"/>
<feColorMatrix type="matrix" values="0 0 0 0 1 0 0 0 0 0.862745 0 0 0 0 0.658824 0 0 0 1 0"/>
<feBlend mode="normal" in2="shape" result="effect2_innerShadow_58_1219"/>
</filter>
</defs>
</svg>
