<svg width="104" height="109" viewBox="0 0 104 109" fill="none" xmlns="http://www.w3.org/2000/svg">
<g clip-path="url(#clip0_58_730)">
<path d="M38.6788 42.3566C40.7015 40.1273 43.4848 38.8807 45.8501 38.0226C46.974 37.6148 48.2271 37.2216 49.0429 36.9336C49.9832 36.6017 50.5311 36.3479 50.7834 36.1324C51.032 35.92 51.1865 35.7344 51.2814 35.5862C51.3628 35.4591 51.4411 35.285 51.5305 35.042C51.5744 34.9226 51.6175 34.7983 51.6644 34.6604C51.7098 34.5268 51.7594 34.3792 51.8129 34.233C52.0108 33.6922 52.3464 32.8847 53.126 32.4264C54.214 31.7868 56.0468 31.1183 57.5294 32.4071C57.9317 32.7568 58.1997 33.2363 58.3917 33.7139C58.5878 34.2021 58.7361 34.7696 58.8548 35.376C59.0917 36.5869 59.2344 38.0826 59.3596 39.6651C59.6144 42.8848 59.8039 46.5145 60.4868 49.4903C60.8814 51.21 61.8661 52.986 63.1182 54.6508C64.3638 56.3067 65.8321 57.798 67.1248 58.9447C68.5192 60.1817 68.6388 62.4815 67.1049 63.7412L57.1067 71.951C55.6932 73.1118 53.5338 72.7542 52.6715 71.0612C51.7329 69.2179 50.4464 66.4755 49.1584 63.173C47.9423 60.0547 48.08 55.947 48.5855 52.4812C48.5699 52.4544 48.5431 52.4115 48.4944 52.3535C48.3473 52.1784 48.1027 51.9728 47.7997 51.7885C47.4981 51.605 47.1912 51.475 46.9465 51.4153C46.8068 51.3813 46.7316 51.3804 46.704 51.381C45.134 52.2748 44.4011 52.6554 43.5264 52.9567C43.0991 53.1039 42.6438 53.2306 42.0667 53.3921C41.4827 53.5555 40.7425 53.7624 39.7091 54.0783C38.6877 54.3906 38.1937 55.0788 37.9762 55.9815C37.7454 56.9399 37.8506 58.0977 38.093 59.0903C38.3169 60.0078 38.088 61.0778 37.2779 61.7699C36.2269 62.6678 34.6465 62.5431 33.7485 61.4921L29.0618 56.0068C28.2027 55.0013 28.3209 53.4893 29.3262 52.6301L29.696 52.3142C30.5502 51.5843 31.8347 51.6858 32.5645 52.5401C32.5725 52.5493 32.577 52.5508 32.5796 52.5516C32.585 52.5535 32.598 52.556 32.6155 52.5531C32.6329 52.5501 32.6475 52.5427 32.6578 52.5349C32.666 52.5286 32.6746 52.5207 32.6816 52.5042C33.9045 49.6431 36.1333 45.1624 38.6788 42.3566Z" fill="#9C1D28" stroke="#341D1A" stroke-width="2"/>
</g>
<defs>
<clipPath id="clip0_58_730">
<rect y="35.0779" width="54" height="96" rx="11" transform="rotate(-40.5108 0 35.0779)" fill="white"/>
</clipPath>
</defs>
</svg>
