<svg width="86" height="94" viewBox="0 0 86 94" fill="none" xmlns="http://www.w3.org/2000/svg">
<path d="M46.7805 32.0832C49.6787 32.7039 52.0796 34.2919 53.9539 35.7325C54.8459 36.418 55.7781 37.2002 56.4213 37.7032C57.1553 38.2773 57.6482 38.5988 57.9748 38.7079C58.2333 38.7943 58.4458 38.839 58.6157 38.8587C58.9815 38.9009 59.3949 38.82 60.1272 38.7371C60.725 38.6695 61.6245 38.5927 62.384 38.9968C62.9461 39.2961 63.5376 39.7043 63.9532 40.2393C64.3822 40.7916 64.6509 41.5229 64.4236 42.3813C64.2918 42.8788 63.9662 43.309 63.6259 43.658C63.2761 44.0168 62.8348 44.366 62.3527 44.7041C61.3898 45.3795 60.1332 46.0975 58.7985 46.8332C56.0746 48.3347 52.9772 49.9422 50.6889 51.656C48.1521 53.556 46.5148 57.1593 45.6668 60.0527C45.1488 61.8202 43.0511 63.0945 41.1499 62.4223L29.3847 58.2612C27.6401 57.6442 26.9993 55.6265 28.2617 54.0873C29.446 52.6436 31.1803 50.6645 33.3521 48.4827C35.5022 46.3228 39.0818 44.7824 42.2953 43.7624C42.3075 43.7429 42.3248 43.7175 42.3421 43.6829C42.4298 43.5078 42.5094 43.2424 42.5484 42.9376C42.5871 42.6341 42.5772 42.3544 42.5341 42.1565C42.519 42.0874 42.5034 42.0435 42.4926 42.0177C40.9838 41.2039 40.3116 40.8083 39.6416 40.2762C39.3113 40.0138 38.9859 39.7219 38.5705 39.3508C38.1505 38.9755 37.6173 38.5003 36.8501 37.8468C36.0753 37.1869 35.2124 37.0895 34.3257 37.2816C33.3921 37.4839 32.4451 38.0119 31.6975 38.5793C30.9537 39.1437 29.8995 39.4468 28.9213 39.12C27.6112 38.682 27.0117 37.3075 27.5828 36.0498L30.1274 30.4483C30.6356 29.3297 31.9921 28.7386 33.1574 29.1281L33.8224 29.3504C34.8189 29.6835 35.2829 30.7151 34.881 31.6747C37.974 31.4321 43.0637 31.2872 46.7805 32.0832Z" fill="#9C1D28" stroke="#341D1A" stroke-width="2"/>
</svg>
