<svg width="94" height="111" viewBox="0 0 94 111" fill="none" xmlns="http://www.w3.org/2000/svg">
<g clip-path="url(#clip0_58_825)">
<path d="M57.6649 38.603C55.7148 40.0099 53.6207 40.086 52.713 39.9372C52.6404 39.9253 52.5751 39.9043 52.5143 39.8781L51.8436 39.5895C51.6766 39.5177 51.5456 39.4062 51.5632 39.2446C51.6153 38.7646 52.1808 37.8099 54.2004 36.5097C56.3553 35.1224 58.4997 35.195 59.5928 35.4687C59.8415 35.5309 59.9949 35.6922 59.9506 35.9073C59.8381 36.4534 59.2911 37.4298 57.6649 38.603Z" fill="#A0EBB5"/>
<path d="M51.6965 39.2572C52.1214 39.0958 52.5739 38.9749 52.9988 38.8924C53.7664 38.7434 54.688 38.4527 55.7341 37.9365C57.4255 37.1017 58.7368 36.2909 59.5971 35.6988C59.8085 35.923 59.8743 36.2199 59.7138 36.5109C59.4115 37.0588 58.8019 37.783 57.6653 38.603C55.8194 39.9346 53.844 40.0737 52.8685 39.9585C52.6933 39.9378 52.5265 39.8824 52.3682 39.8143C52.0592 39.6814 51.8002 39.4837 51.6965 39.2572Z" fill="#6EAF80"/>
<path fill-rule="evenodd" clip-rule="evenodd" d="M54.6672 60.0551C55.6988 58.6555 55.4816 57.9085 55.863 57.1078C56.719 57.041 58.462 58.0076 59.122 58.437C64.7572 62.1099 64.701 70.3863 59.7632 74.0865C57.9442 75.447 55.2802 76.613 52.3014 76.0891C49.625 75.617 47.6786 74.4126 46.2938 72.7493C41.0288 66.4343 45.2655 56.5869 54.3128 56.8042C54.5653 58.0656 52.2121 60.2753 54.6672 60.0551ZM39.0965 55.9538C38.8333 56.3616 39.1556 55.991 38.73 56.2807C37.2907 57.2623 35.6684 57.365 36.4174 58.3644C37.106 59.2933 39.6155 57.3566 40.2699 57.1763C40.9487 57.7749 41.6172 59.278 41.9401 60.2424C43.2727 64.2228 41.5409 68.6718 38.2693 71.063C36.5435 72.3228 33.8685 73.0522 31.6735 72.7859C27.9755 72.3356 24.9177 70.0215 23.636 66.8007C20.5805 59.1039 27.8619 51.0795 36.1753 54.1047C36.8524 54.3514 38.6543 55.2732 39.0965 55.9538ZM54.6284 55.3294C51.9311 55.641 50.8035 55.2056 47.8185 57.0091C46.4698 57.8233 44.9477 59.2512 44.1692 60.6833C44.025 60.9529 43.9675 61.113 43.72 61.3016C43.3887 60.3527 43.5771 60.2058 42.8732 58.5736C42.5028 57.7142 41.8651 56.9988 41.558 56.2825C41.7933 55.9366 42.8082 55.1991 43.2301 54.8124C43.8366 54.2608 44.211 53.9033 44.7755 53.2836C50.1008 47.4625 50.8138 41.5544 51.0995 41.1002C51.526 41.5327 52.4374 43.2721 52.7534 43.906C53.2637 44.9299 53.6922 45.9569 54.0744 47.1981C54.4496 48.4154 54.7375 49.7301 54.7971 51.0992C54.8353 51.923 54.8291 54.6419 54.6284 55.3294ZM51.8337 39.5424C51.7173 38.9704 52.6271 37.9488 52.9643 37.5715C53.4031 37.075 54.0409 36.5464 54.6864 36.2148C55.9715 35.5578 58.6215 35.4331 59.833 36.1535C59.7077 36.6742 58.9642 37.6043 58.6157 38.0033C56.8766 40.013 54.0436 40.424 51.8337 39.5424ZM41.1648 36.8821C42.2675 36.0593 45.0269 36.0153 46.2884 36.5426C47.4234 37.0141 48.9991 38.3604 49.527 39.5262C48.5041 40.3702 45.6198 40.4008 44.3307 39.8686C43.2361 39.4198 41.375 37.7599 41.1648 36.8821ZM42.1623 69.045C42.3129 68.7842 42.3211 68.6049 42.6165 68.3992C42.6357 68.4257 42.6493 68.4616 42.6593 68.4855L42.7861 68.8568C42.8188 68.9951 42.8334 69.1371 42.873 69.2964C42.9381 69.5639 43.0164 69.7823 43.1019 70.0308C43.6287 71.5547 44.2104 72.5424 45.2386 73.7766C49.2588 78.5957 56.7652 78.9793 61.4615 74.533C64.0715 72.0614 65.949 67.6129 64.3109 62.8798C63.0007 59.0866 60.1307 56.6074 56.1654 55.6062L56.2527 51.4672C56.2015 50.0006 56.0462 48.8992 55.7152 47.571C54.8985 44.2926 53.659 42.9301 53.0842 41.3414C56.9998 41.4586 58.8728 40.6269 60.8562 37.4152C61.2386 36.7965 62.2215 35.4686 61.0273 34.9569C59.2469 34.198 56.538 33.9033 54.5683 34.6659C53.2621 35.172 52.1779 36.1579 51.3605 37.2154C51.2073 37.4095 50.7487 38.1768 50.5691 38.3174C50.389 38.2121 49.7586 37.375 49.5841 37.1785C49.181 36.724 49.0081 36.5699 48.5533 36.1902C45.0038 33.249 39.6159 35.5226 39.3746 36.2602C39.1443 36.9671 40.4236 38.4919 40.7574 38.8824C43.4092 41.9891 45.7233 42.1202 49.4464 41.1921C49.4971 42.2581 48.4433 44.6417 48.0836 45.5326C47.0822 48.0172 45.2934 50.5387 43.6 52.398C43.0792 52.9675 41.2723 54.7159 40.5074 55.0977C39.9725 54.8425 39.2932 53.9952 37.8746 53.2556C34.4708 51.4799 30.4577 51.588 27.2356 53.3796C23.7134 55.3376 20.5872 59.7408 21.6607 65.2454C23.1361 72.8067 31.4284 76.5336 38.1276 72.8738C39.6693 72.0278 41.2866 70.5508 42.1623 69.045Z" fill="#341D1A"/>
<path d="M46.1733 40.0794C43.7725 39.9453 42.0973 38.6864 41.4856 37.9995C41.4366 37.9445 41.3991 37.8871 41.3683 37.8285L41.0287 37.1821C40.9442 37.0211 40.9126 36.8521 41.0279 36.7376C41.3706 36.3974 42.4109 36.0114 44.7987 36.2721C47.3464 36.5504 48.967 37.9565 49.6442 38.8571C49.7983 39.062 49.816 39.2839 49.6461 39.4232C49.2151 39.7767 48.1754 40.1912 46.1733 40.0794Z" fill="#A0EBB5"/>
<path d="M41.1236 36.8313C41.5554 36.9733 41.9831 37.1641 42.3652 37.3674C43.0555 37.7348 43.9546 38.0889 45.0925 38.3462C46.9322 38.7621 48.4615 38.9573 49.5027 39.0387C49.5259 39.3459 49.3901 39.6181 49.0823 39.7432C48.5025 39.9787 47.573 40.1578 46.1737 40.0796C43.9011 39.9526 42.2785 38.8173 41.593 38.1139C41.4698 37.9875 41.3751 37.8395 41.295 37.687C41.1385 37.3892 41.0616 37.0726 41.1236 36.8313Z" fill="#6EAF80"/>
<path fill-rule="evenodd" clip-rule="evenodd" d="M54.6653 60.0562C52.2101 60.2765 54.5634 58.0668 54.3108 56.8053C45.2635 56.588 41.0268 66.4355 46.2919 72.7504C47.6767 74.4137 49.6231 75.6182 52.2995 76.0902C55.2782 76.6141 57.9422 75.4482 59.7612 74.0877C64.6991 70.3874 64.7553 62.111 59.12 58.4381C58.46 58.0087 56.7171 57.0421 55.861 57.1089C55.4796 57.9096 55.6969 58.6567 54.6653 60.0562Z" fill="#F7405E"/>
<path fill-rule="evenodd" clip-rule="evenodd" d="M39.0956 55.9549C38.6533 55.2743 36.8514 54.3524 36.1743 54.1058C27.8609 51.0806 20.5795 59.105 23.635 66.8018C24.9167 70.0226 27.9745 72.3366 31.6725 72.787C33.8676 73.0533 36.5425 72.3238 38.2684 71.064C41.5399 68.6728 43.2717 64.2239 41.9391 60.2435C41.6163 59.2791 40.9477 57.7759 40.269 57.1774C39.6146 57.3577 37.105 59.2943 36.4164 58.3654C35.6674 57.3661 37.2897 57.2633 38.7291 56.2817C39.1547 55.992 38.8323 56.3626 39.0956 55.9549Z" fill="#F7405E"/>
<path fill-rule="evenodd" clip-rule="evenodd" d="M30.6957 69.2166C30.4038 68.4937 30.3815 68.0571 30.3566 67.154C30.3554 66.9456 30.3506 66.0821 30.3893 65.9132C30.5634 65.0884 30.2977 65.5068 30.7918 65.1169L34.1671 65.2468C34.6269 65.8199 34.8201 68.4093 34.1274 68.7804C34.1539 69.9614 33.6212 70.54 32.7706 71.0709C31.3213 71.0393 31.0703 70.5246 30.6957 69.2166ZM30.0365 64.9326C29.4701 66.5933 29.7216 68.9541 30.5039 70.4087C32.3796 73.9117 36.1987 69.9995 35.0313 65.3809C34.7574 64.3205 33.9653 64.6525 32.7347 64.6892C31.8615 64.7139 30.829 64.6701 30.0365 64.9326Z" fill="#341D1A"/>
<path fill-rule="evenodd" clip-rule="evenodd" d="M30.6961 69.2163C30.8496 68.2725 31.0677 68.2217 32.2589 68.2547C33.0431 68.2801 33.5108 68.4859 34.1278 68.7801C34.8205 68.409 34.6273 65.8196 34.1675 65.2465C34.1111 65.8126 34.3367 65.3349 33.9815 65.7141C33.1586 65.8577 30.8685 66.3271 30.7922 65.1166C30.2981 65.5065 30.5637 65.0881 30.3897 65.9129C30.351 66.0819 30.3558 66.9453 30.357 67.1537C30.3819 68.0568 30.4042 68.4934 30.6961 69.2163Z" fill="#F5625C"/>
<path fill-rule="evenodd" clip-rule="evenodd" d="M30.6967 69.2168C31.0712 70.5249 31.3223 71.0396 32.7715 71.0711C33.6221 70.5403 34.1548 69.9616 34.1283 68.7807C33.5113 68.4864 33.0437 68.2806 32.2594 68.2552C31.0682 68.2222 30.8502 68.2731 30.6967 69.2168Z" fill="#FC867D"/>
<path fill-rule="evenodd" clip-rule="evenodd" d="M26.5587 64.2473C27.5029 62.7036 25.3598 61.068 24.1774 62.6131C22.8079 64.3974 25.6735 65.6815 26.5587 64.2473Z" fill="#341D1A"/>
<path fill-rule="evenodd" clip-rule="evenodd" d="M38.8949 62.1733C36.8196 65.5396 43.1035 65.7525 40.6909 62.0838L38.8949 62.1733Z" fill="#341D1A"/>
<path fill-rule="evenodd" clip-rule="evenodd" d="M34.1668 65.2466L30.7915 65.1166C30.8678 66.3271 33.1579 65.8577 33.9808 65.7141C34.336 65.3349 34.1104 65.8126 34.1668 65.2466Z" fill="#F4D7D8"/>
<path fill-rule="evenodd" clip-rule="evenodd" d="M55.2356 68.3903C55.7572 69.116 55.9832 68.5776 56.932 69.1623C53.1506 70.9528 56.517 74.2017 58.3161 72.3669C60.5759 70.0737 56.2775 67.0511 55.2356 68.3903Z" fill="#341D1A"/>
<path fill-rule="evenodd" clip-rule="evenodd" d="M48.7901 62.9106C48.8183 63.7399 49.6297 63.989 50.4305 65.3805C49.2594 65.479 48.4237 64.023 47.4688 64.6819C47.5572 64.9059 47.0557 64.8168 48.3305 65.3713C49.6054 65.9259 50.5116 66.6257 51.3472 66.1423C51.4306 65.3172 50.3326 64.0063 49.7246 63.2886C48.9769 62.4193 49.2278 62.8847 48.7901 62.9106Z" fill="#341D1A"/>
<path fill-rule="evenodd" clip-rule="evenodd" d="M51.4422 70.6846C51.0102 69.8829 51.3543 69.6287 50.7053 68.8325C50.2157 69.816 51.0119 71.0532 51.251 71.1811C51.9969 71.3492 52.6378 71.3239 53.1515 70.7589C52.2603 70.1689 52.6468 70.8974 51.4422 70.6846Z" fill="#341D1A"/>
</g>
<defs>
<clipPath id="clip0_58_825">
<rect x="45.8562" width="54" height="96" rx="11" transform="rotate(28.5332 45.8562 0)" fill="white"/>
</clipPath>
</defs>
</svg>
