<svg width="79" height="111" viewBox="0 0 79 111" fill="none" xmlns="http://www.w3.org/2000/svg">
<path d="M41.1385 38.4499C43.2808 39.6123 44.0744 42.2923 42.9116 44.4352C42.1905 45.7639 40.8865 46.5713 39.4904 46.7186L39.4999 47.1803L39.4996 47.2013L39.4985 47.2218C39.4633 47.7707 39.4824 48.3652 39.516 48.979L39.5529 49.599L39.5539 49.6074L39.5533 49.6126L39.6124 50.7179L39.6132 50.7184L39.6227 51.0736L39.6221 51.0788L39.6249 51.4525L39.6253 51.4538C39.6279 51.96 39.631 52.62 39.6579 53.2448C39.6779 53.7121 39.711 54.1325 39.7591 54.4464L39.8837 54.4706L40.4543 54.5802L40.2615 55.1278C40.1496 55.446 40.1365 55.6327 40.1499 55.7328C40.1602 55.8088 40.1846 55.839 40.2232 55.8681C40.2818 55.9123 40.3912 55.9606 40.5866 56.0031C40.7794 56.045 41.0051 56.0715 41.275 56.1022L41.2794 56.1024C41.5112 56.1287 41.7706 56.1586 42.0288 56.2057L42.3807 56.2656L43.9051 56.5339C44.207 56.5907 44.5109 56.6515 44.7722 56.7111C44.8537 56.4643 44.9561 56.2208 45.0841 55.9848C46.2469 53.842 48.9264 53.0466 51.0687 54.2091C53.211 55.3715 54.0046 58.0515 52.8418 60.1944C51.6789 62.3371 48.9995 63.1326 46.8572 61.9701C46.2772 61.6553 45.7959 61.2282 45.4253 60.7309L45.387 60.7668C43.8731 62.1662 41.7031 64.1735 40.014 65.8176C40.3854 67.4723 40.2534 69.0968 39.4856 70.5118C38.249 72.7908 35.6743 73.9762 32.6469 74.1484C29.6105 74.3211 26.0332 73.4873 22.6182 71.6342C19.2032 69.781 16.5543 67.2364 15.0441 64.5966C13.5385 61.9645 13.1298 59.1602 14.3664 56.8813C15.1086 55.5138 16.3384 54.5361 17.8552 53.939C18.2031 52.2231 18.537 50.4104 18.7359 49.2282L18.8912 48.248C18.9825 47.6052 19.0896 47.1188 19.1823 46.745C18.777 46.6587 18.3768 46.5156 17.9949 46.3084C15.8526 45.1459 15.0591 42.4659 16.2218 40.3231C17.3845 38.1802 20.064 37.3848 22.2063 38.5473C24.3484 39.7099 25.1413 42.3894 23.9785 44.5322C23.8931 44.6895 23.7989 44.8392 23.6978 44.982C24.1825 45.6044 24.9324 46.4597 25.6725 47.2357C26.104 47.6882 26.5249 48.1071 26.8809 48.4303C27.059 48.5921 27.2172 48.7261 27.3486 48.8275C27.3749 48.8478 27.4009 48.8638 27.4234 48.8803C27.6978 48.7287 27.9372 48.5812 28.1854 48.426L28.1921 48.4219L28.2072 48.4123C28.5874 48.1752 28.9884 47.9253 29.5396 47.6565L29.7477 47.5494C30.2574 47.2773 30.9349 46.8455 31.6919 46.3622L31.7209 46.3435L31.7325 46.3365L31.7396 46.3315L31.7477 46.3269C31.9537 46.1951 32.1636 46.0609 32.3746 45.9272L32.3754 45.9276L33.0169 45.5257C33.5203 45.2151 34.023 44.9176 34.4892 44.6736L34.4919 44.6728L35.0117 44.4027C34.6283 43.6738 34.4881 42.8292 34.6312 42.0019C34.6763 41.397 34.8477 40.7923 35.1549 40.2261C36.3176 38.0833 38.9963 37.2877 41.1385 38.4499Z" fill="#FF9B43" stroke="#341D1A"/>
<path fill-rule="evenodd" clip-rule="evenodd" d="M31.5347 62.7934C30.7758 65.3562 35.0717 66.8557 35.6998 63.974C36.307 61.2489 32.3404 60.0561 31.5347 62.7934Z" fill="white"/>
<path fill-rule="evenodd" clip-rule="evenodd" d="M25.556 59.9488C27.7807 58.2214 25.1967 54.9081 22.8391 56.6594C20.5268 58.3712 23.3794 61.6464 25.556 59.9488Z" fill="white"/>
<path fill-rule="evenodd" clip-rule="evenodd" d="M31.5361 62.7941C32.3418 60.0568 36.3084 61.2497 35.7012 63.9748C35.0731 66.8564 30.7772 65.3569 31.5361 62.7941ZM33.9781 60.5928C29.9008 60.3555 29.6388 65.7307 33.4205 66.2475C37.1079 66.7611 37.5027 60.8023 33.9781 60.5928Z" fill="#7E252E"/>
<path fill-rule="evenodd" clip-rule="evenodd" d="M25.5552 59.9484C23.3786 61.646 20.526 58.3709 22.8383 56.659C25.1959 54.9077 27.7799 58.221 25.5552 59.9484ZM25.1274 55.6382C21.6206 54.6149 19.5125 59.4281 23.2913 60.9669C26.5245 62.2735 28.8553 56.7255 25.1274 55.6382Z" fill="#7E252E"/>
<path fill-rule="evenodd" clip-rule="evenodd" d="M27.8737 65.4205C27.4225 65.5595 27.1068 65.596 26.5519 65.2629C26.2345 65.0668 26.1833 64.999 26.0056 64.7666C25.6197 64.2694 25.7758 64.5859 25.7568 64.1199C25.6491 63.5816 25.5928 63.759 25.9465 63.1513C26.8006 63.5668 26.9562 63.4273 27.689 63.5211C27.9309 64.0921 28.0556 64.2158 28.6584 64.6228C28.4014 65.347 28.4926 65.2525 27.8737 65.4205ZM30.2588 64.1639C29.4856 64.0562 29.7751 64.6131 28.8915 64.2376C28.1874 63.9435 28.0979 63.5191 28.0609 63.0272C27.5128 62.9617 26.2814 63.389 25.8352 62.2513C25.5594 61.5659 26.0752 62.2216 25.5255 61.4515C25.2599 62.3389 25.4067 61.9948 25.5151 62.6054C25.6572 63.4341 24.701 64.5625 26.401 65.5409C28.1628 66.5529 28.5981 65.0139 29.3592 64.7313C29.8143 64.5704 29.856 64.9209 30.2588 64.1639Z" fill="#843C43"/>
<path fill-rule="evenodd" clip-rule="evenodd" d="M25.7546 64.1186C26.3741 64.023 27.2384 64.508 27.5802 64.8214C28.1967 65.3799 27.8885 65.0047 27.8715 65.4193C28.4903 65.2513 28.3991 65.3458 28.6561 64.6216C28.0534 64.2146 27.9286 64.0909 27.6867 63.5199C26.954 63.4261 26.7983 63.5655 25.9443 63.1501C25.5905 63.7578 25.6468 63.5804 25.7546 64.1186Z" fill="#F5625C"/>
<path fill-rule="evenodd" clip-rule="evenodd" d="M32.8909 59.603C33.7778 59.8843 34.1323 59.6289 35.0147 59.9478C36.5961 60.526 36.1486 61.1148 37.1104 61.037C36.887 59.9162 33.9692 58.3969 32.8909 59.603Z" fill="#693638"/>
<path fill-rule="evenodd" clip-rule="evenodd" d="M25.5569 53.2724C26.4546 53.6076 26.5702 53.1586 27.1685 54.3549C27.5167 55.0395 27.3659 55.5974 28.0798 56.0648C28.6022 54.8369 26.2288 51.4301 25.5569 53.2724Z" fill="#7E252E"/>
<path fill-rule="evenodd" clip-rule="evenodd" d="M27.8708 65.419C27.8879 65.0045 28.1961 65.3796 27.5795 64.8212C27.2378 64.5078 26.3735 64.0228 25.7539 64.1184C25.7729 64.5845 25.6168 64.2679 26.0027 64.7651C26.1804 64.9975 26.2316 65.0653 26.549 65.2615C27.1039 65.5946 27.4196 65.558 27.8708 65.419Z" fill="#FC867D"/>
<path d="M14.3284 58.3284C16.9799 61.7278 20.6754 64.8769 25.1665 67.3139C29.5055 69.6683 33.9967 71.0382 38.1694 71.4621C35.269 74.4554 28.8418 74.4424 22.8571 71.195C16.7866 67.9008 13.2566 62.4108 14.3284 58.3284ZM41.0072 38.9509C40.9521 38.9202 40.897 38.8892 40.8416 38.8588C40.861 38.8689 40.8804 38.8787 40.8996 38.8891C40.936 38.9089 40.9718 38.9302 41.0072 38.9509Z" fill="#C06E25"/>
<path d="M23.194 39.9905C24.0643 41.1628 24.2286 42.7872 23.4819 44.1632C22.4583 46.0491 20.1109 46.7549 18.2391 45.7392C17.4516 45.3119 16.8756 44.6469 16.5465 43.8808C16.8693 44.3161 17.2875 44.6906 17.7944 44.9657C19.6664 45.9815 22.0137 45.2758 23.0372 43.3897C23.6306 42.2962 23.6483 41.0461 23.194 39.9905Z" fill="#C06E25"/>
<path d="M41.8976 39.8354C42.7679 41.0078 42.9322 42.6321 42.1855 44.0082C41.1619 45.8941 38.8145 46.5999 36.9427 45.5842C36.1552 45.1569 35.5792 44.4919 35.2501 43.7258C35.5729 44.1611 35.9911 44.5356 36.498 44.8107C38.37 45.8265 40.7173 45.1208 41.7408 43.2347C42.3342 42.1411 42.3519 40.8911 41.8976 39.8354Z" fill="#C06E25"/>
<path d="M51.8557 55.5433C52.7258 56.7157 52.8902 58.3401 52.1435 59.7161C51.1199 61.6019 48.773 62.3068 46.9012 61.2912C46.1138 60.864 45.5373 60.1997 45.2081 59.4336C45.5309 59.8689 45.9491 60.2435 46.456 60.5186C48.328 61.5343 50.6753 60.8286 51.6988 58.9425C52.2922 57.8491 52.3099 56.5989 51.8557 55.5433Z" fill="#C06E25"/>
</svg>
