<svg width="98" height="110" viewBox="0 0 98 110" fill="none" xmlns="http://www.w3.org/2000/svg">
<g clip-path="url(#clip0_58_851)">
<path d="M50.802 30.991C51.4223 30.5868 52.1903 30.4785 52.8983 30.695L61.5798 33.3501C62.7375 33.7041 63.476 34.8366 63.3316 36.0387L59.4607 68.2609C59.2727 69.8257 57.7011 70.8283 56.2028 70.3394L25.3481 60.2706C24.2236 59.9035 23.5108 58.7987 23.6391 57.6228L24.56 49.1831C24.6413 48.4382 25.0529 47.7686 25.6808 47.3595L50.802 30.991Z" fill="#341D1A" stroke="#341D1A"/>
<path fill-rule="evenodd" clip-rule="evenodd" d="M58.6314 70.0583C59.0911 69.324 59.1911 66.7266 59.3265 65.8223C59.5592 64.2596 59.7489 62.9003 59.9109 61.3228L61.3119 50.1283C61.4148 49.4435 61.5079 48.6734 61.5792 47.9634C61.7356 46.4123 61.9049 44.9749 62.1213 43.4457L63.2146 34.5416L50.0781 43.0248L58.6314 70.0583Z" fill="#E1E1E1"/>
<path fill-rule="evenodd" clip-rule="evenodd" d="M56.8722 70.6907L36.3655 51.6518L24.4504 59.4231C26.6477 60.5618 44.0358 66.1569 48.7127 67.9529C49.8817 68.3963 55.9726 70.6819 56.8722 70.6907Z" fill="#E1E1E1"/>
<path d="M49.5928 43.0331L36.7531 51.3993L57.7512 70.2483L49.5928 43.0331Z" fill="#FFFCF4"/>
<path fill-rule="evenodd" clip-rule="evenodd" d="M36.5094 50.956L38.3651 39.839L25.5869 48.1346C26.1057 48.5211 35.7466 50.8505 36.5094 50.956Z" fill="#FFFCF4"/>
<path fill-rule="evenodd" clip-rule="evenodd" d="M50.091 42.3005C50.2576 41.7953 50.5811 40.1964 50.6765 39.5469L51.9358 31.2135L39.4825 39.282C39.9774 39.7605 48.9493 42.152 50.091 42.3005Z" fill="#FFFCF4"/>
<path fill-rule="evenodd" clip-rule="evenodd" d="M51.1178 42.0318L63.0396 34.2714L52.9872 30.9593C52.5402 32.0056 52.1798 35.0931 52.0036 36.3444C51.8596 37.3992 51.0342 41.049 51.1178 42.0318Z" fill="#FFFCF4"/>
<path fill-rule="evenodd" clip-rule="evenodd" d="M24.1018 58.8881L36.0569 51.167C35.4661 50.8808 26.213 48.4207 25.162 48.4115L24.1018 58.8881Z" fill="#FFFCF4"/>
<path fill-rule="evenodd" clip-rule="evenodd" d="M37.0374 50.3292L48.4971 42.8546L43.6931 41.3932C41.943 40.9547 40.7174 40.5253 38.9118 40.1306C38.3949 40.742 38.0133 43.9958 37.7855 45.0976L37.0374 50.3292Z" fill="#FFFCF4"/>
<path fill-rule="evenodd" clip-rule="evenodd" d="M47.8328 47.0888C48.596 50.2186 44.1789 52.7944 41.7668 51.3603L47.8328 47.0888ZM40.5479 51.4997C42.9049 54.8335 50.8912 50.5198 48.3118 46.0715C46.3395 46.6009 41.6107 49.8837 40.5479 51.4997Z" fill="#843C43"/>
<path fill-rule="evenodd" clip-rule="evenodd" d="M46.3809 42.2586C47.8749 42.3094 49.6356 40.3729 51.215 39.7301C52.6611 39.1405 54.8734 39.1598 55.4944 37.9996C54.6965 37.0586 54.8701 37.2477 53.4385 37.576C51.8152 37.9453 45.6271 40.0967 46.3809 42.2586Z" fill="#7E252E"/>
<path fill-rule="evenodd" clip-rule="evenodd" d="M29.5719 54.4707C30.9809 54.4426 32.9082 51.1382 34.6409 50.0092C35.0535 49.7403 35.8888 49.3472 36.1799 49.1239C37.8312 47.9472 36.9312 48.5504 37.1611 47.8465C36.5054 47.4845 37.2907 46.6538 34.1983 48.6856C32.548 49.7608 31.0155 51.1456 29.9415 52.7186C29.1171 53.9274 29.2812 53.535 29.5719 54.4707Z" fill="#7E252E"/>
<path fill-rule="evenodd" clip-rule="evenodd" d="M41.7674 51.3601C44.1795 52.7941 48.5965 50.2183 47.8334 47.0885L41.7674 51.3601Z" fill="#FC867D"/>
</g>
<defs>
<clipPath id="clip0_58_851">
<rect y="29.4797" width="54" height="96" rx="11" transform="rotate(-33.0876 0 29.4797)" fill="white"/>
</clipPath>
</defs>
</svg>
