<svg width="151" height="152" viewBox="0 0 151 152" fill="none" xmlns="http://www.w3.org/2000/svg">
<path d="M56.6475 36.6173C58.4025 35.7297 60.4599 34.8775 62.7018 34.3776L62.7027 34.3776C74.4529 31.7432 85.3353 33.0468 94.4217 39.7688L94.4216 39.7698C94.7434 40.0075 95.0496 40.2153 95.3271 40.4057C95.6037 40.5955 95.8497 40.7677 96.0747 40.9444L101.907 46.4547C102.822 47.5111 103.611 48.4487 104.427 49.5489L104.427 49.5499C105.875 51.4958 107.463 53.9093 108.607 56.2484L108.607 56.2494C113.785 66.8244 115.936 79.0648 112.608 91.2379L112.608 91.2369C111.07 96.8314 108.554 101.841 105.266 105.967L105.266 105.966C102.297 109.684 99.7509 111.677 97.6467 112.981C96.5891 113.636 95.6399 114.119 94.7799 114.57C93.9681 114.995 93.2214 115.4 92.5747 115.886C91.9367 116.022 91.2354 116.262 90.546 116.509C89.7998 116.776 89.0603 117.051 88.3537 117.245L88.3527 117.245L87.8104 117.389C86.5333 117.713 85.1865 117.95 83.785 118.107L83.784 118.107C83.7614 118.109 83.7388 118.113 83.7162 118.116C88.2278 116.64 91.9826 114.111 94.7102 111.463L95.2696 110.903C101.326 104.667 105.958 94.6662 106.43 84.3716C106.96 72.8152 104.796 62.8991 99.3382 53.4303C95.0276 45.9463 85.5754 40.7186 76.1278 37.4079C69.2916 35.0103 63.8118 34.7069 59.3146 35.7796C58.3822 36.002 57.4946 36.2847 56.6475 36.6173Z" fill="#DCA83B" stroke="#530D11"/>
<path d="M53.9387 37.6732C59.9348 32.8122 67.4511 32.1798 75.3006 34.9861C83.1626 37.7969 91.3276 44.0526 98.5032 52.9038C105.614 61.6756 108.49 74.6333 107.036 86.796C105.583 98.9601 99.8163 110.212 89.7873 115.663C73.4523 124.541 53.0658 115.436 44.6048 98.5134C31.2986 71.9001 41.1397 48.0492 53.9387 37.6732Z" fill="#F1BD46" stroke="#530D11"/>
<path d="M39.3856 61.384C40.5347 56.0304 42.606 50.9805 45.6697 46.5967L99.1864 105.144C97.8829 107.156 96.4431 108.981 94.9104 110.559C93.2077 112.314 91.0424 114.04 88.4973 115.468L39.3856 61.384ZM38.5197 76.8829C48.039 87.3652 63.7941 104.792 76.5554 118.92C73.0522 119.07 69.2586 118.518 65.2603 116.967C49.6855 110.926 40.0829 94.0719 38.5197 76.8829Z" fill="#FFD77C"/>
<ellipse cx="77.0383" cy="63.6731" rx="6.62461" ry="8.72436" transform="rotate(-38.0529 77.0383 63.6731)" fill="#53082B"/>
<ellipse cx="57.1803" cy="83.8969" rx="6.62461" ry="8.72436" transform="rotate(-38.0529 57.1803 83.8969)" fill="#53082B"/>
<ellipse cx="64.3166" cy="98.0945" rx="6.50352" ry="1.41545" transform="rotate(-46.0381 64.3166 98.0945)" fill="#6F200F"/>
<ellipse cx="90.9287" cy="72.0355" rx="6.50352" ry="1.41545" transform="rotate(-46.0381 90.9287 72.0355)" fill="#6F200F"/>
<path d="M79.6025 75.0167C80.1563 74.4809 81.0634 74.5794 81.4491 75.2465C82.529 77.1147 83.301 79.0155 83.7207 80.8391C84.1403 82.6626 84.1995 84.374 83.895 85.8753C83.5905 87.3765 82.9282 88.6388 81.946 89.5893C80.9637 90.5397 79.6805 91.1605 78.17 91.4155C76.6597 91.6705 74.9516 91.5546 73.143 91.0755C71.3342 90.5962 69.4596 89.7624 67.6279 88.6218C66.9737 88.2144 66.905 87.3046 67.4588 86.7687L68.2094 86.0423C68.3631 85.8935 68.5986 85.8714 68.7802 85.9845C70.2938 86.927 71.8002 87.5887 73.2058 87.9611C74.6105 88.3333 75.8659 88.4039 76.9205 88.2258C77.9694 88.0486 78.8169 87.6271 79.4522 87.0124C80.0876 86.3975 80.5371 85.5639 80.7486 84.5212C80.9612 83.4729 80.9318 82.216 80.6059 80.7998C80.2798 79.3828 79.6678 77.8554 78.7754 76.3118C78.6684 76.1267 78.6974 75.8926 78.8511 75.7439L79.6025 75.0167Z" fill="#53082B"/>
</svg>
