<svg width="39" height="38" viewBox="0 0 39 38" fill="none" xmlns="http://www.w3.org/2000/svg">
<path d="M30.0109 14.8088C30.7817 17.1128 30.8141 19.3959 29.9114 21.6042L29.9104 21.6044C29.865 21.7157 29.8272 21.8205 29.7953 21.9072C29.7647 21.9905 29.7388 22.056 29.7134 22.1145L28.634 24.0537C28.4137 24.3698 28.2212 24.6392 27.9887 24.9243L27.9879 24.9255C27.5653 25.4459 27.0311 26.0286 26.4942 26.4843C24.0174 28.588 20.9058 29.983 17.4546 29.9207L17.4555 29.9205C16.0643 29.8934 14.7456 29.6376 13.5619 29.1786L13.0631 28.9692C11.8796 28.4335 11.1929 27.8996 10.7201 27.4436C10.5338 27.2639 10.3792 27.0947 10.2328 26.9317C10.3878 27.0354 10.5412 27.1328 10.6941 27.2206C12.8938 28.4859 16.0367 29.0709 18.9671 28.4677C22.2195 27.7981 24.8419 26.489 27.1039 24.2879C28.9459 22.4964 29.7262 19.4392 29.9763 16.6116C30.0337 15.9645 30.0431 15.3646 30.0109 14.8088Z" fill="#DCA83B" stroke="#530D11"/>
<path d="M27.7912 10.8249C29.4115 12.0332 30.0772 13.9058 29.8645 16.1508C29.6505 18.4093 28.544 21.0126 26.6512 23.5512C24.8194 26.0078 21.5768 27.6556 18.2273 28.0933C14.8765 28.531 11.5366 27.7454 9.45634 25.4976C6.07011 21.8386 7.05284 15.8709 10.9751 12.4824C17.1885 7.11481 24.199 8.1464 27.7912 10.8249Z" fill="#F1BD46" stroke="#530D11"/>
<path d="M20.5177 8.20767C22.0599 8.14971 23.583 8.36525 24.9932 8.89765L12.7179 27.5777C12.078 27.3613 11.4796 27.0953 10.9424 26.7862C10.3447 26.4428 9.72257 25.971 9.15559 25.3746L20.5177 8.20767ZM16.2252 9.04662C14.0231 12.3738 10.3567 17.8853 7.38373 22.3511C7.10035 21.4052 6.98787 20.3314 7.13378 19.1326C7.70296 14.4596 11.6392 10.6668 16.2252 9.04662Z" fill="#FFD77C"/>
<ellipse cx="22.5078" cy="18.6515" rx="1.86691" ry="2.45865" transform="rotate(37.6884 22.5078 18.6515)" fill="#53082B"/>
<ellipse cx="15.6054" cy="14.6303" rx="1.86691" ry="2.45865" transform="rotate(37.6884 15.6054 14.6303)" fill="#53082B"/>
<ellipse cx="12.223" cy="17.5654" rx="1.83278" ry="0.398893" transform="rotate(29.7032 12.223 17.5654)" fill="#6F200F"/>
<ellipse cx="21.1876" cy="23.0251" rx="1.83278" ry="0.398893" transform="rotate(29.7032 21.1876 23.0251)" fill="#6F200F"/>
<path d="M19.6526 20.658C19.2173 21.0827 18.7517 21.4259 18.2828 21.6671C17.814 21.9082 17.351 22.0431 16.9199 22.0642C16.4887 22.0853 16.0977 21.9917 15.7699 21.7894C15.4421 21.5871 15.1839 21.2799 15.0094 20.8851C14.8348 20.4903 14.7471 20.0157 14.7525 19.4884C14.7578 18.9611 14.8559 18.391 15.0403 17.8116C15.1061 17.6046 15.3492 17.5225 15.534 17.6365L15.7861 17.7921C15.8374 17.8238 15.8584 17.8862 15.8401 17.9437C15.6878 18.4224 15.6115 18.8799 15.6073 19.2896C15.6032 19.6989 15.6712 20.0465 15.7929 20.3221C15.9141 20.5963 16.0882 20.7992 16.3002 20.9301C16.5122 21.061 16.7715 21.1256 17.071 21.1109C17.372 21.0962 17.7132 21.001 18.0772 20.8138C18.4415 20.6264 18.8163 20.3531 19.1759 20.0023C19.2191 19.9602 19.2842 19.951 19.3355 19.9827L19.5877 20.1383C19.7725 20.2523 19.808 20.5064 19.6526 20.658Z" fill="#53082B"/>
</svg>
