<svg width="54" height="96" viewBox="0 0 54 96" fill="none" xmlns="http://www.w3.org/2000/svg">
<g clip-path="url(#clip0_58_803)">
<path d="M46.8307 35.8476C43.121 37.3624 39.9591 35.68 38.6927 34.5316C38.5913 34.4397 38.5061 34.3333 38.4306 34.2192L37.5971 32.9585C37.3896 32.6446 37.2584 32.2714 37.3771 31.9143C37.7297 30.8534 39.1187 29.1532 42.8708 27.9462C46.8743 26.6583 50.0258 28.7282 51.4968 30.3291C51.8314 30.6932 51.9675 31.2012 51.7783 31.6581C51.2981 32.8178 49.9242 34.5844 46.8307 35.8476Z" fill="#A0EBB5"/>
<path d="M10.0525 40.6661C13.783 35.0157 20.1835 30.8993 27.5678 31.4213L27.5669 31.4216C29.0361 31.5253 30.6375 31.9471 32.0227 32.5306L32.0236 32.5303C32.2235 32.6148 32.3776 32.6942 32.5003 32.7572C32.6643 32.8414 32.7482 32.882 32.8413 32.9082C32.8952 32.9232 32.9612 32.9353 33.0555 32.9391C33.207 32.7701 33.3071 32.6105 33.4129 32.4361C33.5279 32.2469 33.6701 32.0067 33.9065 31.7914C34.1488 31.571 34.4613 31.3986 34.8991 31.2605L34.9 31.2602C35.602 31.0403 36.7578 31.0722 37.5781 31.9705C38.2628 32.6884 38.4431 33.4896 38.3253 34.2645C38.2646 34.6719 38.1568 34.9787 37.998 35.2333C37.8435 35.4807 37.6562 35.6532 37.509 35.7913C37.3727 35.9191 37.2475 36.0364 37.1252 36.1992C37.1544 36.2593 37.1956 36.3357 37.2519 36.428C37.4006 36.6721 37.6106 36.9696 37.8383 37.2919C38.1034 37.667 38.3959 38.0795 38.5912 38.424C39.106 39.3328 39.4665 40.1774 39.7843 41.1457L39.7846 41.1466C40.3646 42.9231 40.643 45.1488 40.5459 46.8434C40.0419 55.6776 33.706 63.7832 25.3006 65.9736L25.2996 65.9738C19.9294 67.3717 16.6418 66.0225 14.9438 65.3217C14.6229 65.1892 14.392 65.0939 14.2138 65.0406C14.1385 65.018 14.0905 65.0112 14.0641 65.0074C13.9392 65.0957 13.8368 65.2382 13.6725 65.4978C13.5095 65.7555 13.283 66.1224 12.8906 66.3909C12.4819 66.6705 11.9501 66.8098 11.2243 66.7658C9.68799 66.6736 8.66104 65.2746 8.80277 63.9946C8.68693 63.5905 8.83002 63.2122 8.98712 62.9418C9.16506 62.6358 9.42895 62.3463 9.62599 62.1274C9.74408 61.9963 9.83878 61.8898 9.91099 61.7966C9.93881 61.7607 9.95596 61.7319 9.96896 61.7119C9.9482 61.6548 9.91031 61.5737 9.84763 61.4663C9.7184 61.245 9.52922 60.9791 9.30729 60.6674C9.10906 60.3891 8.888 60.0791 8.69035 59.7646L8.50239 59.4497C5.19899 53.5888 6.32591 46.3105 10.0525 40.6661Z" fill="#F2B645" stroke="#341D1A"/>
<path fill-rule="evenodd" clip-rule="evenodd" d="M9.47187 63.9089C10.1112 64.1695 11.574 63.5314 12.1323 63.1444C13.9333 61.8948 12.0628 61.5442 17.5732 61.0221C18.5544 60.9291 19.4873 60.8319 20.4295 60.6973C22.4571 60.4083 24.6534 59.8788 26.6236 58.9129C27.339 58.5622 27.9876 58.2647 28.6535 57.7605C29.6125 57.0326 30.4314 56.4924 31.3145 55.5795C33.7526 53.0614 35.534 49.8999 36.3052 46.6737C36.5644 45.5886 36.6705 44.6945 36.7393 43.7222C37.0703 39.1608 35.0556 36.7054 35.4625 35.3111C35.7902 34.1877 36.4611 34.4218 37.3774 32.2841C36.7232 31.5601 35.7854 31.5258 35.21 31.706C33.9874 32.0917 34.2059 32.6667 33.4318 33.4049C32.7527 33.4435 32.6356 33.2324 31.9892 32.9593C30.6462 32.3936 29.0989 31.9882 27.6926 31.8889C13.3592 30.8756 2.72413 47.8636 9.09835 59.1726C9.67706 60.2017 10.723 61.3189 10.639 61.7722C10.5076 62.2633 9.13709 63.1649 9.47187 63.9089Z" fill="#FFD954"/>
<path fill-rule="evenodd" clip-rule="evenodd" d="M9.47204 63.9096C9.28642 64.933 10.1221 66.1577 11.415 66.2351C13.3747 66.3537 13.203 64.9543 14.0408 64.4982C14.8516 64.1445 18.147 67.3294 25.3345 65.4584C33.5172 63.3263 39.7145 55.4147 40.2068 46.7835C40.3004 45.1519 40.031 42.9881 39.47 41.27C39.1614 40.3298 38.8132 39.5165 38.3163 38.6392C37.8362 37.7926 36.6817 36.4366 36.7483 36.0694C37.2717 35.2269 37.8229 35.2962 37.9922 34.1597C38.0889 33.5269 37.949 32.8839 37.3776 32.2847C36.4613 34.4224 35.7904 34.1883 35.4627 35.3117C35.0558 36.706 37.0705 39.1614 36.7395 43.7228C36.6707 44.6951 36.5646 45.5892 36.3054 46.6744C35.5341 49.9005 33.7528 53.062 31.3147 55.5802C30.4316 56.493 29.6127 57.0332 28.6537 57.7612C27.9877 58.2653 27.3392 58.5628 26.6238 58.9136C24.6536 59.8794 22.4573 60.409 20.4296 60.6979C19.4875 60.8325 18.5546 60.9298 17.5734 61.0228C12.063 61.5449 13.9334 61.8954 12.1324 63.145C11.5741 63.5321 10.1114 64.1701 9.47204 63.9096Z" fill="#F2B645"/>
<path fill-rule="evenodd" clip-rule="evenodd" d="M19.365 36.5799C18.8816 37.1058 18.664 37.0762 18.2834 37.8567C18.2668 38.1398 18.3176 38.1495 18.2939 38.4888C18.209 39.7475 19.3969 39.5207 19.8554 39.7226C20.5915 39.3372 20.714 39.4078 21.0667 38.9978C21.4501 38.5537 21.5651 38.0359 21.5453 37.5962C21.4869 36.3571 20.0431 36.1549 19.365 36.5799Z" fill="#F4F4F4"/>
<path fill-rule="evenodd" clip-rule="evenodd" d="M19.1974 36.4881L19.3644 36.5806C20.0426 36.1557 21.4864 36.3579 21.5447 37.5969C21.5646 38.0367 21.4496 38.5544 21.0662 38.9985C20.7135 39.4086 20.5909 39.3379 19.8548 39.7234C18.8449 40.0549 18.5106 39.5217 18.0865 38.7305C18.0439 38.9859 17.9624 38.9929 18.1739 39.2795C18.3292 39.49 18.5643 39.6095 18.7746 39.747C19.2695 40.0712 19.3577 40.0557 19.8198 39.9607C21.7185 39.5693 22.214 37.2647 21.3367 36.6824C20.7876 36.3183 19.9525 35.8595 19.1974 36.4881Z" fill="#F2EA77"/>
<path fill-rule="evenodd" clip-rule="evenodd" d="M18.086 38.7285C18.5101 39.5197 18.8444 40.0529 19.8543 39.7214C19.3958 39.5194 18.2079 39.7462 18.2928 38.4876C18.3166 38.1482 18.2658 38.1385 18.2824 37.8555C18.663 37.075 18.8805 37.1045 19.3639 36.5786L19.1968 36.4861C19.0274 36.7019 18.8972 36.7181 18.7232 36.8751C18.532 37.0493 18.3567 37.3154 18.2343 37.5413C17.9622 38.04 17.9049 38.3353 18.086 38.7285Z" fill="#F5F3B7"/>
<path fill-rule="evenodd" clip-rule="evenodd" d="M14.6804 55.8184C15.3656 56.1057 14.8069 56.2068 15.5929 55.8574C16.1692 55.6081 17.7002 53.8988 18.7887 53.6514C18.5034 54.2327 18.0747 54.9376 17.564 55.6633C15.804 58.1183 16.2168 57.0642 16.6161 57.9624C16.6981 57.9417 16.7519 57.8461 16.8404 57.8775C16.9362 57.9163 17.0048 57.8211 17.0574 57.7849L18.1779 56.6026C18.9707 55.4738 21.1612 52.6183 20.9187 51.2626C20.0845 51.0023 20.2762 51.08 19.4113 51.6804L15.9942 54.2165C15.2338 54.7891 14.8203 55.0711 14.6804 55.8184Z" fill="#7E252E"/>
<path fill-rule="evenodd" clip-rule="evenodd" d="M26.7539 46.0018C27.2292 45.9957 33.1381 43.2156 32.925 41.8753C31.6188 41.4431 30.7549 43.2091 28.9223 43.5468C29.0832 42.8667 29.2903 42.5067 29.6369 41.8226C30.1917 40.719 30.1693 40.726 29.8765 40.0896C29.4217 40.1926 29.8612 39.7107 29.1118 40.4914C29.1118 40.4914 28.7204 41.1896 28.7201 41.2044L27.0955 44.3747C26.5513 45.3076 26.4418 45.2091 26.7539 46.0018Z" fill="#7E252E"/>
<path fill-rule="evenodd" clip-rule="evenodd" d="M27.6985 54.8468L26.629 54.0551C27.8953 52.6156 28.2249 52.0499 29.7587 51.8107L27.134 49.1789C26.9323 50.4671 25.5878 51.3112 24.5991 51.7831C24.6122 51.0706 24.0531 52.0033 24.8456 50.8893L27.0695 49.0515C25.9494 49.4023 25.701 50.4 24.2897 50.842C23.6467 51.491 23.7998 51.2414 23.5876 51.8834C24.4766 51.5804 23.5172 51.2659 24.663 52.3486C24.904 52.5683 25.4192 53.2237 25.74 53.5414C26.4544 54.2672 26.7431 54.7179 27.6985 54.8468Z" fill="#F5625C"/>
<path fill-rule="evenodd" clip-rule="evenodd" d="M27.0698 49.0512L27.1343 49.1786L29.759 51.8104C31.0887 54.2032 29.664 56.1892 27.6988 54.8465C26.7434 54.7176 26.4546 54.2669 25.7403 53.541C25.4194 53.2233 24.9043 52.568 24.6633 52.3483C23.5175 51.2656 24.4769 51.5801 23.5878 51.8831C24.6212 54.2407 28.3285 56.9517 30.2222 55.301C32.5231 53.3162 28.4189 47.5465 26.6253 48.5902L24.2899 50.8417C25.7013 50.3997 25.9497 49.402 27.0698 49.0512Z" fill="#7E252E"/>
<path fill-rule="evenodd" clip-rule="evenodd" d="M27.6986 54.8468C29.6638 56.1894 31.0885 54.2035 29.7588 51.8107C28.2249 52.0499 27.8953 52.6156 26.6291 54.055L27.6986 54.8468Z" fill="#FC867D"/>
<path fill-rule="evenodd" clip-rule="evenodd" d="M12.1844 52.246C13.3906 51.6519 13.961 50.5041 15.5545 49.8427C16.7367 49.3447 18.2846 49.5586 18.9319 48.6721C17.2722 46.8598 10.5692 50.8429 12.1844 52.246Z" fill="#7E252E"/>
<path fill-rule="evenodd" clip-rule="evenodd" d="M23.3999 44.7148C24.2806 44.0553 23.8838 42.6151 24.3379 41.3315C25.3792 38.3881 26.6101 38.8784 25.5172 37.7447C24.0581 38.364 21.735 43.5929 23.3999 44.7148Z" fill="#7E252E"/>
<path fill-rule="evenodd" clip-rule="evenodd" d="M27.1343 49.1787L27.0698 49.0513L24.8459 50.889C24.0533 52.003 24.6124 51.0703 24.5994 51.7829C25.588 51.3109 26.9325 50.4669 27.1343 49.1787Z" fill="#F4D7D8"/>
<path d="M37.4587 31.7011C37.8601 31.7418 38.2543 31.8391 38.6054 31.9895C39.9668 32.5728 41.8742 32.9461 44.3366 32.5971C47.5777 32.1378 50.1411 31.3515 51.7512 30.7207C51.8823 31.0165 51.9066 31.3482 51.7785 31.6578C51.2983 32.8174 49.9241 34.5843 46.8307 35.8475C43.121 37.3623 39.9588 35.6804 38.6924 34.5321C38.591 34.4401 38.5063 34.3332 38.4308 34.2191L37.5974 32.9587C37.39 32.645 37.2583 32.2715 37.3768 31.9146C37.3996 31.8461 37.427 31.7746 37.4587 31.7011Z" fill="#6EAF80"/>
<path fill-rule="evenodd" clip-rule="evenodd" d="M42.7176 27.4702C46.9783 26.0996 50.3216 28.3111 51.865 29.9908C52.3045 30.4691 52.5179 31.1789 52.2402 31.8494C51.7017 33.1501 50.2179 35.0045 47.0197 36.3105C43.0741 37.9216 39.7129 36.1318 38.3568 34.902C38.2167 34.775 38.1054 34.6339 38.0135 34.495L38.4306 34.2192L38.0135 34.495L37.18 33.2342C36.9384 32.8688 36.7126 32.3284 36.9026 31.7566L37.3694 31.9118L36.9026 31.7566C37.3251 30.4854 38.8848 28.7032 42.7176 27.4702ZM51.1286 30.6674C49.73 29.1452 46.7702 27.217 43.0239 28.4222C39.3525 29.6032 38.1343 31.2214 37.8516 32.072C37.8043 32.2143 37.8407 32.4204 38.0141 32.6827L38.8477 33.9435C38.9068 34.0328 38.9659 34.1044 39.0286 34.1612L38.6976 34.5262L39.0286 34.1612C40.2052 35.2283 43.1678 36.8032 46.6416 35.3847C49.6304 34.1643 50.8945 32.4856 51.3163 31.4669C51.417 31.2236 51.3584 30.9174 51.1286 30.6674Z" fill="#341D1A"/>
</g>
<defs>
<clipPath id="clip0_58_803">
<rect width="54" height="96" rx="11" fill="white"/>
</clipPath>
</defs>
</svg>
