<svg width="51" height="51" viewBox="0 0 51 51" fill="none" xmlns="http://www.w3.org/2000/svg">
<path d="M24.0384 11.6279C27.0182 11.5299 29.689 12.2847 31.8978 14.1063L32.1525 14.3224C32.2564 14.4133 32.3559 14.4941 32.4395 14.5623C32.5205 14.6283 32.5854 14.6828 32.6427 14.7353L34.3733 16.6655C34.637 17.0266 34.8602 17.3419 35.0865 17.707L35.0873 17.7081C35.5006 18.3714 35.9422 19.1828 36.2419 19.9508C37.5779 23.3698 37.9554 27.1972 36.7219 30.8769L36.5972 31.232C35.9588 32.9753 35.0262 34.501 33.876 35.7219C32.8339 36.8258 31.9805 37.3835 31.2929 37.7345C30.9434 37.9129 30.6327 38.0399 30.3362 38.1652C30.1252 38.2544 29.9116 38.3473 29.7096 38.4574C30.0857 38.2239 30.4318 37.9749 30.7435 37.7186L30.948 37.5461C33.1541 35.6221 34.9747 32.4102 35.4177 28.9841C35.9104 25.1732 35.4671 21.8147 33.9127 18.5143C32.6551 15.842 29.6159 13.84 26.6092 12.4979C25.6921 12.0883 24.8369 11.8042 24.0384 11.6279Z" fill="#DCA83B" stroke="#530D11"/>
<path d="M19.4178 12.5667C21.3857 11.225 23.7246 11.2057 26.1284 12.2968C28.5446 13.3935 30.9955 15.6053 33.073 18.6519C35.0926 21.6139 35.6762 25.8199 34.8871 29.6794C34.0976 33.5402 31.9612 36.9385 28.6749 38.3869C23.3248 40.7447 17.1 37.3733 14.8499 31.7543C11.2908 22.8662 15.0885 15.5188 19.4178 12.5667Z" fill="#F1BD46" stroke="#530D11"/>
<path d="M28.2401 23.6619L29.8661 33.0826L20.8277 29.0943L24.0141 25.097L28.2401 23.6619ZM27.4075 21.9348L23.047 23.5159L19.8717 27.5593C19.5458 26.7731 19.0154 20.7344 18.7911 17.8135L27.4075 21.9348Z" fill="#530D11"/>
<path d="M13.8385 19.6315C14.3579 17.9162 15.1701 16.3253 16.2878 14.9781L32.1573 35.5195C31.6781 36.1398 31.1602 36.6959 30.6181 37.1686C30.0149 37.6952 29.2615 38.2005 28.392 38.5976L13.8385 19.6315ZM13.1372 24.6624C15.9579 28.3381 20.6224 34.4461 24.4015 39.3981C23.2562 39.3515 22.0353 39.0701 20.7749 38.4571C15.8593 36.0656 13.1827 30.3101 13.1372 24.6624Z" fill="#FFD77C"/>
<path d="M27.2782 24.2171L28.9042 33.6378L19.8658 29.6494L23.0518 25.6513L27.2782 24.2171ZM26.4439 22.4886L22.0835 24.0697L18.9082 28.1131C18.5822 27.3269 18.0518 21.2882 17.8275 18.3673L26.4439 22.4886Z" fill="#FFE6AE"/>
<path d="M22.6092 26.2067L28.064 33.2664L19.8652 29.6489L22.6092 26.2067ZM21.516 24.7916L18.9073 28.1125C18.6404 27.4674 18.2388 23.3028 17.978 20.2117L21.516 24.7916Z" fill="#FFFCF6"/>
</svg>
