<svg width="111" height="111" viewBox="0 0 111 111" fill="none" xmlns="http://www.w3.org/2000/svg">
<path d="M49.6629 25.504C50.3731 25.378 51.1136 25.2882 51.8722 25.259L51.8732 25.2592C60.109 24.9323 67.2912 27.07 72.6818 32.4854L73.1978 33.0204C73.3941 33.2295 73.5838 33.4157 73.7524 33.5833C73.9184 33.7482 74.0621 33.8949 74.1912 34.0403L77.5477 38.6149C78.0501 39.4667 78.4792 40.2168 78.9047 41.0826L78.9045 41.0836C79.5694 42.4288 80.2623 44.0344 80.7575 45.598L80.9566 46.2643C83.2113 54.2742 83.1481 63.0496 79.2919 71.0778L79.2916 71.0787C77.5132 74.7676 75.1314 77.9245 72.3282 80.3684L72.3284 80.3675C69.7957 82.5712 67.78 83.6278 66.1613 84.2626C65.3462 84.5823 64.6283 84.7967 63.9694 85.0018C63.3596 85.1915 62.7847 85.3793 62.2656 85.636C61.8011 85.6528 61.2862 85.7286 60.7882 85.8104C60.2307 85.9019 59.6869 85.9979 59.1762 86.0429L59.1752 86.0426L58.7814 86.0731C58.2666 86.1078 57.7401 86.1217 57.2033 86.1149C60.2388 85.486 62.8915 84.2014 64.9063 82.7645L64.9054 82.7643C69.9546 79.1669 74.4813 72.7505 76.1317 65.5954C77.9809 57.5784 77.7372 50.3575 75.1278 43.0276C73.0573 37.2058 67.0907 32.3315 60.917 28.8135C56.5918 26.3475 52.8904 25.4077 49.6629 25.504Z" fill="#DCA83B" stroke="#530D11"/>
<path d="M45.4057 26.4186C50.1534 23.8227 55.4226 24.3278 60.5068 27.2675C65.6025 30.2139 70.4831 35.5962 74.3505 42.6696C78.1686 49.6532 78.5243 59.0157 75.9678 67.2852C73.4109 75.5561 67.9789 82.6214 60.3475 85.1247C47.9188 89.2015 34.9303 80.3215 31.204 67.4964C25.3374 47.304 35.2125 31.992 45.4057 26.4186Z" fill="#F1BD46" stroke="#530D11"/>
<path d="M62.3533 52.7265L63.8597 73.3852L45.2168 62.8669L52.9353 54.9248L62.3533 52.7265ZM60.9239 48.8268L51.1865 51.3098L43.4811 59.3532C42.9451 57.5888 43.0841 44.4556 43.2204 38.1098L60.9239 48.8268Z" fill="#530D11"/>
<path d="M32.158 40.9778C33.6419 37.3899 35.7296 34.1311 38.4252 31.4636L68.2856 79.1266C67.1206 80.3625 65.8855 81.4516 64.6162 82.3559C63.204 83.3631 61.4718 84.2917 59.513 84.9634L32.158 40.9778ZM29.5777 51.674C34.8801 60.1994 43.6454 74.3639 50.744 85.846C48.2821 85.5029 45.7066 84.6351 43.1162 83.0439C33.0237 76.8431 28.4757 63.8626 29.5777 51.674Z" fill="#FFD77C"/>
<path d="M60.1629 53.7188L61.6693 74.3774L43.026 63.8582L50.7455 55.9159L60.1629 53.7188ZM58.7286 49.8165L48.9902 52.2998L41.2858 60.3428C40.7498 58.5785 40.8878 45.4457 41.0242 39.0998L58.7286 49.8165Z" fill="#FFE6AE"/>
<path d="M49.6749 57.0167L59.9411 73.4026L43.0263 63.8587L49.6749 57.0167ZM47.6176 53.7324L41.2853 60.3432C40.8461 58.8975 40.8597 49.8192 40.9538 43.0959L47.6176 53.7324Z" fill="#FFFCF6"/>
</svg>
