<svg width="45" height="45" viewBox="0 0 45 45" fill="none" xmlns="http://www.w3.org/2000/svg">
<path d="M34.7339 16.5956C35.7939 19.3822 35.947 22.1534 34.9411 24.8339L34.8194 25.1449C34.7672 25.2727 34.723 25.393 34.6857 25.4943C34.6495 25.5923 34.6191 25.6714 34.588 25.7426L33.3241 28.0061C33.0682 28.3727 32.8425 28.6862 32.5706 29.0188L32.5698 29.0199C32.0766 29.6261 31.4525 30.3072 30.8234 30.84C28.0233 33.2135 24.5257 34.8132 20.6448 34.841L20.2685 34.8383C18.4124 34.8004 16.6665 34.4136 15.1383 33.722C13.7559 33.0947 12.9514 32.4686 12.3962 31.9322C12.1141 31.6595 11.893 31.4069 11.6783 31.1672C11.5254 30.9965 11.3681 30.8246 11.1985 30.6693C11.5414 30.9492 11.8893 31.1957 12.2329 31.4074L12.4624 31.5448C14.9984 33.0069 18.6274 33.6862 22.0117 32.9929C25.7761 32.2218 28.8089 30.7123 31.426 28.1707C33.5453 26.1137 34.4522 22.5891 34.7456 19.3096C34.8353 18.3092 34.8263 17.4081 34.7339 16.5956Z" fill="#DCA83B" stroke="#530D11"/>
<path d="M32.3461 12.5299C34.2539 13.9556 35.0314 16.1616 34.7798 18.7894C34.5269 21.4308 33.2305 24.467 31.0233 27.421C28.8773 30.2927 25.0886 32.2102 21.182 32.7166C17.274 33.2233 13.3662 32.3057 10.9294 29.6677C6.96252 25.3727 8.13053 18.3906 12.7147 14.4383C19.9661 8.18656 28.1484 9.39341 32.3461 12.5299Z" fill="#F1BD46" stroke="#530D11"/>
<path d="M24.7157 24.4762L16.3331 29.0724L17.1713 19.2288L21.9864 20.945L24.7157 24.4762ZM26.079 23.128L23.168 19.517L18.3127 17.8263C18.9505 17.2628 24.49 14.8008 27.1799 13.6404L26.079 23.128Z" fill="#530D11"/>
<path d="M23.8526 9.54634C25.6436 9.4807 27.412 9.73251 29.0491 10.3522L14.772 32.0307C14.0297 31.7788 13.3356 31.4695 12.7125 31.1102C12.0186 30.7106 11.2961 30.1621 10.6382 29.4686L23.8526 9.54634ZM18.8665 10.5161C16.3056 14.3773 12.0426 20.7721 8.58564 25.954C8.25796 24.8556 8.12773 23.6096 8.29841 22.2184C8.96462 16.7926 13.5394 12.3926 18.8665 10.5161Z" fill="#FFD77C"/>
<path d="M23.8783 23.7467L15.4957 28.3429L16.3339 18.4993L21.1498 20.2148L23.8783 23.7467ZM25.2424 22.3965L22.3314 18.7855L17.4762 17.0948C18.114 16.5312 23.6534 14.0692 26.3434 12.9088L25.2424 22.3965Z" fill="#FFE6AE"/>
<path d="M20.4808 19.9764L15.5742 27.4276L16.3342 18.4985L20.4808 19.9764ZM21.4643 18.4831L17.4764 17.0937C17.9999 16.6318 21.8086 14.9 24.6477 13.6499L21.4643 18.4831Z" fill="#FFFCF6"/>
</svg>
